<svg width="48" height="48" viewBox="0 0 48 48" fill="none" xmlns="http://www.w3.org/2000/svg">
<rect width="48" height="48" rx="24" fill="#FF5631"/>
<path d="M18.0839 33.7067C19.2011 33.7546 20.3198 33.6573 21.4119 33.4173C22.7168 33.1334 24.0605 33.0743 25.3853 33.2427C25.9668 33.3082 26.5417 33.4228 27.1039 33.5853C28.5399 33.952 30.5839 33.8827 31.1106 33.0387C31.4973 32.4147 31.4479 31.9893 31.0759 31.44C30.9959 31.32 30.9079 31.2133 30.8253 31.1267L30.7933 31.0933C30.4578 30.825 30.1275 30.5503 29.8026 30.2693C28.9891 29.5688 28.2091 28.8302 27.4653 28.056C26.7011 27.2694 25.9982 26.4256 25.3626 25.532L25.3146 25.4613C24.3253 23.9427 23.2373 24.0387 22.6453 25.0373C22.2723 25.6646 21.8463 26.2587 21.3719 26.8133C20.8253 27.456 20.2653 28 19.6306 28.5427C19.4679 28.6827 18.9613 29.1027 19.0826 29.0013C19.0773 29.0053 19.0599 29.0213 19.1493 28.9067C19.0186 29.0667 17.8826 30.076 17.5493 30.456C16.8626 31.2333 16.5866 31.896 16.6893 32.4293C16.7866 32.9307 16.9826 33.212 17.2893 33.4227C17.484 33.5527 17.7009 33.6458 17.9293 33.6973C17.9733 33.7013 18.0253 33.704 18.0839 33.7067ZM27.5493 24.0053C29.3826 26.632 32.5239 29.0627 32.5239 29.0627C32.5239 29.0627 35.2759 31.3933 33.3746 34.4467C31.4733 37.5 26.3706 36.1507 26.3706 36.1507C26.3706 36.1507 24.3439 35.4973 21.9893 36.02C19.6359 36.5467 17.6079 36.3467 17.6079 36.3467C17.6079 36.3467 14.6666 36.02 14.0706 32.9347C13.4759 29.8493 16.8173 27.548 17.0813 27.2227C17.3426 26.8933 19.0973 25.792 20.3506 23.6787C21.6039 21.564 25.1293 20.292 27.5493 24.0053ZM34.9333 22.112C34.9333 22.7213 35.1879 25.3027 32.8639 25.3547C30.5399 25.4053 30.4426 23.784 30.4426 22.6213C30.4426 21.404 30.6919 19.6813 32.5626 19.6813C34.4293 19.6813 34.9333 21.5067 34.9333 22.1133M27.6946 18.4107C26.1213 18.208 25.7653 16.7813 25.9173 15.3533C26.0439 14.1867 27.4399 12.3947 28.5586 12.652C29.6746 12.9053 30.6919 14.3853 30.4866 15.6573C30.2839 16.9333 29.2706 18.6147 27.6946 18.4107ZM21.0066 17.92C19.8586 17.92 18.9266 16.596 18.9266 14.96C18.9266 13.324 19.8573 12 21.0066 12C22.1573 12 23.0866 13.324 23.0866 14.96C23.0866 16.596 22.1573 17.92 21.0066 17.92ZM15.9493 24.008C13.6893 24.4947 12.8466 21.8787 13.0959 20.6547C13.0959 20.6547 13.3626 18.0053 15.1973 17.8413C16.6546 17.7147 17.7279 19.3093 17.8373 20.2213C17.9066 20.8133 18.2146 23.5213 15.9493 24.008Z" fill="#FCFCFC"/>
</svg>
