<svg width="32" height="32" viewBox="0 0 32 32" fill="none" xmlns="http://www.w3.org/2000/svg">
<g clip-path="url(#clip0_1512_1693)">
<path d="M21.832 25.3689L21.832 25.3689C24.2061 23.4902 25.3301 21.0103 25.3458 18.0104V18.0104C25.3563 16.5416 25.3528 15.073 25.3493 13.6041C25.3476 12.8696 25.3458 12.135 25.3458 11.4002V11.3999V11.3995V11.3991V11.3988V11.3984V11.398V11.3977V11.3973V11.3969V11.3965V11.3962V11.3958V11.3954V11.3951V11.3947V11.3943V11.3939V11.3936V11.3932V11.3928V11.3925V11.3921V11.3917V11.3913V11.391V11.3906V11.3902V11.3898V11.3895V11.3891V11.3887V11.3884V11.388V11.3876V11.3872V11.3869V11.3865V11.3861V11.3857V11.3854V11.385V11.3846V11.3842V11.3838V11.3835V11.3831V11.3827V11.3823V11.382V11.3816V11.3812V11.3808V11.3805V11.3801V11.3797V11.3793V11.3789V11.3786V11.3782V11.3778V11.3774V11.3771V11.3767V11.3763V11.3759V11.3755V11.3752V11.3748V11.3744V11.374V11.3736V11.3733V11.3729V11.3725V11.3721V11.3717V11.3714V11.371V11.3706V11.3702V11.3698V11.3695V11.3691V11.3687V11.3683V11.3679V11.3675V11.3672V11.3668V11.3664V11.366V11.3656V11.3653V11.3649V11.3645V11.3641V11.3637V11.3633V11.363V11.3626V11.3622V11.3618V11.3614V11.361V11.3607V11.3603V11.3599V11.3595V11.3591V11.3587V11.3583V11.358V11.3576V11.3572V11.3568V11.3564V11.356V11.3557V11.3553V11.3549V11.3545V11.3541V11.3537V11.3533V11.353V11.3526V11.3522V11.3518V11.3514V11.351V11.3506V11.3503V11.3499V11.3495V11.3491V11.3487V11.3483V11.3479V11.3475V11.3472V11.3468V11.3464V11.346V11.3456V11.3452V11.3448V11.3444V11.3441V11.3437V11.3433V11.3429V11.3425V11.3421V11.3417V11.3413V11.341V11.3406V11.3402V11.3398V11.3394V11.339V11.3386V11.3382V11.3378V11.3375V11.3371V11.3367V11.3363V11.3359V11.3355V11.3351V11.3347V11.3343V11.3339V11.3336V11.3332V11.3328V11.3324V11.332V11.3316V11.3312V11.3308V11.3304V11.33V11.3297V11.3293V11.3289V11.3285V11.3281V11.3277V11.3273V11.3269V11.3265V11.3261V11.3258V11.3254V11.325V11.3246V11.3242V11.3238V11.3234V11.323V11.3226V11.3222V11.3218V11.3215V11.3211V11.3207V11.3203V11.3199V11.3195V11.3191V11.3187V11.3183V11.3179V11.3175V11.3172V11.3168V11.3164V11.316V11.3156V11.3152V11.3148V11.3144V11.314V11.3136V11.3132V11.3128V11.3125V11.3121V11.3117V11.3113V11.3109V11.3105V11.3101V11.3097V11.3093V11.3089V11.3085V11.3081V11.3078V11.3074V11.307V11.3066V11.3062V11.3058V11.3054V11.305V11.3046V11.3042V11.3038V11.3034V11.303V11.3027V11.3023V11.3019V11.3015V11.3011V11.3007V11.3003V11.2999V11.2995V11.2991V11.2987V11.2983V11.298V11.2976V11.2972V11.2968V11.2964V11.296V11.2956V11.2952V11.2948V11.2944V11.294V11.2936V11.2933V11.2929V11.2925V11.2921V11.2917V11.2913V11.2909V11.2905V11.2901V11.2897V11.2893V11.2889V11.2886V11.2882V11.2878V11.2874V11.287V11.2866V11.2862V11.2858V11.2854V11.285V11.2846V11.2842V11.2839V11.2835V11.2831V11.2827V11.2823V11.2819V11.2815V11.2811V11.2807V11.2803V11.2799V11.2796V11.2792V11.2788V11.2784V11.278V11.2776V11.2772V11.2768V11.2764V11.276V11.2756V11.2753V11.2749V11.2745V11.2741V11.2737V11.2733V11.2729V11.2725V11.2721V11.2717V11.2714V11.271V11.2706V11.2702V11.2698V11.2694V11.269V11.2686V11.2682V11.2679V11.2675V11.2671V11.2667V11.2663V11.2659V11.2655V11.2651V11.2647V11.2643V11.264V11.2636V11.2632V11.2628V11.2624V11.262V11.2616V11.2612V11.2609V11.2605V11.2601V11.2597V11.2593V11.2589V11.2585V11.2581V11.2578V11.2574V11.257V11.2566V11.2562V11.2558V11.2554V11.255V11.2547V11.2543V11.2539V11.2535V11.2531V11.2527V11.2523V11.252V11.2516V11.2512V11.2508V11.2504V11.25V11.2496V11.2492V11.2489V11.2485V11.2481V11.2477V11.2473V11.2469V11.2466V11.2462V11.2458V11.2454V11.245V11.2446V11.2442V11.2439V11.2435V11.2431V11.2427V11.2423V11.2419V11.2416V11.2412V11.2408V11.2404V11.24V11.2396V11.2393V11.2389V11.2385V11.2381V11.2377V11.2373V11.237V11.2366V11.2362V11.2358V11.2354V11.2351V11.2347V11.2343V11.2339V11.2335V11.2331V11.2328V11.2324V11.232V11.2316V11.2312V11.2309V11.2305V11.2301V11.2297V11.2293V11.229V11.2286V11.2282V11.2278V11.2274V11.2271V11.2267V11.2263V11.2259V11.2256V11.2252V11.2248V11.2244V11.224V11.2237V11.2233V11.2229V11.2225V11.2222V11.2218V11.2214V11.221V11.2207V11.2203V11.2199V11.2195V11.2191V11.2188V11.2184V11.218V11.2176V11.2173V11.2169V11.2165V11.2161V11.2158V11.2154V11.215V11.2146V11.2143V11.2139V11.2135V11.2132V11.2128V11.2124V11.212V11.2117V11.2113V11.2109V11.2105V11.2102V11.2098V11.2094V11.2091V11.2087V11.2083V11.2079V11.2076V11.2072V11.2068V11.2065V11.2061V11.2057V11.2053V11.205V11.2046V11.2042V11.2039V11.2035C25.3458 10.8195 25.43 10.5154 25.598 10.3074C25.7673 10.0977 26.0161 9.99265 26.3287 9.99667M21.832 25.3689L6.67284 18.1051M21.832 25.3689C20.4887 26.4327 18.9491 27.0196 17.1798 27.1762M21.832 25.3689L17.1798 27.1762M26.3287 9.99667C26.6312 9.99675 26.8753 10.1131 27.0436 10.3287C27.2106 10.5428 27.2991 10.85 27.3031 11.2266L27.3031 11.2271L27.3031 11.2398V11.2525V11.2652V11.2778V11.2905V11.3032V11.3159V11.3286V11.3412V11.3539V11.3666V11.3793V11.392V11.4046V11.4173V11.43V11.4427V11.4554V11.468V11.4807V11.4934V11.5061V11.5188V11.5314V11.5441V11.5568V11.5695V11.5822V11.5948V11.6075V11.6202V11.6329V11.6456V11.6582V11.6709V11.6836V11.6963V11.709V11.7217V11.7343V11.747V11.7597V11.7724V11.7851V11.7977V11.8104V11.8231V11.8358V11.8485V11.8611V11.8738V11.8865V11.8992V11.9119V11.9245V11.9372V11.9499V11.9626V11.9753V11.9879V12.0006V12.0133V12.026V12.0387V12.0513V12.064V12.0767V12.0894V12.1021V12.1147V12.1274V12.1401V12.1528V12.1655V12.1782V12.1908V12.2035V12.2162V12.2289V12.2416V12.2542V12.2669V12.2796V12.2923V12.305V12.3176V12.3303V12.343V12.3557V12.3684V12.381V12.3937V12.4064V12.4191V12.4318V12.4444V12.4571V12.4698V12.4825V12.4952V12.5078V12.5205V12.5332V12.5459V12.5586V12.5712V12.5839V12.5966V12.6093V12.622V12.6346V12.6473V12.66V12.6727V12.6854V12.6981V12.7107V12.7234V12.7361V12.7488V12.7615V12.7741V12.7868V12.7995V12.8122V12.8249V12.8375V12.8502V12.8629V12.8756V12.8883V12.9009V12.9136V12.9263V12.939V12.9517V12.9643V12.977V12.9897V13.0024V13.0151V13.0277V13.0404V13.0531V13.0658V13.0785V13.0911V13.1038V13.1165V13.1292V13.1419V13.1545V13.1672V13.1799V13.1926V13.2053V13.218V13.2306V13.2433V13.256V13.2687V13.2814V13.294V13.3067V13.3194V13.3321V13.3448V13.3574V13.3701V13.3828V13.3955V13.4082V13.4208V13.4335V13.4462V13.4589V13.4716V13.4842V13.4969V13.5096V13.5223V13.535V13.5476V13.5603V13.573V13.5857V13.5984V13.611V13.6237V13.6364V13.6491V13.6618V13.6745V13.6871V13.6998V13.7125V13.7252V13.7379V13.7505V13.7632V13.7759V13.7886V13.8013V13.8139V13.8266V13.8393V13.852V13.8647V13.8773V13.89V13.9027V13.9154V13.9281V13.9407V13.9534V13.9661V13.9788V13.9915V14.0041V14.0168V14.0295V14.0422V14.0549V14.0675V14.0802V14.0929V14.1056V14.1183V14.1309V14.1436V14.1563V14.169V14.1817V14.1944V14.207V14.2197V14.2324V14.2451V14.2578V14.2704V14.2831V14.2958V14.3085V14.3212V14.3338V14.3465V14.3592V14.3719V14.3846V14.3972V14.4099V14.4226V14.4353V14.448V14.4606V14.4733V14.486V14.4987V14.5114V14.524V14.5367V14.5494V14.5621V14.5748V14.5874V14.6001V14.6128V14.6255V14.6382V14.6509V14.6635V14.6762V14.6889V14.7016V14.7143V14.7269V14.7396V14.7523V14.765V14.7777V14.7903V14.803V14.8157V14.8284V14.8411V14.8537V14.8664V14.8791V14.8918V14.9045V14.9171V14.9298V14.9425V14.9552V14.9679V14.9805V14.9932V15.0059V15.0186V15.0313V15.0439V15.0566V15.0693V15.082V15.0947V15.1073V15.12V15.1327V15.1454V15.1581V15.1708V15.1834V15.1961V15.2088V15.2215V15.2342V15.2468V15.2595V15.2722V15.2849V15.2976V15.3102V15.3229V15.3356V15.3483V15.361V15.3736V15.3863V15.399V15.4117V15.4244V15.437V15.4497V15.4624V15.4751V15.4878V15.5004V15.5131V15.5258V15.5385V15.5512V15.5638V15.5765V15.5892V15.6019V15.6146V15.6272V15.6399V15.6526V15.6653V15.678V15.6907V15.7033V15.716V15.7287V15.7414V15.7541V15.7667V15.7794V15.7921V15.8048V15.8175V15.8301V15.8428V15.8555V15.8682V15.8809V15.8935V15.9062V15.9189V15.9316V15.9443V15.9569V15.9696V15.9823V15.995V16.0077V16.0203V16.033V16.0457V16.0584V16.0711V16.0837V16.0964V16.1091V16.1218V16.1345V16.1472V16.1598V16.1725V16.1852V16.1979V16.2106V16.2232V16.2359V16.2486V16.2613V16.274V16.2866V16.2993V16.312V16.3247V16.3374V16.35V16.3627V16.3754V16.3881V16.4008V16.4134V16.4261V16.4388V16.4515V16.4642V16.4768V16.4895V16.5022V16.5149V16.5276V16.5402V16.5529V16.5656V16.5783V16.591V16.6036V16.6163V16.629V16.6417V16.6544V16.6671V16.6797V16.6924V16.7051V16.7178V16.7305V16.7431V16.7558V16.7685V16.7812V16.7939V16.8065V16.8192V16.8319V16.8446V16.8573V16.8699V16.8826V16.8953V16.908V16.9207V16.9333V16.946V16.9587V16.9714V16.9841V16.9967V17.0094V17.0221V17.0348V17.0475V17.0601V17.0728V17.0855V17.0982V17.1109V17.1236V17.1362V17.1489V17.1616V17.1743V17.187V17.1996V17.2123V17.225V17.2377V17.2504V17.263V17.2757V17.2884V17.3011V17.3138V17.3264V17.3391V17.3518V17.3645V17.3772V17.3898V17.4025V17.4152V17.4279V17.4406V17.4532V17.4659V17.4786V17.4913V17.504V17.5166V17.5293V17.542V17.5547V17.5674V17.58V17.5927V17.6054V17.6181V17.6308V17.6435V17.6561V17.6688V17.6815V17.6942V17.7069V17.7195C27.3031 17.8534 27.3031 17.9778 27.3109 18.1097C27.3185 18.2112 27.3442 18.2652 27.3807 18.2922C27.4175 18.3196 27.4804 18.3307 27.5907 18.308L27.5911 18.3079C28.191 18.1885 28.7766 17.8194 29.2233 17.3222C29.6701 16.8249 29.9742 16.2035 30.0168 15.5834L30.0168 15.5834C30.3001 11.4852 28.7354 8.21981 25.4451 5.79009C23.6381 4.46015 21.539 3.95046 19.302 3.93477C16.9707 3.91903 14.6397 3.91903 12.3088 3.95837L12.3085 3.95838C11.6173 3.9662 10.9252 4.06788 10.247 4.20138C9.77668 4.29616 9.31545 4.43826 8.82534 4.58926C8.62656 4.6505 8.42302 4.7132 8.21221 4.77481L8.174 4.78598L8.17129 4.78114C6.93976 5.21305 5.83814 6.15293 4.98876 7.08016C4.13014 8.01747 3.5335 8.93718 3.32548 9.29282L3.32538 9.29298C2.16134 11.2665 1.72096 13.4197 1.98841 15.6833L1.98841 15.6834C2.14372 17.0133 3.16893 18.0441 4.48536 18.3236C4.55709 18.3366 4.62928 18.3382 4.73796 18.3384C4.74152 18.2973 4.74529 18.2571 4.749 18.2176C4.76162 18.0831 4.77346 17.9569 4.77346 17.8297V17.8169V17.8041V17.7913V17.7784V17.7656V17.7528V17.74V17.7272V17.7143V17.7015V17.6887V17.6759V17.663V17.6502V17.6374V17.6246V17.6118V17.5989V17.5861V17.5733V17.5605V17.5477V17.5348V17.522V17.5092V17.4964V17.4835V17.4707V17.4579V17.4451V17.4322V17.4194V17.4066V17.3938V17.3809V17.3681V17.3553V17.3425V17.3296V17.3168V17.304V17.2912V17.2783V17.2655V17.2527V17.2399V17.227V17.2142V17.2014V17.1886V17.1757V17.1629V17.1501V17.1372V17.1244V17.1116V17.0988V17.0859V17.0731V17.0603V17.0475V17.0346V17.0218V17.009V16.9961V16.9833V16.9705V16.9576V16.9448V16.932V16.9192V16.9063V16.8935V16.8807V16.8678V16.855V16.8422V16.8293V16.8165V16.8037V16.7909V16.778V16.7652V16.7524V16.7395V16.7267V16.7139V16.701V16.6882V16.6754V16.6625V16.6497V16.6369V16.624V16.6112V16.5984V16.5855V16.5727V16.5599V16.547V16.5342V16.5214V16.5085V16.4957V16.4829V16.47V16.4572V16.4444V16.4315V16.4187V16.4059V16.393V16.3802V16.3674V16.3545V16.3417V16.3289V16.316V16.3032V16.2904V16.2775V16.2647V16.2518V16.239V16.2262V16.2133V16.2005V16.1877V16.1748V16.162V16.1492V16.1363V16.1235V16.1106V16.0978V16.085V16.0721V16.0593V16.0465V16.0336V16.0208V16.008V15.9951V15.9823V15.9694V15.9566V15.9438V15.9309V15.9181V15.9053V15.8924V15.8796V15.8667V15.8539V15.8411V15.8282V15.8154V15.8025V15.7897V15.7769V15.764V15.7512V15.7384V15.7255V15.7127V15.6998V15.687V15.6742V15.6613V15.6485V15.6356V15.6228V15.61V15.5971V15.5843V15.5714V15.5586V15.5458V15.5329V15.5201V15.5072V15.4944V15.4816V15.4687V15.4559V15.443V15.4302V15.4174V15.4045V15.3917V15.3788V15.366V15.3532V15.3403V15.3275V15.3146V15.3018V15.289V15.2761V15.2633V15.2504V15.2376V15.2248V15.2119V15.1991V15.1862V15.1734V15.1605V15.1477V15.1349V15.122V15.1092V15.0963V15.0835V15.0707V15.0578V15.045V15.0321V15.0193V15.0065V14.9936V14.9808V14.9679V14.9551V14.9422V14.9294V14.9166V14.9037V14.8909V14.878V14.8652V14.8524V14.8395V14.8267V14.8138V14.801V14.7881V14.7753V14.7625V14.7496V14.7368V14.7239V14.7111V14.6983V14.6854V14.6726V14.6597V14.6469V14.634V14.6212V14.6084V14.5955V14.5827V14.5698V14.557V14.5442V14.5313V14.5185V14.5056V14.4928V14.4799V14.4671V14.4543V14.4414V14.4286V14.4157V14.4029V14.39V14.3772V14.3644V14.3515V14.3387V14.3258V14.313V14.3002V14.2873V14.2745V14.2616V14.2488V14.2359V14.2231V14.2103V14.1974V14.1846V14.1717V14.1589V14.1461V14.1332V14.1204V14.1075V14.0947V14.0818V14.069V14.0562V14.0433V14.0305V14.0176V14.0048V13.992V13.9791V13.9663V13.9534V13.9406V13.9278V13.9149V13.9021V13.8892V13.8764V13.8635V13.8507V13.8379V13.825V13.8122V13.7993V13.7865V13.7737V13.7608V13.748V13.7351V13.7223V13.7095V13.6966V13.6838V13.6709V13.6581V13.6453V13.6324V13.6196V13.6067V13.5939V13.5811V13.5682V13.5554V13.5425V13.5297V13.5169V13.504V13.4912V13.4783V13.4655V13.4527V13.4398V13.427V13.4141V13.4013V13.3885V13.3756V13.3628V13.3499V13.3371V13.3243V13.3114V13.2986V13.2858V13.2729V13.2601V13.2472V13.2344V13.2216V13.2087V13.1959V13.183V13.1702V13.1574V13.1445V13.1317V13.1189V13.106V13.0932V13.0803V13.0675V13.0547V13.0418V13.029V13.0162V13.0033V12.9905V12.9777V12.9648V12.952V12.9391V12.9263V12.9135V12.9006V12.8878V12.875V12.8621V12.8493V12.8365V12.8236V12.8108V12.7979V12.7851V12.7723V12.7594V12.7466V12.7338V12.7209V12.7081V12.6953V12.6824V12.6696V12.6568V12.6439V12.6311V12.6183V12.6054V12.5926V12.5798V12.5669V12.5541V12.5413V12.5284V12.5156V12.5028V12.4899V12.4771V12.4643V12.4514V12.4386V12.4258V12.4129V12.4001V12.3873V12.3744V12.3616V12.3488V12.3359V12.3231V12.3103V12.2974V12.2846V12.2718V12.259V12.2461V12.2333V12.2205V12.2076V12.1948V12.182V12.1691V12.1563V12.1435V12.1307V12.1178V12.105V12.0922V12.0793V12.0665V12.0537V12.0408V12.028V12.0152V12.0024V11.9895V11.9767V11.9639V11.9511V11.9382V11.9254V11.9126V11.8997V11.8869V11.8741V11.8613V11.8484V11.8356V11.8228V11.81V11.7971V11.7843V11.7715V11.7587V11.7458V11.733V11.7202V11.7074V11.6945V11.6817V11.6689V11.6561V11.6432V11.6304V11.6176V11.6048V11.5919V11.5791V11.5663V11.5535V11.5406V11.5278V11.515V11.5022V11.4894V11.4765V11.4637V11.4509V11.4381V11.4253V11.4124V11.3996V11.3868V11.374V11.3611V11.3483V11.3355V11.3227V11.3099V11.297V11.2842V11.2714V11.2586V11.2572C4.77346 11.1165 4.77346 10.9646 4.78958 10.8202L4.78979 10.8183L4.78983 10.8183C4.86458 10.3221 5.27262 9.97284 5.76438 9.98093C6.23273 9.98115 6.63988 10.3467 6.70651 10.8185C6.7261 10.9487 6.72476 11.0796 6.72347 11.2058C6.72315 11.2369 6.72284 11.2676 6.72284 11.2979C6.72284 12.0533 6.72196 12.8094 6.72109 13.5658C6.71933 15.0793 6.71757 16.5938 6.72284 18.105M26.3287 9.99667C26.3286 9.99667 26.3285 9.99667 26.3284 9.99667V10.0467L26.3291 9.99668C26.3289 9.99667 26.3288 9.99667 26.3287 9.99667ZM6.72284 18.105L6.67284 18.1051M6.72284 18.105C6.72284 18.1049 6.72284 18.1049 6.72284 18.1048L6.67284 18.1051M6.72284 18.105C6.74647 21.8001 8.46636 24.4834 11.6684 26.2695L11.644 26.3131C8.42738 24.5189 6.69655 21.8196 6.67284 18.1051M19.6903 1.96968C17.9889 1.94607 16.2919 1.94902 14.5931 1.95197C14.0266 1.95295 13.4599 1.95393 12.8928 1.95393C11.347 1.95393 9.83967 2.16706 8.37145 2.68071C8.1649 2.75245 7.95955 2.83646 7.74432 2.9245C7.6182 2.9761 7.4887 3.02907 7.35357 3.08179L7.34787 3.07247L7.30711 3.09212C2.33954 5.48629 0.0318354 10.9198 -0.0475474 14.3187H-0.0475525L-0.047559 14.3194L-0.0476012 14.3241C-0.0554759 15.2022 -0.0634535 16.0918 0.264062 16.9271C0.990031 18.8175 2.40386 19.8981 4.36287 20.3025L4.36321 20.3026C4.57716 20.3452 4.74181 20.406 4.86701 20.5078C4.99117 20.6087 5.08131 20.7538 5.1386 20.9743C5.97222 24.2076 7.95001 26.5561 10.8862 28.0653L10.8862 28.0653C13.7692 29.5442 16.8102 29.5432 19.831 28.588C23.5161 27.4334 25.7637 24.838 26.8505 21.2044L26.8507 21.2038C26.9582 20.829 27.1634 20.5437 27.5184 20.3858L27.5186 20.3857C27.7613 20.2766 28.0195 20.1831 28.2854 20.113L28.2858 20.1129C30.2093 19.5884 31.3597 18.3066 31.8538 16.418C32.1806 15.1795 32.0366 13.9347 31.8708 12.6921L31.8708 12.6921C31.0692 6.73362 25.753 2.04082 19.6903 1.96968ZM19.6903 1.96968C19.6903 1.96968 19.6903 1.96968 19.6903 1.96968L19.6896 2.01967L19.6902 1.96968C19.6902 1.96968 19.6902 1.96968 19.6903 1.96968ZM17.1798 27.1762L17.1843 27.226L17.1798 27.1762ZM17.8013 21.5256H17.8086H17.8013ZM17.8013 21.5256H17.794M17.8013 21.5256H17.794M17.794 21.5256H17.7867M17.794 21.5256H17.7867M17.7867 21.5256H17.7793M17.7867 21.5256H17.7793M17.7793 21.5256H17.772M17.7793 21.5256H17.772M17.772 21.5256H17.7647M17.772 21.5256H17.7647M17.7647 21.5256H17.7574M17.7647 21.5256H17.7574M17.7574 21.5256H17.7501M17.7574 21.5256H17.7501M17.7501 21.5256H17.7428M17.7501 21.5256H17.7428M17.7428 21.5256H17.7354M17.7428 21.5256H17.7354M17.7354 21.5256H17.7281M17.7354 21.5256H17.7281M17.7281 21.5256H17.7208M17.7281 21.5256H17.7208M17.7208 21.5256H17.7135M17.7208 21.5256H17.7135M17.7135 21.5256H17.7062M17.7135 21.5256H17.7062M17.7062 21.5256H17.6988M17.7062 21.5256H17.6988M17.6988 21.5256H17.6915M17.6988 21.5256H17.6915M17.6915 21.5256H17.6842M17.6915 21.5256H17.6842M17.6842 21.5256H17.6769M17.6842 21.5256H17.6769M17.6769 21.5256H17.6696M17.6769 21.5256H17.6696M17.6696 21.5256H17.6622M17.6696 21.5256H17.6622M17.6622 21.5256H17.6549M17.6622 21.5256H17.6549M17.6549 21.5256H17.6476M17.6549 21.5256H17.6476M17.6476 21.5256H17.6403M17.6476 21.5256H17.6403M17.6403 21.5256H17.633M17.6403 21.5256H17.633M17.633 21.5256H17.6256M17.633 21.5256H17.6256M17.6256 21.5256H17.6183M17.6256 21.5256H17.6183M17.6183 21.5256H17.611M17.6183 21.5256H17.611M17.611 21.5256H17.6037M17.611 21.5256H17.6037M17.6037 21.5256H17.5964M17.6037 21.5256H17.5964M17.5964 21.5256H17.589M17.5964 21.5256H17.589M17.589 21.5256H17.5817M17.589 21.5256H17.5817M17.5817 21.5256H17.5744M17.5817 21.5256H17.5744M17.5744 21.5256H17.5671M17.5744 21.5256H17.5671M17.5671 21.5256H17.5597M17.5671 21.5256H17.5597M17.5597 21.5256H17.5524M17.5597 21.5256H17.5524M17.5524 21.5256H17.5451M17.5524 21.5256H17.5451M17.5451 21.5256H17.5378M17.5451 21.5256H17.5378M17.5378 21.5256H17.5305M17.5378 21.5256H17.5305M17.5305 21.5256H17.5231M17.5305 21.5256H17.5231M17.5231 21.5256H17.5158M17.5231 21.5256H17.5158M17.5158 21.5256H17.5085M17.5158 21.5256H17.5085M17.5085 21.5256H17.5012M17.5085 21.5256H17.5012M17.5012 21.5256H17.4938M17.5012 21.5256H17.4938M17.4938 21.5256H17.4865M17.4938 21.5256H17.4865M17.4865 21.5256H17.4792M17.4865 21.5256H17.4792M17.4792 21.5256H17.4719M17.4792 21.5256H17.4719M17.4719 21.5256H17.4645M17.4719 21.5256H17.4645M17.4645 21.5256H17.4572M17.4645 21.5256H17.4572M17.4572 21.5256H17.4499M17.4572 21.5256H17.4499M17.4499 21.5256H17.4426M17.4499 21.5256H17.4426M17.4426 21.5256H17.4352M17.4426 21.5256H17.4352M17.4352 21.5256H17.4279M17.4352 21.5256H17.4279M17.4279 21.5256H17.4206M17.4279 21.5256H17.4206M17.4206 21.5256H17.4133M17.4206 21.5256H17.4133M17.4133 21.5256H17.4059M17.4133 21.5256H17.4059M17.4059 21.5256H17.3986M17.4059 21.5256H17.3986M17.3986 21.5256H17.3913M17.3986 21.5256H17.3913M17.3913 21.5256H17.384M17.3913 21.5256H17.384M17.384 21.5256H17.3766M17.384 21.5256H17.3766M17.3766 21.5256H17.3693M17.3766 21.5256H17.3693M17.3693 21.5256H17.362M17.3693 21.5256H17.362M17.362 21.5256H17.3547M17.362 21.5256H17.3547M17.3547 21.5256H17.3473M17.3547 21.5256H17.3473M17.3473 21.5256H17.34M17.3473 21.5256H17.34M17.34 21.5256H17.3327M17.34 21.5256H17.3327M17.3327 21.5256H17.3254M17.3327 21.5256H17.3254M17.3254 21.5256H17.318M17.3254 21.5256H17.318M17.318 21.5256H17.3107M17.318 21.5256H17.3107M17.3107 21.5256H17.3034M17.3107 21.5256H17.3034M17.3034 21.5256H17.296M17.3034 21.5256H17.296M17.296 21.5256H17.2887M17.296 21.5256H17.2887M17.2887 21.5256H17.2814M17.2887 21.5256H17.2814M17.2814 21.5256H17.2741M17.2814 21.5256H17.2741M17.2741 21.5256H17.2667M17.2741 21.5256H17.2667M17.2667 21.5256H17.2594M17.2667 21.5256H17.2594M17.2594 21.5256H17.2521M17.2594 21.5256H17.2521M17.2521 21.5256H17.2447M17.2521 21.5256H17.2447M17.2447 21.5256H17.2374M17.2447 21.5256H17.2374M17.2374 21.5256H17.2301M17.2374 21.5256H17.2301M17.2301 21.5256H17.2228M17.2301 21.5256H17.2228M17.2228 21.5256H17.2154M17.2228 21.5256H17.2154M17.2154 21.5256H17.2081M17.2154 21.5256H17.2081M17.2081 21.5256H17.2008M17.2081 21.5256H17.2008M17.2008 21.5256H17.1934M17.2008 21.5256H17.1934M17.1934 21.5256H17.1861M17.1934 21.5256H17.1861M17.1861 21.5256H17.1788M17.1861 21.5256H17.1788M17.1788 21.5256H17.1715M17.1788 21.5256H17.1715M17.1715 21.5256H17.1641M17.1715 21.5256H17.1641M17.1641 21.5256H17.1568M17.1641 21.5256H17.1568M17.1568 21.5256H17.1495M17.1568 21.5256H17.1495M17.1495 21.5256H17.1421M17.1495 21.5256H17.1421M17.1421 21.5256H17.1348M17.1421 21.5256H17.1348M17.1348 21.5256H17.1275M17.1348 21.5256H17.1275M17.1275 21.5256H17.1201M17.1275 21.5256H17.1201M17.1201 21.5256H17.1128M17.1201 21.5256H17.1128M17.1128 21.5256H17.1055M17.1128 21.5256H17.1055M17.1055 21.5256H17.0981M17.1055 21.5256H17.0981M17.0981 21.5256H17.0908M17.0981 21.5256H17.0908M17.0908 21.5256H17.0835M17.0908 21.5256H17.0835M17.0835 21.5256H17.0762M17.0835 21.5256H17.0762M17.0762 21.5256H17.0688M17.0762 21.5256H17.0688M17.0688 21.5256H17.0615M17.0688 21.5256H17.0615M17.0615 21.5256H17.0542M17.0615 21.5256H17.0542M17.0542 21.5256H17.0468M17.0542 21.5256H17.0468M17.0468 21.5256H17.0395M17.0468 21.5256H17.0395M17.0395 21.5256H17.0322M17.0395 21.5256H17.0322M17.0322 21.5256H17.0248M17.0322 21.5256H17.0248M17.0248 21.5256H17.0175M17.0248 21.5256H17.0175M17.0175 21.5256H17.0102M17.0175 21.5256H17.0102M17.0102 21.5256H17.0028M17.0102 21.5256H17.0028M17.0028 21.5256H16.9955M17.0028 21.5256H16.9955M16.9955 21.5256H16.9882M16.9955 21.5256H16.9882M16.9882 21.5256H16.9808M16.9882 21.5256H16.9808M16.9808 21.5256H16.9735M16.9808 21.5256H16.9735M16.9735 21.5256H16.9662M16.9735 21.5256H16.9662M16.9662 21.5256H16.9588M16.9662 21.5256H16.9588M16.9588 21.5256H16.9515M16.9588 21.5256H16.9515M16.9515 21.5256H16.9442M16.9515 21.5256H16.9442M16.9442 21.5256H16.9368M16.9442 21.5256H16.9368M16.9368 21.5256H16.9295M16.9368 21.5256H16.9295M16.9295 21.5256H16.9222M16.9295 21.5256H16.9222M16.9222 21.5256H16.9148H16.9222ZM14.6147 27.1634C14.6119 27.1785 14.609 27.1936 14.6061 27.2088L14.6552 27.2182L14.6605 27.1684C14.6452 27.1668 14.63 27.1651 14.6147 27.1634ZM19.041 22.2901L19.0406 22.2891L18.9941 22.3075L19.041 22.2901ZM18.6407 23.6821L18.6408 23.682L18.6069 23.6453L18.6407 23.6821ZM17.0758 25.1302L17.0767 25.1293L17.042 25.0934L17.0758 25.1302ZM16.9098 25.472L16.9092 25.4691L16.8602 25.479L16.9098 25.472ZM13.2411 21.7199C13.0278 21.8504 12.877 22.0449 12.7827 22.2978L14.0545 21.5256C13.7243 21.5256 13.4537 21.5898 13.2411 21.7199Z" fill="#333333" stroke="#333333" stroke-width="0.1"/>
<path d="M13.386 14.9936C12.8237 14.9936 12.3893 14.5705 12.3829 14.0192C12.3765 13.4487 12.811 13 13.3796 13C13.9483 13 14.3891 13.4423 14.3827 14.0128C14.3764 14.5769 13.9483 15 13.386 15V14.9936Z" fill="#333333"/>
<path d="M18.9055 15C18.3304 15 17.9087 14.5641 17.9151 13.9808C17.9215 13.4231 18.3496 13 18.9118 13C19.4613 13 19.9022 13.4423 19.915 13.9872C19.9214 14.5449 19.4677 15 18.9055 14.9936V15Z" fill="#333333"/>
</g>
<defs>
<clipPath id="clip0_1512_1693">
<rect width="32" height="32" fill="white"/>
</clipPath>
</defs>
</svg>
