<?xml version="1.0" encoding="UTF-8"?>
<svg id="Layer_1" data-name="Layer 1" xmlns="http://www.w3.org/2000/svg" viewBox="0 0 40.49 34.57">
  <defs>
    <style>
      .cls-1 {
        stroke-width: 0px;
      }
    </style>
  </defs>
  <path class="cls-1" d="m21.74,32.05c2.25-.2,4.21-.95,5.92-2.31,3.02-2.4,4.45-5.57,4.47-9.4.02-2.8,0-5.6,0-8.4,0-.08,0-.17,0-.25,0-.96.42-1.48,1.18-1.47.73,0,1.16.56,1.17,1.5,0,2.75,0,5.5,0,8.25,0,.17,0,.33.01.5.02.27.14.37.43.31,1.55-.31,3.01-1.91,3.12-3.52.36-5.23-1.63-9.4-5.81-12.5-2.3-1.7-4.97-2.35-7.81-2.37-2.95-.02-5.9-.02-8.85.03-.88.01-1.76.14-2.62.31-.84.17-1.66.46-2.58.73-.34-.61-.7-1.28-1.1-2.01.49-.19.91-.38,1.34-.53C12.46.27,14.36,0,16.31,0c2.87,0,5.73-.02,8.6.02,7.64.09,14.34,6.03,15.35,13.57.21,1.58.39,3.15-.02,4.71-.62,2.38-2.06,3.99-4.47,4.65-.34.09-.67.21-.98.35-.47.21-.74.59-.88,1.08-1.37,4.6-4.2,7.88-8.84,9.34-3.81,1.21-7.64,1.21-11.27-.66-3.7-1.91-6.19-4.88-7.24-8.97-.15-.58-.48-.79-1.03-.9-2.46-.51-4.23-1.87-5.14-4.25C-.02,17.89-.01,16.77,0,15.65.1,11.35,3.01,4.47,9.27,1.44c.42.69.71,1.37,1.1,2.01-3.19,1.09-5.69,4.87-6.22,5.78-1.48,2.52-2.04,5.27-1.7,8.16.2,1.72,1.52,3.05,3.21,3.41.11.02.22.02.39.02.02-.25.05-.48.05-.71,0-2.78,0-5.57,0-8.35,0-.18,0-.37.02-.55.09-.6.58-1.02,1.17-1.01.56,0,1.05.44,1.13,1.01.03.2.02.4.02.6,0,2.88-.01,5.77,0,8.65.03,4.72,2.22,8.15,6.29,10.43,1.16.65,2.42,1,3.81,1.15.15-.79.3-1.55.42-2.32.02-.11-.12-.26-.22-.35-.65-.62-1.32-1.23-1.98-1.83-.6-.55-.77-1.1-.53-1.73.23-.62.73-.94,1.55-.94,1.58,0,3.17,0,4.75,0,.78,0,1.26.32,1.5.93.23.62.08,1.17-.49,1.7-.66.61-1.33,1.21-1.98,1.84-.13.12-.26.34-.23.49.1.72.25,1.44.4,2.21Z"/>
  <path class="cls-1" d="m16.09,16.1c-.88,0-1.56-.66-1.57-1.52-.01-.89.67-1.59,1.56-1.59.89,0,1.58.69,1.57,1.58-.01.88-.68,1.54-1.56,1.54Z"/>
  <path class="cls-1" d="m24.82,16.1c-.9,0-1.56-.68-1.55-1.59.01-.87.68-1.53,1.56-1.53.86,0,1.55.69,1.57,1.54.01.87-.7,1.58-1.58,1.57Z"/>
</svg>