<svg width="64" height="64" viewBox="0 0 64 64" fill="none" xmlns="http://www.w3.org/2000/svg">
<path d="M39.0993 32.0107C42.7659 37.264 49.0486 42.1253 49.0486 42.1253C49.0486 42.1253 54.5526 46.7867 50.7499 52.8933C46.9473 59 36.7419 56.3013 36.7419 56.3013C36.7419 56.3013 32.6886 54.9947 27.9793 56.04C23.2726 57.0933 19.2166 56.6933 19.2166 56.6933C19.2166 56.6933 13.3339 56.04 12.1419 49.8693C10.9526 43.6987 17.6353 39.096 18.1633 38.4453C18.6859 37.7867 22.1953 35.584 24.7019 31.3573C27.2086 27.128 34.2593 24.584 39.0993 32.0107ZM53.8673 28.224C53.8673 29.4427 54.3766 34.6053 49.7286 34.7093C45.0806 34.8107 44.8859 31.568 44.8859 29.2427C44.8859 26.808 45.3846 23.3627 49.1259 23.3627C52.8593 23.3627 53.8673 27.0133 53.8673 28.2267M39.3899 20.8213C36.2433 20.416 35.5313 17.5627 35.8353 14.7067C36.0886 12.3733 38.8806 8.78933 41.1179 9.304C43.3499 9.81067 45.3846 12.7707 44.9739 15.3147C44.5686 17.8667 42.5419 21.2293 39.3899 20.8213ZM26.0139 19.84C23.7179 19.84 21.8539 17.192 21.8539 13.92C21.8539 10.648 23.7126 8 26.0113 8C28.3099 8 30.1713 10.648 30.1713 13.92C30.1713 17.192 28.3126 19.84 26.0113 19.84M15.8966 32.016C11.3766 32.9893 9.69125 27.7573 10.1899 25.3093C10.1899 25.3093 10.7233 20.0107 14.3926 19.6827C17.3073 19.4293 19.4539 22.6187 19.6726 24.4427C19.8113 25.6267 20.4273 31.0427 15.8966 32.016Z" fill="black"/>
</svg>
