<svg width="32" height="32" viewBox="0 0 32 32" fill="none" xmlns="http://www.w3.org/2000/svg">
<path d="M6.66667 9.33335C6.66667 8.80292 6.87738 8.29421 7.25245 7.91914C7.62753 7.54407 8.13623 7.33335 8.66667 7.33335C9.1971 7.33335 9.70581 7.54407 10.0809 7.91914C10.456 8.29421 10.6667 8.80292 10.6667 9.33335C10.6667 9.86379 10.456 10.3725 10.0809 10.7476C9.70581 11.1226 9.1971 11.3334 8.66667 11.3334C8.13623 11.3334 7.62753 11.1226 7.25245 10.7476C6.87738 10.3725 6.66667 9.86379 6.66667 9.33335ZM8.66667 4.66669C7.42899 4.66669 6.24201 5.15835 5.36684 6.03352C4.49167 6.90869 4 8.09568 4 9.33335C4 10.571 4.49167 11.758 5.36684 12.6332C6.24201 13.5084 7.42899 14 8.66667 14C9.90434 14 11.0913 13.5084 11.9665 12.6332C12.8417 11.758 13.3333 10.571 13.3333 9.33335C13.3333 8.09568 12.8417 6.90869 11.9665 6.03352C11.0913 5.15835 9.90434 4.66669 8.66667 4.66669ZM16 10.6667H26.6667V8.00002H16V10.6667ZM21.3333 22.6667C21.3333 22.1363 21.544 21.6275 21.9191 21.2525C22.2942 20.8774 22.8029 20.6667 23.3333 20.6667C23.8638 20.6667 24.3725 20.8774 24.7475 21.2525C25.1226 21.6275 25.3333 22.1363 25.3333 22.6667C25.3333 23.1971 25.1226 23.7058 24.7475 24.0809C24.3725 24.456 23.8638 24.6667 23.3333 24.6667C22.8029 24.6667 22.2942 24.456 21.9191 24.0809C21.544 23.7058 21.3333 23.1971 21.3333 22.6667ZM23.3333 18C22.0957 18 20.9087 18.4917 20.0335 19.3669C19.1583 20.242 18.6667 21.429 18.6667 22.6667C18.6667 23.9044 19.1583 25.0914 20.0335 25.9665C20.9087 26.8417 22.0957 27.3334 23.3333 27.3334C24.571 27.3334 25.758 26.8417 26.6332 25.9665C27.5083 25.0914 28 23.9044 28 22.6667C28 21.429 27.5083 20.242 26.6332 19.3669C25.758 18.4917 24.571 18 23.3333 18ZM5.33333 21.3334V24H16V21.3334H5.33333Z" fill="#333333"/>
</svg>
