<svg width="35" height="34" viewBox="0 0 35 34" fill="none" xmlns="http://www.w3.org/2000/svg">
<path d="M17.5007 33.6667C8.29565 33.6667 0.833984 26.205 0.833984 17C0.833984 7.79504 8.29565 0.333374 17.5007 0.333374C26.7057 0.333374 34.1673 7.79504 34.1673 17C34.1673 26.205 26.7057 33.6667 17.5007 33.6667ZM17.5007 30.3334C21.0369 30.3334 24.4283 28.9286 26.9287 26.4281C29.4292 23.9276 30.834 20.5363 30.834 17C30.834 13.4638 29.4292 10.0724 26.9287 7.57195C24.4283 5.07147 21.0369 3.66671 17.5007 3.66671C13.9644 3.66671 10.573 5.07147 8.07256 7.57195C5.57208 10.0724 4.16732 13.4638 4.16732 17C4.16732 20.5363 5.57208 23.9276 8.07256 26.4281C10.573 28.9286 13.9644 30.3334 17.5007 30.3334ZM17.5007 14.6434L22.214 9.92837L24.5723 12.2867L19.8573 17L24.5723 21.7134L22.214 24.0717L17.5007 19.3567L12.7873 24.0717L10.429 21.7134L15.144 17L10.429 12.2867L12.7873 9.92837L17.5007 14.6434Z" fill="#F0440E"/>
</svg>
