<svg width="40" height="40" viewBox="0 0 40 40" fill="none" xmlns="http://www.w3.org/2000/svg">
<rect x="0.5" y="0.5" width="39" height="39" rx="19.5" fill="#FCFCFC"/>
<rect x="0.5" y="0.5" width="39" height="39" rx="19.5" stroke="#FF5631"/>
<path d="M10.3984 20.9375V14.4219H12.2891V20.9375C12.2891 22.7188 13.0651 23.6094 14.6172 23.6094C16.1797 23.6094 16.9609 22.7188 16.9609 20.9375V14.4219H18.8516V20.9375C18.8516 22.3958 18.4609 23.474 17.6797 24.1719C16.8984 24.8594 15.8724 25.2031 14.6016 25.2031C13.3411 25.2031 12.3255 24.8594 11.5547 24.1719C10.7839 23.4844 10.3984 22.4062 10.3984 20.9375ZM23.4766 20.9688H26.7734L25.1172 16.3281L23.4766 20.9688ZM20.1016 25L24.1172 14.4219H26.1641L30.2266 25H28.2109L27.3516 22.5938H22.8984L22.0391 25H20.1016Z" fill="#EF404B"/>
</svg>