<svg width="40" height="40" viewBox="0 0 40 40" fill="none" xmlns="http://www.w3.org/2000/svg">
<rect x="0.5" y="0.5" width="39" height="39" rx="19.5" fill="#FCFCFC"/>
<rect x="0.5" y="0.5" width="39" height="39" rx="19.5" stroke="#FF5631"/>
<path d="M20.001 12.529C21.1436 11.5062 22.6345 10.9599 24.1674 11.0023C25.7003 11.0447 27.1587 11.6726 28.243 12.757C29.3264 13.8402 29.9543 15.2967 29.9982 16.8281C30.0421 18.3594 29.4986 19.8496 28.479 20.993L19.999 29.485L11.521 20.993C10.5003 19.849 9.95623 18.3576 10.0006 16.825C10.0449 15.2924 10.6742 13.835 11.7594 12.7518C12.8446 11.6687 14.3032 11.0421 15.8359 11.0007C17.3685 10.9592 18.8589 11.5061 20.001 12.529ZM26.827 14.17C26.1046 13.4481 25.1333 13.0301 24.1125 13.0016C23.0916 12.9732 22.0985 13.3365 21.337 14.017L20.002 15.215L18.666 14.018C17.9077 13.3399 16.9195 12.9762 15.9025 13.0009C14.8855 13.0256 13.9161 13.4369 13.1916 14.1511C12.4672 14.8653 12.042 15.8286 12.0027 16.8452C11.9634 17.8617 12.3129 18.855 12.98 19.623L20 26.654L27.02 19.624C27.6844 18.8594 28.0339 17.8712 27.9981 16.859C27.9623 15.8467 27.5438 14.8857 26.827 14.17Z" fill="#FF5631"/>
</svg>
