<svg width="32" height="33" viewBox="0 0 32 33" fill="none" xmlns="http://www.w3.org/2000/svg">
<path d="M4.00033 4.5H28.0003C28.3539 4.5 28.6931 4.64048 28.9431 4.89052C29.1932 5.14057 29.3337 5.47971 29.3337 5.83333V27.1667C29.3337 27.5203 29.1932 27.8594 28.9431 28.1095C28.6931 28.3595 28.3539 28.5 28.0003 28.5H4.00033C3.6467 28.5 3.30756 28.3595 3.05752 28.1095C2.80747 27.8594 2.66699 27.5203 2.66699 27.1667V5.83333C2.66699 5.47971 2.80747 5.14057 3.05752 4.89052C3.30756 4.64048 3.6467 4.5 4.00033 4.5ZM26.667 10.1507L16.0963 19.6173L5.33366 10.1213V25.8333H26.667V10.1507ZM6.01499 7.16667L16.0817 16.0493L26.003 7.16667H6.01499Z" fill="#FF7658"/>
</svg>
