<svg width="25" height="24" viewBox="0 0 25 24" fill="none" xmlns="http://www.w3.org/2000/svg">
<path d="M19.6456 8.99295L9.84661 14.601L9.77661 14.646C9.68366 14.693 9.58077 14.717 9.47661 14.716C9.35784 14.716 9.24126 14.6839 9.13918 14.6232C9.0371 14.5625 8.9533 14.4753 8.89661 14.371L8.85061 14.279L7.01961 10.329C6.99661 10.283 6.99661 10.237 6.99661 10.191C6.99661 10.007 7.13561 9.86995 7.32061 9.86995C7.39061 9.86995 7.46028 9.89295 7.52961 9.93895L9.68461 11.454C9.84661 11.546 10.0316 11.615 10.2406 11.615C10.36 11.6153 10.4783 11.5918 10.5886 11.546L18.8626 7.89695C17.4346 6.27295 15.1346 5.19995 12.5006 5.19995C8.07961 5.19995 4.60061 8.22195 4.60061 11.8C4.60061 13.165 5.10061 14.473 6.03161 15.58C6.08028 15.6386 6.15194 15.7173 6.24661 15.816C6.6395 16.2254 6.94078 16.7137 7.13044 17.2486C7.32009 17.7834 7.39378 18.3525 7.34661 18.918L7.32261 19.215L8.03761 18.779C8.84752 18.2851 9.80659 18.0951 10.7436 18.243C10.9549 18.2763 11.1283 18.3016 11.2636 18.319C11.6703 18.373 12.0826 18.4 12.5006 18.4C16.9206 18.4 20.4006 15.378 20.4006 11.8C20.4006 10.804 20.1306 9.84995 19.6456 8.99295ZM6.69261 21.943C6.53518 22.0415 6.35341 22.0942 6.16768 22.0953C5.98195 22.0963 5.7996 22.0456 5.64107 21.9489C5.48254 21.8521 5.35408 21.7131 5.2701 21.5475C5.18613 21.3818 5.14994 21.196 5.16561 21.011L5.35461 18.752C5.37819 18.4692 5.34135 18.1847 5.24652 17.9173C5.1517 17.6498 5.00106 17.4057 4.80461 17.201C4.70006 17.0932 4.59901 16.9822 4.50161 16.868C3.30561 15.447 2.59961 13.695 2.59961 11.8C2.59961 7.04995 7.03161 3.19995 12.4996 3.19995C17.9666 3.19995 22.3996 7.04995 22.3996 11.8C22.3996 16.55 17.9666 20.4 12.4996 20.4C11.9896 20.3993 11.4896 20.3666 10.9996 20.302C10.8469 20.2819 10.6576 20.254 10.4316 20.218C9.9631 20.144 9.48356 20.239 9.07861 20.486L6.69261 21.943Z" fill="#FF7658"/>
</svg>
