<svg width="25" height="24" viewBox="0 0 25 24" fill="none" xmlns="http://www.w3.org/2000/svg">
<path d="M20.0522 2.99703C19.8115 3.01455 19.5751 3.07103 19.3525 3.16428H19.3495C19.1357 3.24903 18.1195 3.67653 16.5745 4.32453L11.038 6.65628C7.06522 8.32878 3.15997 9.97578 3.15997 9.97578L3.20647 9.95778C3.20647 9.95778 2.93722 10.0463 2.65597 10.239C2.48222 10.3496 2.3327 10.4943 2.21647 10.6643C2.07847 10.8668 1.96747 11.1765 2.00872 11.4968C2.07622 12.0383 2.42722 12.363 2.67922 12.5423C2.93422 12.7238 3.17722 12.8085 3.17722 12.8085H3.18322L6.84547 14.0423C7.00972 14.5695 7.96147 17.6985 8.19022 18.4193C8.32522 18.8498 8.45647 19.119 8.62072 19.3245C8.70022 19.4295 8.79322 19.5173 8.90497 19.5878C8.96307 19.6216 9.02501 19.6483 9.08947 19.6673L9.05197 19.6583C9.06322 19.6613 9.07222 19.6703 9.08047 19.6733C9.11047 19.6815 9.13072 19.6845 9.16897 19.6905C9.74872 19.866 10.2145 19.506 10.2145 19.506L10.2407 19.485L12.403 17.5163L16.027 20.2965L16.1095 20.3318C16.8647 20.6633 17.6297 20.4788 18.034 20.1533C18.4412 19.8255 18.5995 19.4063 18.5995 19.4063L18.6257 19.3388L21.4262 4.99203C21.5057 4.63803 21.526 4.30653 21.4382 3.98478C21.3477 3.65915 21.1388 3.37909 20.8525 3.19953C20.612 3.05337 20.3332 2.98282 20.0522 2.99703ZM19.9765 4.53453C19.9735 4.58178 19.9825 4.57653 19.9615 4.66728V4.67553L17.1872 18.873C17.1752 18.8933 17.155 18.9375 17.0995 18.9818C17.041 19.0283 16.9945 19.0575 16.7507 18.9608L12.3182 15.5625L9.64072 18.003L10.2032 14.4105L17.4452 7.66053C17.7437 7.38303 17.644 7.32453 17.644 7.32453C17.665 6.98403 17.1932 7.22478 17.1932 7.22478L8.06122 12.882L8.05822 12.867L3.68122 11.3933V11.3903L3.66997 11.388C3.67765 11.3855 3.68516 11.3825 3.69247 11.379L3.71647 11.367L3.73972 11.3588C3.73972 11.3588 7.64797 9.71178 11.6207 8.03928C13.6097 7.20153 15.6137 6.35778 17.155 5.70678C18.069 5.32203 18.984 4.93953 19.9 4.55928C19.9615 4.53528 19.9322 4.53453 19.9765 4.53453Z" fill="#FF7658"/>
</svg>
