<svg width="32" height="32" viewBox="0 0 32 32" fill="none" xmlns="http://www.w3.org/2000/svg">
<path d="M28.0905 3.116C27.2627 2.38933 23.9096 0.0533295 16.4425 0.0226629C16.4425 0.0226629 7.63138 -0.48267 3.3392 3.292C0.951724 5.58 0.11555 8.93066 0.0195501 13.0867C-0.0764499 17.2427 -0.18358 25.032 7.65085 27.1493H7.65781L7.65085 30.3747C7.65085 30.3747 7.59938 31.6813 8.49538 31.944C9.57781 32.2693 10.2178 31.2747 11.2543 30.2053C11.822 29.6173 12.6039 28.756 13.198 28.0987C16.6025 28.4009 20.0359 28.1498 23.3531 27.356L23.1444 27.3987C24.2269 27.0613 30.3514 26.3107 31.342 18.5227C32.3771 10.4827 30.8495 5.41066 28.0905 3.116ZM28.9976 17.936C28.1531 24.436 23.1917 24.8493 22.279 25.1293C20.2867 25.6147 17.9994 25.892 15.6439 25.892C14.9677 25.892 14.2971 25.8693 13.6335 25.824L13.7225 25.8293C13.7225 25.8293 10.3305 29.748 9.27451 30.7667C8.92946 31.0973 8.54964 31.0707 8.55659 30.4107C8.55659 29.98 8.58303 25.0533 8.58303 25.0533C1.95068 23.2907 2.33468 16.656 2.41259 13.1907C2.49051 9.72533 3.16946 6.87733 5.19103 4.96533C8.82512 1.80933 16.3062 2.27733 16.3062 2.27733C22.6269 2.30266 25.6529 4.128 26.3569 4.74C28.686 6.65333 29.8728 11.2307 28.9976 17.936ZM19.9389 12.8853V12.904C19.9359 13.0078 19.8915 13.1066 19.8148 13.18C19.738 13.2533 19.6349 13.2957 19.5265 13.2982C19.4181 13.3008 19.3129 13.2634 19.2325 13.1938C19.1521 13.1241 19.1026 13.0276 19.0943 12.924C19.1227 12.6456 19.0876 12.3633 18.9916 12.0992C18.8956 11.835 18.741 11.594 18.5383 11.3927C18.3357 11.1914 18.0899 11.0347 17.8179 10.9332C17.5459 10.8318 17.2542 10.7882 16.9629 10.8053H16.9684C16.8603 10.7973 16.7595 10.7498 16.6869 10.6726C16.6143 10.5954 16.5754 10.4944 16.5783 10.3905C16.5811 10.2866 16.6255 10.1878 16.7023 10.1143C16.779 10.0409 16.8823 9.99855 16.9907 9.996H17.0143H17.0129L17.1089 9.99466C17.4974 9.99454 17.8817 10.0709 18.238 10.2191C18.5943 10.3673 18.9151 10.5841 19.1803 10.856C19.4456 11.128 19.6497 11.4493 19.7799 11.8C19.9101 12.1507 19.9638 12.5233 19.9375 12.8947L19.9389 12.8853ZM21.262 13.5933C21.3274 10.9427 19.5994 8.868 16.3187 8.636C16.2618 8.63429 16.2058 8.62158 16.1541 8.59864C16.1024 8.5757 16.0561 8.54299 16.018 8.50248C15.9798 8.46196 15.9506 8.41448 15.932 8.36288C15.9135 8.31128 15.906 8.25661 15.91 8.20217C15.914 8.14773 15.9295 8.09463 15.9555 8.04605C15.9814 7.99747 16.0174 7.95442 16.0611 7.91948C16.1049 7.88454 16.1555 7.85843 16.2101 7.8427C16.2646 7.82698 16.3219 7.82198 16.3785 7.828H16.3771H16.4008C17.1793 7.82797 17.9497 7.98046 18.6646 8.27611C19.3794 8.57176 20.0236 9.00432 20.5577 9.54723C21.0918 10.0901 21.5044 10.732 21.7703 11.4332C22.0361 12.1345 22.1496 12.8805 22.1037 13.6253L22.1051 13.6107C22.0977 13.714 22.0492 13.8107 21.9697 13.8809C21.8902 13.951 21.7857 13.9894 21.6776 13.988C21.5695 13.9866 21.4661 13.9457 21.3885 13.8735C21.311 13.8014 21.2652 13.7035 21.2606 13.6V13.5893L21.262 13.5933ZM24.3229 14.432V14.4347C24.3172 14.538 24.2705 14.6354 24.1924 14.7068C24.1143 14.7782 24.0106 14.8183 23.9026 14.8188C23.7946 14.8194 23.6905 14.7803 23.6116 14.7096C23.5327 14.6389 23.485 14.542 23.4783 14.4387C23.4449 9.34266 19.8985 6.568 15.6008 6.53866C15.489 6.53866 15.3817 6.4961 15.3027 6.42033C15.2236 6.34457 15.1792 6.24181 15.1792 6.13466C15.1792 6.02751 15.2236 5.92476 15.3027 5.84899C15.3817 5.77323 15.489 5.73066 15.6008 5.73066C20.4133 5.76266 24.2811 8.94533 24.3201 14.4307L24.3229 14.432ZM23.5924 20.5627V20.5747C22.8884 21.7627 21.5709 23.0747 20.2143 22.656L20.2018 22.6373C17.7833 21.7844 15.5162 20.5796 13.4804 19.0653L13.5375 19.1053C12.5244 18.3345 11.6054 17.4565 10.798 16.488L10.7716 16.4547C10.0404 15.5727 9.38793 14.6334 8.82094 13.6467L8.76529 13.5413C8.09447 12.4815 7.53831 11.3588 7.10546 10.1907L7.06372 10.06C6.62685 8.76 7.98894 7.49733 9.23555 6.82266H9.24807C9.49332 6.67221 9.78782 6.61365 10.0753 6.65817C10.3628 6.70269 10.623 6.84717 10.8063 7.064L10.8077 7.06666C10.8077 7.06666 11.6161 7.99066 11.9625 8.448C12.2881 8.87333 12.7263 9.55466 12.9531 9.93466C13.1239 10.1943 13.1934 10.5035 13.1493 10.8074C13.1053 11.1114 12.9505 11.3907 12.7124 11.596L12.711 11.5973L11.9291 12.1973C11.8072 12.3101 11.713 12.4474 11.6533 12.5994C11.5936 12.7514 11.57 12.9142 11.5841 13.076V13.072C11.9712 14.3084 12.67 15.4345 13.6187 16.3509C14.5675 17.2673 15.737 17.9459 17.0241 18.3267L17.0825 18.3413C17.2505 18.354 17.4194 18.3311 17.5772 18.2742C17.7349 18.2173 17.8776 18.1277 17.9952 18.012L18.6213 17.2627C18.8364 17.0335 19.1293 16.8848 19.448 16.843C19.7666 16.8013 20.0904 16.8692 20.3618 17.0347L20.3562 17.032C21.4874 17.6493 22.4655 18.328 23.3573 19.0973L23.342 19.084C23.5682 19.2569 23.7188 19.5046 23.7641 19.7785C23.8094 20.0523 23.7462 20.3325 23.5869 20.564L23.5896 20.56L23.5924 20.5627Z" fill="currentColor"/>
</svg>
