<svg width="25" height="24" viewBox="0 0 25 24" fill="none" xmlns="http://www.w3.org/2000/svg">
<g clip-path="url(#clip0_2026_2956)">
<path d="M21.5684 2.33703C20.9475 1.79203 18.4327 0.0400277 12.8324 0.0170277C12.8324 0.0170277 6.22402 -0.361972 3.00489 2.46903C1.21428 4.18503 0.587151 6.69803 0.515151 9.81503C0.443151 12.932 0.362803 18.774 6.23863 20.362H6.24385L6.23863 22.781C6.23863 22.781 6.20002 23.761 6.87202 23.958C7.68385 24.202 8.16385 23.456 8.94124 22.654C9.36698 22.213 9.95341 21.567 10.399 21.074C12.9524 21.3007 15.5274 21.1124 18.0153 20.517L17.8588 20.549C18.6706 20.296 23.264 19.733 24.007 13.892C24.7833 7.86203 23.6376 4.05803 21.5684 2.33703ZM22.2487 13.452C21.6153 18.327 17.8943 18.637 17.2098 18.847C15.7155 19.211 14 19.419 12.2334 19.419C11.7263 19.419 11.2233 19.402 10.7256 19.368L10.7924 19.372C10.7924 19.372 8.24837 22.311 7.45637 23.075C7.19759 23.323 6.91272 23.303 6.91793 22.808C6.91793 22.485 6.93776 18.79 6.93776 18.79C1.9635 17.468 2.2515 12.492 2.30993 9.89303C2.36837 7.29403 2.87759 5.15803 4.39376 3.72403C7.11932 1.35703 12.7301 1.70803 12.7301 1.70803C17.4706 1.72703 19.7402 3.09603 20.2682 3.55503C22.015 4.99003 22.9051 8.42303 22.2487 13.452ZM15.4546 9.66403V9.67803C15.4524 9.7559 15.4191 9.82999 15.3616 9.88501C15.304 9.94003 15.2266 9.97178 15.1454 9.97371C15.0641 9.97563 14.9852 9.94759 14.9249 9.89536C14.8645 9.84313 14.8274 9.7707 14.8212 9.69303C14.8425 9.48424 14.8162 9.27253 14.7442 9.07442C14.6722 8.87631 14.5562 8.69554 14.4042 8.54456C14.2523 8.39359 14.0679 8.27602 13.8639 8.19996C13.6599 8.12391 13.4411 8.09117 13.2226 8.10403H13.2268C13.1457 8.09801 13.0701 8.06237 13.0157 8.00447C12.9612 7.94657 12.9321 7.87084 12.9342 7.79293C12.9363 7.71501 12.9696 7.64085 13.0272 7.58579C13.0848 7.53072 13.1622 7.49895 13.2435 7.49703H13.2612H13.2602L13.3322 7.49603C13.6235 7.49593 13.9118 7.55323 14.179 7.66436C14.4462 7.7755 14.6868 7.93809 14.8857 8.14205C15.0847 8.34601 15.2377 8.58698 15.3354 8.85C15.4331 9.11303 15.4733 9.39248 15.4536 9.67103L15.4546 9.66403ZM16.447 10.195C16.496 8.20703 15.2 6.65103 12.7395 6.47703C12.6968 6.47575 12.6548 6.46622 12.6161 6.44901C12.5773 6.4318 12.5426 6.40727 12.514 6.37689C12.4853 6.3465 12.4634 6.31089 12.4495 6.27219C12.4356 6.23349 12.43 6.19249 12.433 6.15166C12.436 6.11083 12.4476 6.071 12.4671 6.03457C12.4866 5.99814 12.5135 5.96585 12.5463 5.93964C12.5791 5.91344 12.6171 5.89385 12.658 5.88206C12.6989 5.87027 12.7419 5.86652 12.7844 5.87103H12.7833H12.8011C13.385 5.87101 13.9628 5.98538 14.4989 6.20711C15.035 6.42885 15.5182 6.75327 15.9188 7.16046C16.3193 7.56764 16.6288 8.049 16.8282 8.57496C17.0276 9.10093 17.1127 9.6604 17.0783 10.219L17.0793 10.208C17.0737 10.2855 17.0374 10.358 16.9778 10.4107C16.9181 10.4633 16.8397 10.4921 16.7587 10.491C16.6776 10.49 16.6 10.4593 16.5419 10.4052C16.4837 10.3511 16.4494 10.2776 16.4459 10.2V10.192L16.447 10.195ZM18.7426 10.824V10.826C18.7384 10.9035 18.7034 10.9766 18.6448 11.0301C18.5862 11.0837 18.5084 11.1138 18.4274 11.1142C18.3464 11.1145 18.2683 11.0852 18.2092 11.0322C18.15 10.9792 18.1143 10.9065 18.1092 10.829C18.0842 7.00703 15.4244 4.92603 12.2011 4.90403C12.1172 4.90403 12.0368 4.8721 11.9775 4.81528C11.9182 4.75846 11.8849 4.68139 11.8849 4.60103C11.8849 4.52067 11.9182 4.4436 11.9775 4.38677C12.0368 4.32995 12.1172 4.29803 12.2011 4.29803C15.8105 4.32203 18.7113 6.70903 18.7405 10.823L18.7426 10.824ZM18.1948 15.422V15.431C17.6668 16.322 16.6786 17.306 15.6612 16.992L15.6518 16.978C13.8379 16.3383 12.1377 15.4347 10.6108 14.299L10.6536 14.329C9.89381 13.7509 9.20457 13.0924 8.59898 12.366L8.57915 12.341C8.03081 11.6795 7.54144 10.9751 7.11619 10.235L7.07446 10.156C6.57134 9.36114 6.15422 8.51911 5.82959 7.64303L5.79828 7.54503C5.47063 6.57003 6.49219 5.62303 7.42715 5.11703H7.43654C7.62048 5.00419 7.84136 4.96027 8.05695 4.99366C8.27255 5.02705 8.46775 5.13541 8.60524 5.29803L8.60628 5.30003C8.60628 5.30003 9.21254 5.99303 9.47237 6.33603C9.71654 6.65503 10.0452 7.16603 10.2153 7.45103C10.3434 7.64577 10.3955 7.87762 10.3625 8.10562C10.3294 8.33362 10.2134 8.54309 10.0348 8.69703L10.0338 8.69803L9.44732 9.14803C9.35589 9.2326 9.28523 9.33561 9.24047 9.44959C9.19571 9.56357 9.17798 9.68567 9.18854 9.80703V9.80403C9.47892 10.7314 10.003 11.5759 10.7145 12.2632C11.4261 12.9505 12.3032 13.4594 13.2685 13.745L13.3124 13.756C13.4384 13.7655 13.5651 13.7484 13.6834 13.7057C13.8017 13.663 13.9087 13.5958 13.9969 13.509L14.4665 12.947C14.6278 12.7751 14.8474 12.6636 15.0865 12.6323C15.3255 12.601 15.5683 12.6519 15.7718 12.776L15.7677 12.774C16.616 13.237 17.3496 13.746 18.0185 14.323L18.007 14.313C18.1767 14.4427 18.2896 14.6285 18.3236 14.8339C18.3575 15.0393 18.3101 15.2494 18.1906 15.423L18.1927 15.42L18.1948 15.422Z" fill="#FF7658"/>
</g>
<defs>
<clipPath id="clip0_2026_2956">
<rect width="24" height="24" fill="white" transform="translate(0.5)"/>
</clipPath>
</defs>
</svg>
