<svg width="32" height="32" viewBox="0 0 32 32" fill="none" xmlns="http://www.w3.org/2000/svg">
<path d="M9.67199 24.6587L10.6373 25.2227C12.2652 26.1723 14.1168 26.6707 16.0013 26.6667C18.111 26.6667 20.1733 26.0411 21.9274 24.869C23.6815 23.6969 25.0487 22.031 25.856 20.0819C26.6634 18.1329 26.8746 15.9882 26.463 13.919C26.0515 11.8499 25.0356 9.94928 23.5438 8.45752C22.052 6.96576 20.1514 5.94986 18.0823 5.53828C16.0132 5.1267 13.8684 5.33794 11.9194 6.14528C9.97029 6.95261 8.30438 8.31978 7.13231 10.0739C5.96025 11.828 5.33466 13.8903 5.33466 16C5.33076 17.8851 5.82969 19.7372 6.77999 21.3653L7.34266 22.3307L6.47199 25.532L9.67199 24.6587ZM2.67332 29.3333L4.47599 22.7093C3.28793 20.6732 2.66386 18.3573 2.66799 16C2.66799 8.63599 8.63732 2.66666 16.0013 2.66666C23.3653 2.66666 29.3347 8.63599 29.3347 16C29.3347 23.364 23.3653 29.3333 16.0013 29.3333C13.645 29.3374 11.3301 28.7138 9.29466 27.5267L2.67332 29.3333ZM11.1893 9.74399C11.3689 9.73155 11.548 9.72977 11.7267 9.73866C11.7987 9.74399 11.8707 9.7511 11.9427 9.75999C12.1547 9.78399 12.388 9.91332 12.4667 10.092C12.864 10.9942 13.2498 11.9009 13.624 12.812C13.7067 13.0147 13.6573 13.2747 13.5 13.528C13.42 13.6573 13.2947 13.8387 13.1493 14.024C12.9987 14.2173 12.6747 14.572 12.6747 14.572C12.6747 14.572 12.5427 14.7293 12.5933 14.9253C12.612 15 12.6733 15.108 12.7293 15.1987L12.808 15.3253C13.1493 15.8947 13.608 16.472 14.168 17.016C14.328 17.1707 14.484 17.3293 14.652 17.4773C15.276 18.028 15.9827 18.4773 16.7453 18.8107L16.752 18.8133C16.8653 18.8627 16.9227 18.8893 17.088 18.96C17.1707 18.9947 17.2555 19.024 17.3427 19.048C17.3747 19.0569 17.4071 19.0618 17.44 19.0627C17.516 19.0656 17.5916 19.0498 17.6602 19.0168C17.7287 18.9838 17.7882 18.9346 17.8333 18.8733C18.7973 17.7053 18.8867 17.6293 18.8933 17.6293V17.632C18.9603 17.5693 19.04 17.5217 19.1269 17.4925C19.2139 17.4633 19.3061 17.4531 19.3973 17.4627C19.4791 17.4662 19.5578 17.484 19.6333 17.516C20.3413 17.84 21.5 18.3453 21.5 18.3453L22.276 18.6933C22.4067 18.756 22.5253 18.904 22.5293 19.0467C22.5347 19.136 22.5427 19.28 22.512 19.544C22.4693 19.8893 22.3653 20.304 22.2613 20.5213C22.1892 20.6691 22.0948 20.805 21.9813 20.924C21.8467 21.0651 21.6994 21.1937 21.5413 21.308C21.4311 21.3898 21.3755 21.4298 21.3747 21.428C21.2088 21.5332 21.0385 21.6311 20.864 21.7213C20.5205 21.9033 20.1415 22.0079 19.7533 22.028C19.5067 22.0413 19.26 22.06 19.012 22.0467C19.0013 22.0467 18.2547 21.9307 18.2547 21.9307C16.359 21.432 14.6059 20.4979 13.1347 19.2027C12.8333 18.9373 12.5533 18.652 12.268 18.368C11.084 17.188 10.1867 15.9147 9.64132 14.712C9.36466 14.1216 9.21477 13.4798 9.20132 12.828C9.19631 12.0183 9.4614 11.2301 9.95466 10.588C10.052 10.4627 10.144 10.332 10.3027 10.1813C10.4707 10.0213 10.5787 9.93599 10.6947 9.87732C10.8494 9.80132 11.0174 9.75604 11.1893 9.74399Z" fill="black"/>
</svg>
