<svg width="25" height="24" viewBox="0 0 25 24" fill="none" xmlns="http://www.w3.org/2000/svg">
<path d="M7.75399 18.494L8.47799 18.917C9.69888 19.6292 11.0876 20.003 12.501 20C14.0832 20 15.63 19.5308 16.9456 18.6518C18.2611 17.7727 19.2865 16.5233 19.892 15.0615C20.4975 13.5997 20.656 11.9911 20.3473 10.4393C20.0386 8.88743 19.2767 7.46197 18.1578 6.34315C17.039 5.22433 15.6136 4.4624 14.0617 4.15372C12.5099 3.84504 10.9013 4.00346 9.43952 4.60896C7.97772 5.21447 6.72829 6.23984 5.84924 7.55544C4.97018 8.87103 4.50099 10.4177 4.50099 12C4.49807 13.4139 4.87226 14.8029 5.58499 16.024L6.00699 16.748L5.35399 19.149L7.75399 18.494ZM2.50499 22L3.85699 17.032C2.96595 15.5049 2.49789 13.768 2.50099 12C2.50099 6.477 6.97799 2 12.501 2C18.024 2 22.501 6.477 22.501 12C22.501 17.523 18.024 22 12.501 22C10.7337 22.003 8.99757 21.5353 7.47099 20.645L2.50499 22ZM8.89199 7.308C9.02666 7.29867 9.16099 7.29733 9.29499 7.304C9.34899 7.308 9.40299 7.31333 9.45699 7.32C9.61599 7.338 9.79099 7.435 9.84999 7.569C10.148 8.24567 10.4373 8.92567 10.718 9.609C10.78 9.761 10.743 9.956 10.625 10.146C10.565 10.243 10.471 10.379 10.362 10.518C10.249 10.663 10.006 10.929 10.006 10.929C10.006 10.929 9.90699 11.047 9.94499 11.194C9.95899 11.25 10.005 11.331 10.047 11.399L10.106 11.494C10.362 11.921 10.706 12.354 11.126 12.762C11.246 12.878 11.363 12.997 11.489 13.108C11.957 13.521 12.487 13.858 13.059 14.108L13.064 14.11C13.149 14.147 13.192 14.167 13.316 14.22C13.378 14.246 13.4417 14.268 13.507 14.286C13.531 14.2927 13.5553 14.2963 13.58 14.297C13.637 14.2992 13.6937 14.2874 13.7451 14.2626C13.7965 14.2379 13.8411 14.2009 13.875 14.155C14.598 13.279 14.665 13.222 14.67 13.222V13.224C14.7202 13.177 14.78 13.1413 14.8452 13.1194C14.9104 13.0975 14.9796 13.0898 15.048 13.097C15.1093 13.0997 15.1683 13.113 15.225 13.137C15.756 13.38 16.625 13.759 16.625 13.759L17.207 14.02C17.305 14.067 17.394 14.178 17.397 14.285C17.401 14.352 17.407 14.46 17.384 14.658C17.352 14.917 17.274 15.228 17.196 15.391C17.1419 15.5019 17.0711 15.6037 16.986 15.693C16.885 15.7989 16.7745 15.8953 16.656 15.981C16.5733 16.0423 16.5317 16.0723 16.531 16.071C16.4066 16.1499 16.2788 16.2233 16.148 16.291C15.8904 16.4275 15.6061 16.506 15.315 16.521C15.13 16.531 14.945 16.545 14.759 16.535C14.751 16.535 14.191 16.448 14.191 16.448C12.7693 16.074 11.4544 15.3734 10.351 14.402C10.125 14.203 9.91499 13.989 9.70099 13.776C8.81299 12.891 8.13999 11.936 7.73099 11.034C7.52349 10.5912 7.41108 10.1099 7.40099 9.621C7.39723 9.01375 7.59605 8.42257 7.96599 7.941C8.03899 7.847 8.10799 7.749 8.22699 7.636C8.35299 7.516 8.43399 7.452 8.52099 7.408C8.63703 7.351 8.76302 7.31704 8.89199 7.308Z" fill="#FF7658"/>
</svg>
