<?xml version="1.0" encoding="UTF-8"?>
<svg id="Layer_1" data-name="Layer 1" xmlns="http://www.w3.org/2000/svg" viewBox="0 0 40.49 34.56">
  <defs>
    <style>
      .cls-1 {
        fill: #ff5631;
        stroke-width: 0px;
      }
    </style>
  </defs>
  <path class="cls-1" d="m40.26,13.6C39.25,6.05,32.55.11,24.91.03c-2.87-.04-5.73-.02-8.6-.02C14.36,0,12.46.28,10.61.92c-.43.15-.85.34-1.34.53,0,0,0,0,0,0C3.01,4.48.1,11.36,0,15.66c-.01,1.12-.02,2.24.39,3.29.91,2.38,2.68,3.74,5.14,4.25.55.11.88.32,1.03.9,1.05,4.09,3.54,7.06,7.24,8.97,3.63,1.87,7.46,1.87,11.27.66,4.64-1.46,7.47-4.74,8.84-9.34.14-.49.41-.87.88-1.08.31-.14.64-.26.98-.35,2.41-.66,3.85-2.27,4.47-4.65.41-1.56.23-3.13.02-4.71Zm-2.22,3.67c-.11,1.61-1.57,3.21-3.12,3.52-.29.06-.41-.04-.43-.31-.01-.17-.01-.33-.01-.5v-8.25c0-.94-.44-1.5-1.17-1.5-.76-.01-1.18.51-1.18,1.47v.25c0,2.8.02,5.6,0,8.4-.02,3.83-1.45,7-4.47,9.4-1.71,1.36-3.67,2.11-5.92,2.31h-.01c-.15-.78-.3-1.5-.4-2.22-.03-.15.1-.37.23-.49.65-.63,1.32-1.23,1.98-1.84.57-.53.72-1.08.49-1.7-.24-.61-.72-.93-1.5-.93h-4.75c-.82,0-1.32.32-1.55.94-.24.63-.07,1.18.53,1.73.66.6,1.33,1.21,1.98,1.83.1.09.24.24.22.35-.12.77-.27,1.53-.42,2.32-1.39-.15-2.65-.5-3.81-1.15-4.07-2.28-6.26-5.71-6.29-10.43-.01-2.88,0-5.77,0-8.65,0-.2.01-.4-.02-.6-.08-.57-.57-1.01-1.13-1.01-.59-.01-1.08.41-1.17,1.01-.02.18-.02.37-.02.55v8.35c0,.23-.03.46-.05.71-.17,0-.28,0-.39-.02-1.69-.36-3.01-1.69-3.21-3.41-.34-2.89.22-5.64,1.7-8.16.53-.91,3.03-4.69,6.22-5.78,0,0,0,0,0,0,.92-.27,1.74-.56,2.58-.73.86-.17,1.74-.3,2.62-.31,2.95-.05,5.9-.05,8.85-.03,2.84.02,5.51.67,7.81,2.37,4.18,3.1,6.17,7.27,5.81,12.5Z"/>
  <path class="cls-1" d="m16.08,12.99c-.89,0-1.57.7-1.56,1.59.01.86.69,1.52,1.57,1.52h0c.88,0,1.55-.65,1.56-1.53,0-.89-.68-1.58-1.57-1.58Z"/>
  <path class="cls-1" d="m24.83,12.98c-.88,0-1.55.66-1.56,1.53-.01.91.65,1.59,1.55,1.59h0c.88,0,1.59-.71,1.58-1.58-.02-.85-.71-1.54-1.57-1.54Z"/>
</svg>