<svg width="32" height="32" viewBox="0 0 32 32" fill="none" xmlns="http://www.w3.org/2000/svg">
<path d="M22.6663 20.3267V29.4894C22.6664 29.6073 22.6351 29.7232 22.5757 29.8251C22.5163 29.927 22.431 30.0114 22.3284 30.0695C22.2257 30.1277 22.1095 30.1576 21.9916 30.1561C21.8736 30.1547 21.7582 30.122 21.657 30.0614L15.9997 26.6667L10.3423 30.0614C10.2411 30.1221 10.1255 30.1548 10.0074 30.1561C9.88937 30.1575 9.77306 30.1275 9.6704 30.0692C9.56774 30.0109 9.4824 29.9263 9.42313 29.8242C9.36385 29.7221 9.33275 29.6061 9.33301 29.488V20.328C7.60787 18.9468 6.35433 17.0639 5.74562 14.9394C5.13691 12.815 5.20308 10.5539 5.935 8.46868C6.66691 6.38346 8.02842 4.57704 9.83139 3.29909C11.6343 2.02113 13.7897 1.33472 15.9997 1.33472C18.2096 1.33472 20.365 2.02113 22.168 3.29909C23.9709 4.57704 25.3324 6.38346 26.0644 8.46868C26.7963 10.5539 26.8624 12.815 26.2537 14.9394C25.645 17.0639 24.3915 18.9468 22.6663 20.328M11.9997 21.8934V25.9587L15.9997 23.5587L19.9997 25.9587V21.892C18.7287 22.4056 17.3705 22.6686 15.9997 22.6667C14.6289 22.6686 13.2706 22.4069 11.9997 21.8934ZM15.9997 20C18.1214 20 20.1562 19.1572 21.6565 17.6569C23.1568 16.1566 23.9997 14.1218 23.9997 12C23.9997 9.87832 23.1568 7.84348 21.6565 6.34319C20.1562 4.8429 18.1214 4.00005 15.9997 4.00005C13.8779 4.00005 11.8431 4.8429 10.3428 6.34319C8.84253 7.84348 7.99967 9.87832 7.99967 12C7.99967 14.1218 8.84253 16.1566 10.3428 17.6569C11.8431 19.1572 13.8779 20 15.9997 20Z" fill="#FF5631"/>
</svg>
