<svg width="32" height="32" viewBox="0 0 32 32" fill="none" xmlns="http://www.w3.org/2000/svg">
<path d="M20.0666 11.3827L24.78 6.66667H18.6666V4H29.3333V14.6667H26.6666V8.552L21.9506 13.268C23.4891 15.2847 24.2037 17.8107 23.9498 20.3344C23.6958 22.8582 22.4923 25.1912 20.5829 26.8609C18.6735 28.5307 16.2009 29.4125 13.6658 29.3277C11.1307 29.2429 8.72253 28.1979 6.92894 26.4044C5.13535 24.6108 4.09037 22.2026 4.00559 19.6675C3.92082 17.1324 4.80258 14.6598 6.47235 12.7504C8.14211 10.841 10.4751 9.63747 12.9989 9.38353C15.5226 9.12958 18.0486 9.84419 20.0653 11.3827M14 26.6667C15.9449 26.6667 17.8101 25.8941 19.1854 24.5188C20.5607 23.1435 21.3333 21.2783 21.3333 19.3333C21.3333 17.3884 20.5607 15.5232 19.1854 14.1479C17.8101 12.7726 15.9449 12 14 12C12.055 12 10.1898 12.7726 8.81451 14.1479C7.43924 15.5232 6.66662 17.3884 6.66662 19.3333C6.66662 21.2783 7.43924 23.1435 8.81451 24.5188C10.1898 25.8941 12.055 26.6667 14 26.6667Z" fill="#FF5631"/>
</svg>
