<svg width="32" height="32" viewBox="0 0 32 32" fill="none" xmlns="http://www.w3.org/2000/svg">
<path d="M21.3337 1.33337C21.6873 1.33337 22.0264 1.47385 22.2765 1.7239C22.5265 1.97395 22.667 2.31309 22.667 2.66671V6.66671H28.0003C28.3539 6.66671 28.6931 6.80718 28.9431 7.05723C29.1932 7.30728 29.3337 7.64642 29.3337 8.00004V26.6667C29.3337 27.0203 29.1932 27.3595 28.9431 27.6095C28.6931 27.8596 28.3539 28 28.0003 28H4.00033C3.6467 28 3.30756 27.8596 3.05752 27.6095C2.80747 27.3595 2.66699 27.0203 2.66699 26.6667V8.00004C2.66699 7.64642 2.80747 7.30728 3.05752 7.05723C3.30756 6.80718 3.6467 6.66671 4.00033 6.66671H9.33366V2.66671C9.33366 2.31309 9.47413 1.97395 9.72418 1.7239C9.97423 1.47385 10.3134 1.33337 10.667 1.33337H21.3337ZM26.667 9.33337H5.33366V25.3334H26.667V9.33337ZM17.3337 12V16H21.3337V18.6667H17.3323L17.3337 22.6667H14.667L14.6657 18.6667H10.667V16H14.667V12H17.3337ZM20.0003 4.00004H12.0003V6.66671H20.0003V4.00004Z" fill="#FF5631"/>
</svg>
