<svg width="32" height="32" viewBox="0 0 32 32" fill="none" xmlns="http://www.w3.org/2000/svg">
<path d="M10.0839 25.7067C11.2011 25.7546 12.3198 25.6573 13.4119 25.4173C14.7168 25.1334 16.0605 25.0743 17.3853 25.2427C17.9668 25.3082 18.5417 25.4228 19.1039 25.5853C20.5399 25.952 22.5839 25.8827 23.1106 25.0387C23.4973 24.4147 23.4479 23.9893 23.0759 23.44C22.9959 23.32 22.9079 23.2133 22.8253 23.1267L22.7933 23.0933C22.4578 22.825 22.1275 22.5503 21.8026 22.2693C20.9891 21.5688 20.2091 20.8302 19.4653 20.056C18.7011 19.2694 17.9982 18.4256 17.3626 17.532L17.3146 17.4613C16.3253 15.9427 15.2373 16.0387 14.6453 17.0373C14.2723 17.6646 13.8463 18.2587 13.3719 18.8133C12.8253 19.456 12.2653 20 11.6306 20.5427C11.4679 20.6827 10.9613 21.1027 11.0826 21.0013C11.0773 21.0053 11.0599 21.0213 11.1493 20.9067C11.0186 21.0667 9.8826 22.076 9.54927 22.456C8.8626 23.2333 8.5866 23.896 8.68927 24.4293C8.7866 24.9307 8.9826 25.212 9.28927 25.4227C9.48397 25.5527 9.70091 25.6458 9.92927 25.6973C9.97327 25.7013 10.0253 25.704 10.0839 25.7067ZM19.5493 16.0053C21.3826 18.632 24.5239 21.0627 24.5239 21.0627C24.5239 21.0627 27.2759 23.3933 25.3746 26.4467C23.4733 29.5 18.3706 28.1507 18.3706 28.1507C18.3706 28.1507 16.3439 27.4973 13.9893 28.02C11.6359 28.5467 9.60794 28.3467 9.60794 28.3467C9.60794 28.3467 6.6666 28.02 6.0706 24.9347C5.47594 21.8493 8.81727 19.548 9.08127 19.2227C9.3426 18.8933 11.0973 17.792 12.3506 15.6787C13.6039 13.564 17.1293 12.292 19.5493 16.0053ZM26.9333 14.112C26.9333 14.7213 27.1879 17.3027 24.8639 17.3547C22.5399 17.4053 22.4426 15.784 22.4426 14.6213C22.4426 13.404 22.6919 11.6813 24.5626 11.6813C26.4293 11.6813 26.9333 13.5067 26.9333 14.1133M19.6946 10.4107C18.1213 10.208 17.7653 8.78133 17.9173 7.35333C18.0439 6.18667 19.4399 4.39467 20.5586 4.652C21.6746 4.90533 22.6919 6.38533 22.4866 7.65733C22.2839 8.93333 21.2706 10.6147 19.6946 10.4107ZM13.0066 9.92C11.8586 9.92 10.9266 8.596 10.9266 6.96C10.9266 5.324 11.8573 4 13.0066 4C14.1573 4 15.0866 5.324 15.0866 6.96C15.0866 8.596 14.1573 9.92 13.0066 9.92ZM7.94927 16.008C5.68927 16.4947 4.8466 13.8787 5.09594 12.6547C5.09594 12.6547 5.3626 10.0053 7.19727 9.84133C8.6546 9.71467 9.72794 11.3093 9.83727 12.2213C9.9066 12.8133 10.2146 15.5213 7.94927 16.008Z" fill="#FF5631"/>
</svg>
