<svg width="32" height="32" viewBox="0 0 32 32" fill="none" xmlns="http://www.w3.org/2000/svg">
<path d="M28.9035 10.6399L27.0182 12.5239L24.1889 9.69728L21.3609 12.5239L26.0756 17.2386L24.1889 19.1239L23.2462 18.1813L14.7609 26.6666H7.21822L4.39155 29.4946L2.50488 27.6093L5.33288 24.7813V17.2386L13.8182 8.75328L12.8755 7.81061L14.7609 5.92528L19.4756 10.6386L22.3036 7.81061L19.4756 4.98261L21.3609 3.09595L28.9035 10.6399ZM21.3609 16.2959L15.7036 10.6386L13.8182 12.5239L16.6462 15.3533L14.7609 17.2386L11.9329 14.4106L10.0475 16.2959L12.8755 19.1239L10.9902 21.0093L8.16222 18.1813L7.99955 18.3426V23.9999H13.6569L21.3609 16.2959Z" fill="#FF5631"/>
</svg>
