<svg width="813" height="61" viewBox="0 0 813 61" fill="none" xmlns="http://www.w3.org/2000/svg">
<g clip-path="url(#clip0_1172_533)">
<path d="M25.1309 43.3818C25.1435 42.5756 24.9939 41.7915 24.801 41.0153C24.593 40.1786 24.3629 39.3472 24.1538 38.5107C23.9864 37.8411 23.8745 37.1622 23.8563 36.469C23.8194 35.0591 24.3106 33.8731 25.3299 32.9112C26.186 32.1029 27.2021 31.6513 28.3683 31.5416C29.6263 31.4234 30.8042 31.7113 31.9295 32.2617C33.015 32.7918 33.9816 33.5399 34.7703 34.4601C35.6319 35.4607 36.6191 36.3108 37.6811 37.08C38.387 37.5908 39.0995 38.0938 39.8009 38.6103C40.4676 39.1014 41.1039 39.6297 41.6474 40.2622C42.1787 40.8812 42.5735 41.5711 42.7465 42.3793C42.8242 42.7517 42.8565 43.1324 42.8424 43.5128C42.8232 44.1603 42.7323 44.7962 42.5242 45.4113C42.2501 46.2207 41.7859 46.9062 41.1765 47.4961C40.7181 47.9397 40.2108 48.32 39.6822 48.6718C39.0262 49.1082 38.3624 49.5325 37.7076 49.9705C36.6429 50.6826 35.6745 51.5062 34.8305 52.4801C34.016 53.4198 33.066 54.1979 31.9606 54.7702C30.9621 55.2868 29.9094 55.5988 28.778 55.5731C27.1314 55.5356 25.8104 54.8484 24.8255 53.514C24.0065 52.4047 23.7146 51.1586 23.8809 49.7917C23.9802 48.9761 24.195 48.1879 24.4112 47.3997C24.6289 46.6051 24.8504 45.8117 24.9866 44.9971C25.0764 44.4623 25.1362 43.9251 25.1309 43.3818Z" fill="#FFDC5B"/>
<path d="M4.50178 26.7307C2.46694 26.7297 0.596473 25.2242 0.106031 23.0585C-0.0339859 22.4394 -0.0220917 21.8172 0.0647957 21.1939C0.179878 20.3682 0.421165 19.5724 0.639053 18.7713C0.843517 18.0193 1.02976 17.264 1.13103 16.4884C1.24803 15.5903 1.22444 14.698 1.01863 13.8185C0.817815 12.9601 0.586307 12.1089 0.370912 11.254C0.208647 10.6101 0.0772607 9.96159 0.02931 9.29626C-0.0832788 7.72918 0.472759 6.45656 1.68381 5.47917C2.61137 4.73065 3.68374 4.41684 4.86352 4.45205C5.88718 4.48243 6.8368 4.78095 7.7352 5.26133C8.62536 5.73745 9.41674 6.35016 10.0737 7.11686C10.9508 8.14011 11.9689 8.99252 13.056 9.77142C13.7333 10.2566 14.4109 10.7418 15.0776 11.2418C15.6381 11.6616 16.1586 12.1284 16.6036 12.6752C17.0866 13.2689 17.4245 13.9315 17.5515 14.6955C17.6282 15.1577 17.6167 15.6201 17.5707 16.0835C17.4769 17.0202 17.1832 17.8804 16.6096 18.633C16.2992 19.044 15.9327 19.4088 15.5211 19.7164C15.0375 20.0749 14.5389 20.4129 14.0427 20.7537C13.393 21.1987 12.73 21.6263 12.0899 22.0856C11.4107 22.5729 10.8083 23.1496 10.2578 23.7828C9.47524 24.6829 8.57684 25.4395 7.51616 25.9884C6.62159 26.4504 5.67792 26.7233 4.50178 26.7307Z" fill="#FFDC5B"/>
<path d="M48.7585 44.9378C50.3551 44.9817 51.9559 45.4958 53.3246 46.6523C53.9505 47.181 54.4438 47.816 54.7476 48.5889C55.2929 49.977 54.9425 51.4193 53.8202 52.3909C53.2212 52.9096 52.5236 53.2288 51.7633 53.4205C49.5288 53.9841 46.8453 53.2783 45.1879 51.688C44.634 51.1568 44.1869 50.5481 43.9466 49.8093C43.5029 48.4452 43.7952 47.2534 44.8229 46.2605C45.4332 45.6712 46.1822 45.3334 46.9941 45.1295C47.5174 44.9978 48.0498 44.9424 48.7585 44.9378Z" fill="#FFDC5B"/>
<path d="M48.9509 42.2622C47.7658 42.2461 46.7661 42.0461 45.8437 41.5284C45.1943 41.1635 44.6536 40.6802 44.2989 40.0116C43.811 39.0919 43.8018 38.1481 44.203 37.1974C44.518 36.4493 45.0295 35.8542 45.6592 35.3582C46.5538 34.6524 47.5732 34.2289 48.6845 34.0244C49.7237 33.8331 50.7581 33.8536 51.7798 34.1405C52.58 34.3649 53.3062 34.7307 53.9023 35.3268C54.9684 36.3928 55.1955 37.8515 54.5069 39.1987C54.0949 40.005 53.4777 40.6202 52.7319 41.1107C51.8282 41.7054 50.8331 42.0538 49.7659 42.1898C49.4486 42.2297 49.1293 42.2467 48.9509 42.2622Z" fill="#FFDC5B"/>
<path d="M24.1837 24.9096C22.7751 24.8728 21.3258 24.4128 20.0756 23.3924C19.439 22.8732 18.9388 22.2434 18.6502 21.4616C18.1634 20.1422 18.5477 18.7928 19.6543 17.9121C20.3064 17.3921 21.0579 17.0906 21.8721 16.969C23.7759 16.6844 25.5163 17.1141 27.0673 18.2652C27.7635 18.7821 28.3067 19.4347 28.631 20.2548C29.1341 21.5274 28.8228 22.8457 27.8019 23.7523C27.1969 24.2897 26.4805 24.5985 25.701 24.7713C25.2624 24.8694 24.8176 24.9084 24.1837 24.9096Z" fill="#FFDC5B"/>
<path d="M23.2757 14.3982C22.1792 14.3854 21.2666 14.2026 20.4207 13.7404C20.116 13.5759 19.8342 13.3715 19.5825 13.1325C18.5447 12.1391 18.3139 10.755 18.9736 9.47387C19.3232 8.7948 19.8353 8.26219 20.4504 7.8265C21.2435 7.26545 22.1262 6.92205 23.0781 6.75915C24.1348 6.57787 25.1794 6.62372 26.1999 6.97718C26.8496 7.2018 27.4348 7.53824 27.9137 8.04125C28.4931 8.65144 28.7948 9.3752 28.767 10.2274C28.7515 10.7059 28.618 11.1537 28.4005 11.5769C28.0698 12.2197 27.5919 12.7334 27.0163 13.1567C26.1407 13.8007 25.1558 14.1716 24.0874 14.3229C23.7723 14.368 23.4524 14.3825 23.2757 14.3982Z" fill="#FFDC5B"/>
<path d="M40.7429 52.6825C42.8483 52.8019 44.554 53.6667 45.7681 55.4346C46.1292 55.9617 46.3654 56.5655 46.4586 57.1994C46.6671 58.5617 46.0589 59.8191 44.8628 60.4831C44.3217 60.7835 43.7385 60.942 43.1264 60.9861C40.9015 61.1459 38.8147 59.9313 37.759 58.3936C37.337 57.7803 37.0416 57.1152 36.9668 56.3657C36.8345 55.0405 37.3249 54.0104 38.4361 53.2923C38.9791 52.9414 39.5878 52.7742 40.226 52.7131C40.3978 52.696 40.5706 52.6922 40.7429 52.6825Z" fill="#FFDC5B"/>
<path d="M40.9489 34.7125C40.1007 34.7007 39.364 34.5671 38.6821 34.2049C37.7912 33.7317 37.1964 33.0214 36.9971 32.0077C36.8729 31.376 36.9622 30.7633 37.1899 30.1688C37.5091 29.3357 38.0419 28.6597 38.7305 28.1107C39.9321 27.1534 41.3006 26.674 42.8366 26.7189C43.5215 26.7382 44.1792 26.8915 44.789 27.2153C45.6667 27.6814 46.2607 28.379 46.4667 29.3746C46.6096 30.0655 46.5021 30.7329 46.2311 31.377C45.9308 32.0909 45.471 32.6875 44.8885 33.1859C43.7277 34.1772 42.3807 34.674 40.9489 34.7125Z" fill="#FFDC5B"/>
<path d="M15.6505 24.0427C17.7182 24.1781 19.3746 25.0398 20.4729 26.8617C20.8235 27.4436 21.0065 28.0871 20.9881 28.777C20.9606 29.8084 20.5061 30.6021 19.655 31.1644C19.1388 31.5061 18.5411 31.7016 17.9244 31.7306C15.8635 31.8368 14.2059 31.0365 12.945 29.4009C12.5602 28.902 12.3145 28.3295 12.1958 27.7038C11.9196 26.2468 12.6333 24.9204 14.0348 24.3512C14.5145 24.1564 15.0897 24.05 15.6505 24.0427Z" fill="#FFDC5B"/>
<path d="M17.377 0.000190983C18.1059 -0.00483912 18.8025 0.135618 19.4466 0.485599C20.2416 0.917416 20.775 1.56108 20.9618 2.46708C21.0886 3.0794 21.0021 3.67315 20.7723 4.24698C20.4345 5.0903 19.8683 5.7535 19.142 6.27837C18.064 7.05746 16.8607 7.44672 15.5299 7.39758C14.9039 7.37456 14.3051 7.22829 13.7446 6.93635C12.4091 6.23987 11.835 4.83434 12.3004 3.39205C12.5439 2.63753 12.9838 2.0107 13.5678 1.48988C14.6549 0.520616 15.9297 0.0299848 17.377 0.000190983Z" fill="#FFDC5B"/>
</g>
<g clip-path="url(#clip1_1172_533)">
<path d="M108.131 43.3818C108.144 42.5756 107.994 41.7915 107.801 41.0153C107.593 40.1786 107.363 39.3472 107.154 38.5107C106.986 37.8411 106.875 37.1622 106.856 36.469C106.819 35.0591 107.311 33.8731 108.33 32.9112C109.186 32.1029 110.202 31.6513 111.368 31.5416C112.626 31.4234 113.804 31.7113 114.93 32.2617C116.015 32.7918 116.982 33.5399 117.77 34.4601C118.632 35.4607 119.619 36.3108 120.681 37.08C121.387 37.5908 122.1 38.0938 122.801 38.6103C123.468 39.1014 124.104 39.6297 124.647 40.2622C125.179 40.8812 125.573 41.5711 125.746 42.3793C125.824 42.7517 125.856 43.1324 125.842 43.5128C125.823 44.1603 125.732 44.7962 125.524 45.4113C125.25 46.2207 124.786 46.9062 124.177 47.4961C123.718 47.9397 123.211 48.32 122.682 48.6718C122.026 49.1082 121.362 49.5325 120.708 49.9705C119.643 50.6826 118.674 51.5062 117.831 52.4801C117.016 53.4198 116.066 54.1979 114.961 54.7702C113.962 55.2868 112.909 55.5988 111.778 55.5731C110.131 55.5356 108.81 54.8484 107.826 53.514C107.007 52.4047 106.715 51.1586 106.881 49.7917C106.98 48.9761 107.195 48.1879 107.411 47.3997C107.629 46.6051 107.85 45.8117 107.987 44.9971C108.076 44.4623 108.136 43.9251 108.131 43.3818Z" fill="#FFDC5B"/>
<path d="M87.5018 26.7307C85.4669 26.7297 83.5965 25.2242 83.106 23.0585C82.966 22.4394 82.9779 21.8172 83.0648 21.1939C83.1799 20.3682 83.4212 19.5724 83.6391 18.7713C83.8435 18.0193 84.0298 17.264 84.131 16.4884C84.248 15.5903 84.2244 14.698 84.0186 13.8185C83.8178 12.9601 83.5863 12.1089 83.3709 11.254C83.2086 10.6101 83.0773 9.96159 83.0293 9.29626C82.9167 7.72918 83.4728 6.45656 84.6838 5.47917C85.6114 4.73065 86.6837 4.41684 87.8635 4.45205C88.8872 4.48243 89.8368 4.78095 90.7352 5.26133C91.6254 5.73745 92.4167 6.35016 93.0737 7.11686C93.9508 8.14011 94.9689 8.99252 96.056 9.77142C96.7333 10.2566 97.4109 10.7418 98.0776 11.2418C98.6381 11.6616 99.1586 12.1284 99.6036 12.6752C100.087 13.2689 100.425 13.9315 100.552 14.6955C100.628 15.1577 100.617 15.6201 100.571 16.0835C100.477 17.0202 100.183 17.8804 99.6096 18.633C99.2992 19.044 98.9327 19.4088 98.5211 19.7164C98.0375 20.0749 97.5389 20.4129 97.0427 20.7537C96.393 21.1987 95.73 21.6263 95.0899 22.0856C94.4107 22.5729 93.8083 23.1496 93.2578 23.7828C92.4752 24.6829 91.5768 25.4395 90.5162 25.9884C89.6216 26.4504 88.6779 26.7233 87.5018 26.7307Z" fill="#FFDC5B"/>
<path d="M131.759 44.9378C133.355 44.9817 134.956 45.4958 136.325 46.6523C136.95 47.181 137.444 47.816 137.748 48.5889C138.293 49.977 137.942 51.4193 136.82 52.3909C136.221 52.9096 135.524 53.2288 134.763 53.4205C132.529 53.9841 129.845 53.2783 128.188 51.688C127.634 51.1568 127.187 50.5481 126.947 49.8093C126.503 48.4452 126.795 47.2534 127.823 46.2605C128.433 45.6712 129.182 45.3334 129.994 45.1295C130.517 44.9978 131.05 44.9424 131.759 44.9378Z" fill="#FFDC5B"/>
<path d="M131.951 42.2622C130.766 42.2461 129.766 42.0461 128.844 41.5284C128.194 41.1635 127.654 40.6802 127.299 40.0116C126.811 39.0919 126.802 38.1481 127.203 37.1974C127.518 36.4493 128.029 35.8542 128.659 35.3582C129.554 34.6524 130.573 34.2289 131.685 34.0244C132.724 33.8331 133.758 33.8536 134.78 34.1405C135.58 34.3649 136.306 34.7307 136.902 35.3268C137.968 36.3928 138.195 37.8515 137.507 39.1987C137.095 40.005 136.478 40.6202 135.732 41.1107C134.828 41.7054 133.833 42.0538 132.766 42.1898C132.449 42.2297 132.129 42.2467 131.951 42.2622Z" fill="#FFDC5B"/>
<path d="M107.184 24.9096C105.775 24.8728 104.326 24.4128 103.076 23.3924C102.439 22.8732 101.939 22.2434 101.65 21.4616C101.163 20.1422 101.548 18.7928 102.654 17.9121C103.306 17.3921 104.058 17.0906 104.872 16.969C106.776 16.6844 108.516 17.1141 110.067 18.2652C110.764 18.7821 111.307 19.4347 111.631 20.2548C112.134 21.5274 111.823 22.8457 110.802 23.7523C110.197 24.2897 109.481 24.5985 108.701 24.7713C108.262 24.8694 107.818 24.9084 107.184 24.9096Z" fill="#FFDC5B"/>
<path d="M106.276 14.3982C105.179 14.3854 104.267 14.2026 103.421 13.7404C103.116 13.5759 102.834 13.3715 102.583 13.1325C101.545 12.1391 101.314 10.755 101.974 9.47387C102.323 8.7948 102.835 8.26219 103.45 7.8265C104.244 7.26545 105.126 6.92205 106.078 6.75915C107.135 6.57787 108.179 6.62372 109.2 6.97718C109.85 7.2018 110.435 7.53824 110.914 8.04125C111.493 8.65144 111.795 9.3752 111.767 10.2274C111.751 10.7059 111.618 11.1537 111.4 11.5769C111.07 12.2197 110.592 12.7334 110.016 13.1567C109.141 13.8007 108.156 14.1716 107.087 14.3229C106.772 14.368 106.452 14.3825 106.276 14.3982Z" fill="#FFDC5B"/>
<path d="M123.743 52.6825C125.848 52.8019 127.554 53.6667 128.768 55.4346C129.129 55.9617 129.365 56.5655 129.459 57.1994C129.667 58.5617 129.059 59.8191 127.863 60.4831C127.322 60.7835 126.738 60.942 126.126 60.9861C123.901 61.1459 121.815 59.9313 120.759 58.3936C120.337 57.7803 120.042 57.1152 119.967 56.3657C119.835 55.0405 120.325 54.0104 121.436 53.2923C121.979 52.9414 122.588 52.7742 123.226 52.7131C123.398 52.696 123.571 52.6922 123.743 52.6825Z" fill="#FFDC5B"/>
<path d="M123.949 34.7125C123.101 34.7007 122.364 34.5671 121.682 34.2049C120.791 33.7317 120.196 33.0214 119.997 32.0077C119.873 31.376 119.962 30.7633 120.19 30.1688C120.509 29.3357 121.042 28.6597 121.73 28.1107C122.932 27.1534 124.301 26.674 125.837 26.7189C126.522 26.7382 127.179 26.8915 127.789 27.2153C128.667 27.6814 129.261 28.379 129.467 29.3746C129.61 30.0655 129.502 30.7329 129.231 31.377C128.931 32.0909 128.471 32.6875 127.889 33.1859C126.728 34.1772 125.381 34.674 123.949 34.7125Z" fill="#FFDC5B"/>
<path d="M98.6505 24.0427C100.718 24.1781 102.375 25.0398 103.473 26.8617C103.823 27.4436 104.006 28.0871 103.988 28.777C103.961 29.8084 103.506 30.6021 102.655 31.1644C102.139 31.5061 101.541 31.7016 100.924 31.7306C98.8635 31.8368 97.2059 31.0365 95.945 29.4009C95.5602 28.902 95.3145 28.3295 95.1958 27.7038C94.9196 26.2468 95.6333 24.9204 97.0348 24.3512C97.5145 24.1564 98.0897 24.05 98.6505 24.0427Z" fill="#FFDC5B"/>
<path d="M100.377 0.000190983C101.106 -0.00483912 101.802 0.135618 102.447 0.485599C103.242 0.917416 103.775 1.56108 103.962 2.46708C104.089 3.0794 104.002 3.67315 103.772 4.24698C103.435 5.0903 102.868 5.7535 102.142 6.27837C101.064 7.05746 99.8607 7.44672 98.5299 7.39758C97.9039 7.37456 97.3051 7.22829 96.7446 6.93635C95.4091 6.23987 94.835 4.83434 95.3004 3.39205C95.5439 2.63753 95.9838 2.0107 96.5678 1.48988C97.6549 0.520616 98.9297 0.0299848 100.377 0.000190983Z" fill="#FFDC5B"/>
</g>
<g clip-path="url(#clip2_1172_533)">
<path d="M191.131 43.3818C191.144 42.5756 190.994 41.7915 190.801 41.0153C190.593 40.1786 190.363 39.3472 190.154 38.5107C189.986 37.8411 189.875 37.1622 189.856 36.469C189.819 35.0591 190.311 33.8731 191.33 32.9112C192.186 32.1029 193.202 31.6513 194.368 31.5416C195.626 31.4234 196.804 31.7113 197.93 32.2617C199.015 32.7918 199.982 33.5399 200.77 34.4601C201.632 35.4607 202.619 36.3108 203.681 37.08C204.387 37.5908 205.1 38.0938 205.801 38.6103C206.468 39.1014 207.104 39.6297 207.647 40.2622C208.179 40.8812 208.573 41.5711 208.746 42.3793C208.824 42.7517 208.856 43.1324 208.842 43.5128C208.823 44.1603 208.732 44.7962 208.524 45.4113C208.25 46.2207 207.786 46.9062 207.177 47.4961C206.718 47.9397 206.211 48.32 205.682 48.6718C205.026 49.1082 204.362 49.5325 203.708 49.9705C202.643 50.6826 201.674 51.5062 200.831 52.4801C200.016 53.4198 199.066 54.1979 197.961 54.7702C196.962 55.2868 195.909 55.5988 194.778 55.5731C193.131 55.5356 191.81 54.8484 190.826 53.514C190.007 52.4047 189.715 51.1586 189.881 49.7917C189.98 48.9761 190.195 48.1879 190.411 47.3997C190.629 46.6051 190.85 45.8117 190.987 44.9971C191.076 44.4623 191.136 43.9251 191.131 43.3818Z" fill="#FFDC5B"/>
<path d="M170.502 26.7307C168.467 26.7297 166.596 25.2242 166.106 23.0585C165.966 22.4394 165.978 21.8172 166.065 21.1939C166.18 20.3682 166.421 19.5724 166.639 18.7713C166.844 18.0193 167.03 17.264 167.131 16.4884C167.248 15.5903 167.224 14.698 167.019 13.8185C166.818 12.9601 166.586 12.1089 166.371 11.254C166.209 10.6101 166.077 9.96159 166.029 9.29626C165.917 7.72918 166.473 6.45656 167.684 5.47917C168.611 4.73065 169.684 4.41684 170.864 4.45205C171.887 4.48243 172.837 4.78095 173.735 5.26133C174.625 5.73745 175.417 6.35016 176.074 7.11686C176.951 8.14011 177.969 8.99252 179.056 9.77142C179.733 10.2566 180.411 10.7418 181.078 11.2418C181.638 11.6616 182.159 12.1284 182.604 12.6752C183.087 13.2689 183.425 13.9315 183.552 14.6955C183.628 15.1577 183.617 15.6201 183.571 16.0835C183.477 17.0202 183.183 17.8804 182.61 18.633C182.299 19.044 181.933 19.4088 181.521 19.7164C181.038 20.0749 180.539 20.4129 180.043 20.7537C179.393 21.1987 178.73 21.6263 178.09 22.0856C177.411 22.5729 176.808 23.1496 176.258 23.7828C175.475 24.6829 174.577 25.4395 173.516 25.9884C172.622 26.4504 171.678 26.7233 170.502 26.7307Z" fill="#FFDC5B"/>
<path d="M214.759 44.9378C216.355 44.9817 217.956 45.4958 219.325 46.6523C219.95 47.181 220.444 47.816 220.748 48.5889C221.293 49.977 220.942 51.4193 219.82 52.3909C219.221 52.9096 218.524 53.2288 217.763 53.4205C215.529 53.9841 212.845 53.2783 211.188 51.688C210.634 51.1568 210.187 50.5481 209.947 49.8093C209.503 48.4452 209.795 47.2534 210.823 46.2605C211.433 45.6712 212.182 45.3334 212.994 45.1295C213.517 44.9978 214.05 44.9424 214.759 44.9378Z" fill="#FFDC5B"/>
<path d="M214.951 42.2622C213.766 42.2461 212.766 42.0461 211.844 41.5284C211.194 41.1635 210.654 40.6802 210.299 40.0116C209.811 39.0919 209.802 38.1481 210.203 37.1974C210.518 36.4493 211.029 35.8542 211.659 35.3582C212.554 34.6524 213.573 34.2289 214.685 34.0244C215.724 33.8331 216.758 33.8536 217.78 34.1405C218.58 34.3649 219.306 34.7307 219.902 35.3268C220.968 36.3928 221.195 37.8515 220.507 39.1987C220.095 40.005 219.478 40.6202 218.732 41.1107C217.828 41.7054 216.833 42.0538 215.766 42.1898C215.449 42.2297 215.129 42.2467 214.951 42.2622Z" fill="#FFDC5B"/>
<path d="M190.184 24.9096C188.775 24.8728 187.326 24.4128 186.076 23.3924C185.439 22.8732 184.939 22.2434 184.65 21.4616C184.163 20.1422 184.548 18.7928 185.654 17.9121C186.306 17.3921 187.058 17.0906 187.872 16.969C189.776 16.6844 191.516 17.1141 193.067 18.2652C193.764 18.7821 194.307 19.4347 194.631 20.2548C195.134 21.5274 194.823 22.8457 193.802 23.7523C193.197 24.2897 192.481 24.5985 191.701 24.7713C191.262 24.8694 190.818 24.9084 190.184 24.9096Z" fill="#FFDC5B"/>
<path d="M189.276 14.3982C188.179 14.3854 187.267 14.2026 186.421 13.7404C186.116 13.5759 185.834 13.3715 185.583 13.1325C184.545 12.1391 184.314 10.755 184.974 9.47387C185.323 8.7948 185.835 8.26219 186.45 7.8265C187.244 7.26545 188.126 6.92205 189.078 6.75915C190.135 6.57787 191.179 6.62372 192.2 6.97718C192.85 7.2018 193.435 7.53824 193.914 8.04125C194.493 8.65144 194.795 9.3752 194.767 10.2274C194.751 10.7059 194.618 11.1537 194.4 11.5769C194.07 12.2197 193.592 12.7334 193.016 13.1567C192.141 13.8007 191.156 14.1716 190.087 14.3229C189.772 14.368 189.452 14.3825 189.276 14.3982Z" fill="#FFDC5B"/>
<path d="M206.743 52.6825C208.848 52.8019 210.554 53.6667 211.768 55.4346C212.129 55.9617 212.365 56.5655 212.459 57.1994C212.667 58.5617 212.059 59.8191 210.863 60.4831C210.322 60.7835 209.738 60.942 209.126 60.9861C206.901 61.1459 204.815 59.9313 203.759 58.3936C203.337 57.7803 203.042 57.1152 202.967 56.3657C202.835 55.0405 203.325 54.0104 204.436 53.2923C204.979 52.9414 205.588 52.7742 206.226 52.7131C206.398 52.696 206.571 52.6922 206.743 52.6825Z" fill="#FFDC5B"/>
<path d="M206.949 34.7125C206.101 34.7007 205.364 34.5671 204.682 34.2049C203.791 33.7317 203.196 33.0214 202.997 32.0077C202.873 31.376 202.962 30.7633 203.19 30.1688C203.509 29.3357 204.042 28.6597 204.73 28.1107C205.932 27.1534 207.301 26.674 208.837 26.7189C209.522 26.7382 210.179 26.8915 210.789 27.2153C211.667 27.6814 212.261 28.379 212.467 29.3746C212.61 30.0655 212.502 30.7329 212.231 31.377C211.931 32.0909 211.471 32.6875 210.889 33.1859C209.728 34.1772 208.381 34.674 206.949 34.7125Z" fill="#FFDC5B"/>
<path d="M181.651 24.0427C183.718 24.1781 185.375 25.0398 186.473 26.8617C186.823 27.4436 187.006 28.0871 186.988 28.777C186.961 29.8084 186.506 30.6021 185.655 31.1644C185.139 31.5061 184.541 31.7016 183.924 31.7306C181.863 31.8368 180.206 31.0365 178.945 29.4009C178.56 28.902 178.315 28.3295 178.196 27.7038C177.92 26.2468 178.633 24.9204 180.035 24.3512C180.514 24.1564 181.09 24.05 181.651 24.0427Z" fill="#FFDC5B"/>
<path d="M183.377 0.000190983C184.106 -0.00483912 184.802 0.135618 185.447 0.485599C186.242 0.917416 186.775 1.56108 186.962 2.46708C187.089 3.0794 187.002 3.67315 186.772 4.24698C186.435 5.0903 185.868 5.7535 185.142 6.27837C184.064 7.05746 182.861 7.44672 181.53 7.39758C180.904 7.37456 180.305 7.22829 179.745 6.93635C178.409 6.23987 177.835 4.83434 178.3 3.39205C178.544 2.63753 178.984 2.0107 179.568 1.48988C180.655 0.520616 181.93 0.0299848 183.377 0.000190983Z" fill="#FFDC5B"/>
</g>
<g clip-path="url(#clip3_1172_533)">
<path d="M274.131 43.3818C274.144 42.5756 273.994 41.7915 273.801 41.0153C273.593 40.1786 273.363 39.3472 273.154 38.5107C272.986 37.8411 272.875 37.1622 272.856 36.469C272.819 35.0591 273.311 33.8731 274.33 32.9112C275.186 32.1029 276.202 31.6513 277.368 31.5416C278.626 31.4234 279.804 31.7113 280.93 32.2617C282.015 32.7918 282.982 33.5399 283.77 34.4601C284.632 35.4607 285.619 36.3108 286.681 37.08C287.387 37.5908 288.1 38.0938 288.801 38.6103C289.468 39.1014 290.104 39.6297 290.647 40.2622C291.179 40.8812 291.573 41.5711 291.746 42.3793C291.824 42.7517 291.856 43.1324 291.842 43.5128C291.823 44.1603 291.732 44.7962 291.524 45.4113C291.25 46.2207 290.786 46.9062 290.177 47.4961C289.718 47.9397 289.211 48.32 288.682 48.6718C288.026 49.1082 287.362 49.5325 286.708 49.9705C285.643 50.6826 284.674 51.5062 283.831 52.4801C283.016 53.4198 282.066 54.1979 280.961 54.7702C279.962 55.2868 278.909 55.5988 277.778 55.5731C276.131 55.5356 274.81 54.8484 273.826 53.514C273.007 52.4047 272.715 51.1586 272.881 49.7917C272.98 48.9761 273.195 48.1879 273.411 47.3997C273.629 46.6051 273.85 45.8117 273.987 44.9971C274.076 44.4623 274.136 43.9251 274.131 43.3818Z" fill="#FFDC5B"/>
<path d="M253.502 26.7307C251.467 26.7297 249.596 25.2242 249.106 23.0585C248.966 22.4394 248.978 21.8172 249.065 21.1939C249.18 20.3682 249.421 19.5724 249.639 18.7713C249.844 18.0193 250.03 17.264 250.131 16.4884C250.248 15.5903 250.224 14.698 250.019 13.8185C249.818 12.9601 249.586 12.1089 249.371 11.254C249.209 10.6101 249.077 9.96159 249.029 9.29626C248.917 7.72918 249.473 6.45656 250.684 5.47917C251.611 4.73065 252.684 4.41684 253.864 4.45205C254.887 4.48243 255.837 4.78095 256.735 5.26133C257.625 5.73745 258.417 6.35016 259.074 7.11686C259.951 8.14011 260.969 8.99252 262.056 9.77142C262.733 10.2566 263.411 10.7418 264.078 11.2418C264.638 11.6616 265.159 12.1284 265.604 12.6752C266.087 13.2689 266.425 13.9315 266.552 14.6955C266.628 15.1577 266.617 15.6201 266.571 16.0835C266.477 17.0202 266.183 17.8804 265.61 18.633C265.299 19.044 264.933 19.4088 264.521 19.7164C264.038 20.0749 263.539 20.4129 263.043 20.7537C262.393 21.1987 261.73 21.6263 261.09 22.0856C260.411 22.5729 259.808 23.1496 259.258 23.7828C258.475 24.6829 257.577 25.4395 256.516 25.9884C255.622 26.4504 254.678 26.7233 253.502 26.7307Z" fill="#FFDC5B"/>
<path d="M297.758 44.9378C299.355 44.9817 300.956 45.4958 302.325 46.6523C302.95 47.181 303.444 47.816 303.748 48.5889C304.293 49.977 303.942 51.4193 302.82 52.3909C302.221 52.9096 301.524 53.2288 300.763 53.4205C298.529 53.9841 295.845 53.2783 294.188 51.688C293.634 51.1568 293.187 50.5481 292.947 49.8093C292.503 48.4452 292.795 47.2534 293.823 46.2605C294.433 45.6712 295.182 45.3334 295.994 45.1295C296.517 44.9978 297.05 44.9424 297.758 44.9378Z" fill="#FFDC5B"/>
<path d="M297.951 42.2622C296.766 42.2461 295.766 42.0461 294.844 41.5284C294.194 41.1635 293.654 40.6802 293.299 40.0116C292.811 39.0919 292.802 38.1481 293.203 37.1974C293.518 36.4493 294.029 35.8542 294.659 35.3582C295.554 34.6524 296.573 34.2289 297.685 34.0244C298.724 33.8331 299.758 33.8536 300.78 34.1405C301.58 34.3649 302.306 34.7307 302.902 35.3268C303.968 36.3928 304.195 37.8515 303.507 39.1987C303.095 40.005 302.478 40.6202 301.732 41.1107C300.828 41.7054 299.833 42.0538 298.766 42.1898C298.449 42.2297 298.129 42.2467 297.951 42.2622Z" fill="#FFDC5B"/>
<path d="M273.184 24.9096C271.775 24.8728 270.326 24.4128 269.076 23.3924C268.439 22.8732 267.939 22.2434 267.65 21.4616C267.163 20.1422 267.548 18.7928 268.654 17.9121C269.306 17.3921 270.058 17.0906 270.872 16.969C272.776 16.6844 274.516 17.1141 276.067 18.2652C276.764 18.7821 277.307 19.4347 277.631 20.2548C278.134 21.5274 277.823 22.8457 276.802 23.7523C276.197 24.2897 275.481 24.5985 274.701 24.7713C274.262 24.8694 273.818 24.9084 273.184 24.9096Z" fill="#FFDC5B"/>
<path d="M272.276 14.3982C271.179 14.3854 270.267 14.2026 269.421 13.7404C269.116 13.5759 268.834 13.3715 268.583 13.1325C267.545 12.1391 267.314 10.755 267.974 9.47387C268.323 8.7948 268.835 8.26219 269.45 7.8265C270.244 7.26545 271.126 6.92205 272.078 6.75915C273.135 6.57787 274.179 6.62372 275.2 6.97718C275.85 7.2018 276.435 7.53824 276.914 8.04125C277.493 8.65144 277.795 9.3752 277.767 10.2274C277.751 10.7059 277.618 11.1537 277.4 11.5769C277.07 12.2197 276.592 12.7334 276.016 13.1567C275.141 13.8007 274.156 14.1716 273.087 14.3229C272.772 14.368 272.452 14.3825 272.276 14.3982Z" fill="#FFDC5B"/>
<path d="M289.743 52.6825C291.848 52.8019 293.554 53.6667 294.768 55.4346C295.129 55.9617 295.365 56.5655 295.459 57.1994C295.667 58.5617 295.059 59.8191 293.863 60.4831C293.322 60.7835 292.738 60.942 292.126 60.9861C289.901 61.1459 287.815 59.9313 286.759 58.3936C286.337 57.7803 286.042 57.1152 285.967 56.3657C285.835 55.0405 286.325 54.0104 287.436 53.2923C287.979 52.9414 288.588 52.7742 289.226 52.7131C289.398 52.696 289.571 52.6922 289.743 52.6825Z" fill="#FFDC5B"/>
<path d="M289.949 34.7125C289.101 34.7007 288.364 34.5671 287.682 34.2049C286.791 33.7317 286.196 33.0214 285.997 32.0077C285.873 31.376 285.962 30.7633 286.19 30.1688C286.509 29.3357 287.042 28.6597 287.73 28.1107C288.932 27.1534 290.301 26.674 291.837 26.7189C292.522 26.7382 293.179 26.8915 293.789 27.2153C294.667 27.6814 295.261 28.379 295.467 29.3746C295.61 30.0655 295.502 30.7329 295.231 31.377C294.931 32.0909 294.471 32.6875 293.889 33.1859C292.728 34.1772 291.381 34.674 289.949 34.7125Z" fill="#FFDC5B"/>
<path d="M264.651 24.0427C266.718 24.1781 268.375 25.0398 269.473 26.8617C269.823 27.4436 270.006 28.0871 269.988 28.777C269.961 29.8084 269.506 30.6021 268.655 31.1644C268.139 31.5061 267.541 31.7016 266.924 31.7306C264.863 31.8368 263.206 31.0365 261.945 29.4009C261.56 28.902 261.315 28.3295 261.196 27.7038C260.92 26.2468 261.633 24.9204 263.035 24.3512C263.514 24.1564 264.09 24.05 264.651 24.0427Z" fill="#FFDC5B"/>
<path d="M266.377 0.000190983C267.106 -0.00483912 267.802 0.135618 268.447 0.485599C269.242 0.917416 269.775 1.56108 269.962 2.46708C270.089 3.0794 270.002 3.67315 269.772 4.24698C269.435 5.0903 268.868 5.7535 268.142 6.27837C267.064 7.05746 265.861 7.44672 264.53 7.39758C263.904 7.37456 263.305 7.22829 262.745 6.93635C261.409 6.23987 260.835 4.83434 261.3 3.39205C261.544 2.63753 261.984 2.0107 262.568 1.48988C263.655 0.520616 264.93 0.0299848 266.377 0.000190983Z" fill="#FFDC5B"/>
</g>
<g clip-path="url(#clip4_1172_533)">
<path d="M357.131 43.3818C357.144 42.5756 356.994 41.7915 356.801 41.0153C356.593 40.1786 356.363 39.3472 356.154 38.5107C355.986 37.8411 355.875 37.1622 355.856 36.469C355.819 35.0591 356.311 33.8731 357.33 32.9112C358.186 32.1029 359.202 31.6513 360.368 31.5416C361.626 31.4234 362.804 31.7113 363.93 32.2617C365.015 32.7918 365.982 33.5399 366.77 34.4601C367.632 35.4607 368.619 36.3108 369.681 37.08C370.387 37.5908 371.1 38.0938 371.801 38.6103C372.468 39.1014 373.104 39.6297 373.647 40.2622C374.179 40.8812 374.573 41.5711 374.746 42.3793C374.824 42.7517 374.856 43.1324 374.842 43.5128C374.823 44.1603 374.732 44.7962 374.524 45.4113C374.25 46.2207 373.786 46.9062 373.177 47.4961C372.718 47.9397 372.211 48.32 371.682 48.6718C371.026 49.1082 370.362 49.5325 369.708 49.9705C368.643 50.6826 367.674 51.5062 366.831 52.4801C366.016 53.4198 365.066 54.1979 363.961 54.7702C362.962 55.2868 361.909 55.5988 360.778 55.5731C359.131 55.5356 357.81 54.8484 356.826 53.514C356.007 52.4047 355.715 51.1586 355.881 49.7917C355.98 48.9761 356.195 48.1879 356.411 47.3997C356.629 46.6051 356.85 45.8117 356.987 44.9971C357.076 44.4623 357.136 43.9251 357.131 43.3818Z" fill="#FFDC5B"/>
<path d="M336.502 26.7307C334.467 26.7297 332.596 25.2242 332.106 23.0585C331.966 22.4394 331.978 21.8172 332.065 21.1939C332.18 20.3682 332.421 19.5724 332.639 18.7713C332.844 18.0193 333.03 17.264 333.131 16.4884C333.248 15.5903 333.224 14.698 333.019 13.8185C332.818 12.9601 332.586 12.1089 332.371 11.254C332.209 10.6101 332.077 9.96159 332.029 9.29626C331.917 7.72918 332.473 6.45656 333.684 5.47917C334.611 4.73065 335.684 4.41684 336.864 4.45205C337.887 4.48243 338.837 4.78095 339.735 5.26133C340.625 5.73745 341.417 6.35016 342.074 7.11686C342.951 8.14011 343.969 8.99252 345.056 9.77142C345.733 10.2566 346.411 10.7418 347.078 11.2418C347.638 11.6616 348.159 12.1284 348.604 12.6752C349.087 13.2689 349.425 13.9315 349.552 14.6955C349.628 15.1577 349.617 15.6201 349.571 16.0835C349.477 17.0202 349.183 17.8804 348.61 18.633C348.299 19.044 347.933 19.4088 347.521 19.7164C347.038 20.0749 346.539 20.4129 346.043 20.7537C345.393 21.1987 344.73 21.6263 344.09 22.0856C343.411 22.5729 342.808 23.1496 342.258 23.7828C341.475 24.6829 340.577 25.4395 339.516 25.9884C338.622 26.4504 337.678 26.7233 336.502 26.7307Z" fill="#FFDC5B"/>
<path d="M380.758 44.9378C382.355 44.9817 383.956 45.4958 385.325 46.6523C385.95 47.181 386.444 47.816 386.748 48.5889C387.293 49.977 386.942 51.4193 385.82 52.3909C385.221 52.9096 384.524 53.2288 383.763 53.4205C381.529 53.9841 378.845 53.2783 377.188 51.688C376.634 51.1568 376.187 50.5481 375.947 49.8093C375.503 48.4452 375.795 47.2534 376.823 46.2605C377.433 45.6712 378.182 45.3334 378.994 45.1295C379.517 44.9978 380.05 44.9424 380.758 44.9378Z" fill="#FFDC5B"/>
<path d="M380.951 42.2622C379.766 42.2461 378.766 42.0461 377.844 41.5284C377.194 41.1635 376.654 40.6802 376.299 40.0116C375.811 39.0919 375.802 38.1481 376.203 37.1974C376.518 36.4493 377.029 35.8542 377.659 35.3582C378.554 34.6524 379.573 34.2289 380.685 34.0244C381.724 33.8331 382.758 33.8536 383.78 34.1405C384.58 34.3649 385.306 34.7307 385.902 35.3268C386.968 36.3928 387.195 37.8515 386.507 39.1987C386.095 40.005 385.478 40.6202 384.732 41.1107C383.828 41.7054 382.833 42.0538 381.766 42.1898C381.449 42.2297 381.129 42.2467 380.951 42.2622Z" fill="#FFDC5B"/>
<path d="M356.184 24.9096C354.775 24.8728 353.326 24.4128 352.076 23.3924C351.439 22.8732 350.939 22.2434 350.65 21.4616C350.163 20.1422 350.548 18.7928 351.654 17.9121C352.306 17.3921 353.058 17.0906 353.872 16.969C355.776 16.6844 357.516 17.1141 359.067 18.2652C359.764 18.7821 360.307 19.4347 360.631 20.2548C361.134 21.5274 360.823 22.8457 359.802 23.7523C359.197 24.2897 358.481 24.5985 357.701 24.7713C357.262 24.8694 356.818 24.9084 356.184 24.9096Z" fill="#FFDC5B"/>
<path d="M355.276 14.3982C354.179 14.3854 353.267 14.2026 352.421 13.7404C352.116 13.5759 351.834 13.3715 351.583 13.1325C350.545 12.1391 350.314 10.755 350.974 9.47387C351.323 8.7948 351.835 8.26219 352.45 7.8265C353.244 7.26545 354.126 6.92205 355.078 6.75915C356.135 6.57787 357.179 6.62372 358.2 6.97718C358.85 7.2018 359.435 7.53824 359.914 8.04125C360.493 8.65144 360.795 9.3752 360.767 10.2274C360.751 10.7059 360.618 11.1537 360.4 11.5769C360.07 12.2197 359.592 12.7334 359.016 13.1567C358.141 13.8007 357.156 14.1716 356.087 14.3229C355.772 14.368 355.452 14.3825 355.276 14.3982Z" fill="#FFDC5B"/>
<path d="M372.743 52.6825C374.848 52.8019 376.554 53.6667 377.768 55.4346C378.129 55.9617 378.365 56.5655 378.459 57.1994C378.667 58.5617 378.059 59.8191 376.863 60.4831C376.322 60.7835 375.738 60.942 375.126 60.9861C372.901 61.1459 370.815 59.9313 369.759 58.3936C369.337 57.7803 369.042 57.1152 368.967 56.3657C368.835 55.0405 369.325 54.0104 370.436 53.2923C370.979 52.9414 371.588 52.7742 372.226 52.7131C372.398 52.696 372.571 52.6922 372.743 52.6825Z" fill="#FFDC5B"/>
<path d="M372.949 34.7125C372.101 34.7007 371.364 34.5671 370.682 34.2049C369.791 33.7317 369.196 33.0214 368.997 32.0077C368.873 31.376 368.962 30.7633 369.19 30.1688C369.509 29.3357 370.042 28.6597 370.73 28.1107C371.932 27.1534 373.301 26.674 374.837 26.7189C375.522 26.7382 376.179 26.8915 376.789 27.2153C377.667 27.6814 378.261 28.379 378.467 29.3746C378.61 30.0655 378.502 30.7329 378.231 31.377C377.931 32.0909 377.471 32.6875 376.889 33.1859C375.728 34.1772 374.381 34.674 372.949 34.7125Z" fill="#FFDC5B"/>
<path d="M347.651 24.0427C349.718 24.1781 351.375 25.0398 352.473 26.8617C352.824 27.4436 353.007 28.0871 352.988 28.777C352.961 29.8084 352.506 30.6021 351.655 31.1644C351.139 31.5061 350.541 31.7016 349.924 31.7306C347.864 31.8368 346.206 31.0365 344.945 29.4009C344.56 28.902 344.315 28.3295 344.196 27.7038C343.92 26.2468 344.633 24.9204 346.035 24.3512C346.515 24.1564 347.09 24.05 347.651 24.0427Z" fill="#FFDC5B"/>
<path d="M349.377 0.000190983C350.106 -0.00483912 350.802 0.135618 351.447 0.485599C352.242 0.917416 352.775 1.56108 352.962 2.46708C353.089 3.0794 353.002 3.67315 352.772 4.24698C352.434 5.0903 351.868 5.7535 351.142 6.27837C350.064 7.05746 348.861 7.44672 347.53 7.39758C346.904 7.37456 346.305 7.22829 345.745 6.93635C344.409 6.23987 343.835 4.83434 344.3 3.39205C344.544 2.63753 344.984 2.0107 345.568 1.48988C346.655 0.520616 347.93 0.0299848 349.377 0.000190983Z" fill="#FFDC5B"/>
</g>
<g clip-path="url(#clip5_1172_533)">
<path d="M440.131 43.3818C440.144 42.5756 439.994 41.7915 439.801 41.0153C439.593 40.1786 439.363 39.3472 439.154 38.5107C438.986 37.8411 438.875 37.1622 438.856 36.469C438.819 35.0591 439.311 33.8731 440.33 32.9112C441.186 32.1029 442.202 31.6513 443.368 31.5416C444.626 31.4234 445.804 31.7113 446.93 32.2617C448.015 32.7918 448.982 33.5399 449.77 34.4601C450.632 35.4607 451.619 36.3108 452.681 37.08C453.387 37.5908 454.1 38.0938 454.801 38.6103C455.468 39.1014 456.104 39.6297 456.647 40.2622C457.179 40.8812 457.573 41.5711 457.746 42.3793C457.824 42.7517 457.856 43.1324 457.842 43.5128C457.823 44.1603 457.732 44.7962 457.524 45.4113C457.25 46.2207 456.786 46.9062 456.177 47.4961C455.718 47.9397 455.211 48.32 454.682 48.6718C454.026 49.1082 453.362 49.5325 452.708 49.9705C451.643 50.6826 450.674 51.5062 449.831 52.4801C449.016 53.4198 448.066 54.1979 446.961 54.7702C445.962 55.2868 444.909 55.5988 443.778 55.5731C442.131 55.5356 440.81 54.8484 439.826 53.514C439.007 52.4047 438.715 51.1586 438.881 49.7917C438.98 48.9761 439.195 48.1879 439.411 47.3997C439.629 46.6051 439.85 45.8117 439.987 44.9971C440.076 44.4623 440.136 43.9251 440.131 43.3818Z" fill="#FFDC5B"/>
<path d="M419.502 26.7307C417.467 26.7297 415.596 25.2242 415.106 23.0585C414.966 22.4394 414.978 21.8172 415.065 21.1939C415.18 20.3682 415.421 19.5724 415.639 18.7713C415.844 18.0193 416.03 17.264 416.131 16.4884C416.248 15.5903 416.224 14.698 416.019 13.8185C415.818 12.9601 415.586 12.1089 415.371 11.254C415.209 10.6101 415.077 9.96159 415.029 9.29626C414.917 7.72918 415.473 6.45656 416.684 5.47917C417.611 4.73065 418.684 4.41684 419.864 4.45205C420.887 4.48243 421.837 4.78095 422.735 5.26133C423.625 5.73745 424.417 6.35016 425.074 7.11686C425.951 8.14011 426.969 8.99252 428.056 9.77142C428.733 10.2566 429.411 10.7418 430.078 11.2418C430.638 11.6616 431.159 12.1284 431.604 12.6752C432.087 13.2689 432.425 13.9315 432.552 14.6955C432.628 15.1577 432.617 15.6201 432.571 16.0835C432.477 17.0202 432.183 17.8804 431.61 18.633C431.299 19.044 430.933 19.4088 430.521 19.7164C430.038 20.0749 429.539 20.4129 429.043 20.7537C428.393 21.1987 427.73 21.6263 427.09 22.0856C426.411 22.5729 425.808 23.1496 425.258 23.7828C424.475 24.6829 423.577 25.4395 422.516 25.9884C421.622 26.4504 420.678 26.7233 419.502 26.7307Z" fill="#FFDC5B"/>
<path d="M463.758 44.9378C465.355 44.9817 466.956 45.4958 468.325 46.6523C468.95 47.181 469.444 47.816 469.748 48.5889C470.293 49.977 469.942 51.4193 468.82 52.3909C468.221 52.9096 467.524 53.2288 466.763 53.4205C464.529 53.9841 461.845 53.2783 460.188 51.688C459.634 51.1568 459.187 50.5481 458.947 49.8093C458.503 48.4452 458.795 47.2534 459.823 46.2605C460.433 45.6712 461.182 45.3334 461.994 45.1295C462.517 44.9978 463.05 44.9424 463.758 44.9378Z" fill="#FFDC5B"/>
<path d="M463.951 42.2622C462.766 42.2461 461.766 42.0461 460.844 41.5284C460.194 41.1635 459.654 40.6802 459.299 40.0116C458.811 39.0919 458.802 38.1481 459.203 37.1974C459.518 36.4493 460.029 35.8542 460.659 35.3582C461.554 34.6524 462.573 34.2289 463.685 34.0244C464.724 33.8331 465.758 33.8536 466.78 34.1405C467.58 34.3649 468.306 34.7307 468.902 35.3268C469.968 36.3928 470.195 37.8515 469.507 39.1987C469.095 40.005 468.478 40.6202 467.732 41.1107C466.828 41.7054 465.833 42.0538 464.766 42.1898C464.449 42.2297 464.129 42.2467 463.951 42.2622Z" fill="#FFDC5B"/>
<path d="M439.184 24.9096C437.775 24.8728 436.326 24.4128 435.076 23.3924C434.439 22.8732 433.939 22.2434 433.65 21.4616C433.163 20.1422 433.548 18.7928 434.654 17.9121C435.306 17.3921 436.058 17.0906 436.872 16.969C438.776 16.6844 440.516 17.1141 442.067 18.2652C442.764 18.7821 443.307 19.4347 443.631 20.2548C444.134 21.5274 443.823 22.8457 442.802 23.7523C442.197 24.2897 441.481 24.5985 440.701 24.7713C440.262 24.8694 439.818 24.9084 439.184 24.9096Z" fill="#FFDC5B"/>
<path d="M438.276 14.3982C437.179 14.3854 436.267 14.2026 435.421 13.7404C435.116 13.5759 434.834 13.3715 434.583 13.1325C433.545 12.1391 433.314 10.755 433.974 9.47387C434.323 8.7948 434.835 8.26219 435.45 7.8265C436.244 7.26545 437.126 6.92205 438.078 6.75915C439.135 6.57787 440.179 6.62372 441.2 6.97718C441.85 7.2018 442.435 7.53824 442.914 8.04125C443.493 8.65144 443.795 9.3752 443.767 10.2274C443.751 10.7059 443.618 11.1537 443.4 11.5769C443.07 12.2197 442.592 12.7334 442.016 13.1567C441.141 13.8007 440.156 14.1716 439.087 14.3229C438.772 14.368 438.452 14.3825 438.276 14.3982Z" fill="#FFDC5B"/>
<path d="M455.743 52.6825C457.848 52.8019 459.554 53.6667 460.768 55.4346C461.129 55.9617 461.365 56.5655 461.459 57.1994C461.667 58.5617 461.059 59.8191 459.863 60.4831C459.322 60.7835 458.738 60.942 458.126 60.9861C455.901 61.1459 453.815 59.9313 452.759 58.3936C452.337 57.7803 452.042 57.1152 451.967 56.3657C451.835 55.0405 452.325 54.0104 453.436 53.2923C453.979 52.9414 454.588 52.7742 455.226 52.7131C455.398 52.696 455.571 52.6922 455.743 52.6825Z" fill="#FFDC5B"/>
<path d="M455.949 34.7125C455.101 34.7007 454.364 34.5671 453.682 34.2049C452.791 33.7317 452.196 33.0214 451.997 32.0077C451.873 31.376 451.962 30.7633 452.19 30.1688C452.509 29.3357 453.042 28.6597 453.73 28.1107C454.932 27.1534 456.301 26.674 457.837 26.7189C458.522 26.7382 459.179 26.8915 459.789 27.2153C460.667 27.6814 461.261 28.379 461.467 29.3746C461.61 30.0655 461.502 30.7329 461.231 31.377C460.931 32.0909 460.471 32.6875 459.889 33.1859C458.728 34.1772 457.381 34.674 455.949 34.7125Z" fill="#FFDC5B"/>
<path d="M430.651 24.0427C432.718 24.1781 434.375 25.0398 435.473 26.8617C435.824 27.4436 436.007 28.0871 435.988 28.777C435.961 29.8084 435.506 30.6021 434.655 31.1644C434.139 31.5061 433.541 31.7016 432.924 31.7306C430.864 31.8368 429.206 31.0365 427.945 29.4009C427.56 28.902 427.315 28.3295 427.196 27.7038C426.92 26.2468 427.633 24.9204 429.035 24.3512C429.515 24.1564 430.09 24.05 430.651 24.0427Z" fill="#FFDC5B"/>
<path d="M432.377 0.000190983C433.106 -0.00483912 433.802 0.135618 434.447 0.485599C435.242 0.917416 435.775 1.56108 435.962 2.46708C436.089 3.0794 436.002 3.67315 435.772 4.24698C435.434 5.0903 434.868 5.7535 434.142 6.27837C433.064 7.05746 431.861 7.44672 430.53 7.39758C429.904 7.37456 429.305 7.22829 428.745 6.93635C427.409 6.23987 426.835 4.83434 427.3 3.39205C427.544 2.63753 427.984 2.0107 428.568 1.48988C429.655 0.520616 430.93 0.0299848 432.377 0.000190983Z" fill="#FFDC5B"/>
</g>
<g clip-path="url(#clip6_1172_533)">
<path d="M523.131 43.3818C523.144 42.5756 522.994 41.7915 522.801 41.0153C522.593 40.1786 522.363 39.3472 522.154 38.5107C521.986 37.8411 521.875 37.1622 521.856 36.469C521.819 35.0591 522.311 33.8731 523.33 32.9112C524.186 32.1029 525.202 31.6513 526.368 31.5416C527.626 31.4234 528.804 31.7113 529.93 32.2617C531.015 32.7918 531.982 33.5399 532.77 34.4601C533.632 35.4607 534.619 36.3108 535.681 37.08C536.387 37.5908 537.1 38.0938 537.801 38.6103C538.468 39.1014 539.104 39.6297 539.647 40.2622C540.179 40.8812 540.573 41.5711 540.746 42.3793C540.824 42.7517 540.856 43.1324 540.842 43.5128C540.823 44.1603 540.732 44.7962 540.524 45.4113C540.25 46.2207 539.786 46.9062 539.177 47.4961C538.718 47.9397 538.211 48.32 537.682 48.6718C537.026 49.1082 536.362 49.5325 535.708 49.9705C534.643 50.6826 533.674 51.5062 532.831 52.4801C532.016 53.4198 531.066 54.1979 529.961 54.7702C528.962 55.2868 527.909 55.5988 526.778 55.5731C525.131 55.5356 523.81 54.8484 522.826 53.514C522.007 52.4047 521.715 51.1586 521.881 49.7917C521.98 48.9761 522.195 48.1879 522.411 47.3997C522.629 46.6051 522.85 45.8117 522.987 44.9971C523.076 44.4623 523.136 43.9251 523.131 43.3818Z" fill="#FFDC5B"/>
<path d="M502.502 26.7307C500.467 26.7297 498.596 25.2242 498.106 23.0585C497.966 22.4394 497.978 21.8172 498.065 21.1939C498.18 20.3682 498.421 19.5724 498.639 18.7713C498.844 18.0193 499.03 17.264 499.131 16.4884C499.248 15.5903 499.224 14.698 499.019 13.8185C498.818 12.9601 498.586 12.1089 498.371 11.254C498.209 10.6101 498.077 9.96159 498.029 9.29626C497.917 7.72918 498.473 6.45656 499.684 5.47917C500.611 4.73065 501.684 4.41684 502.864 4.45205C503.887 4.48243 504.837 4.78095 505.735 5.26133C506.625 5.73745 507.417 6.35016 508.074 7.11686C508.951 8.14011 509.969 8.99252 511.056 9.77142C511.733 10.2566 512.411 10.7418 513.078 11.2418C513.638 11.6616 514.159 12.1284 514.604 12.6752C515.087 13.2689 515.425 13.9315 515.552 14.6955C515.628 15.1577 515.617 15.6201 515.571 16.0835C515.477 17.0202 515.183 17.8804 514.61 18.633C514.299 19.044 513.933 19.4088 513.521 19.7164C513.038 20.0749 512.539 20.4129 512.043 20.7537C511.393 21.1987 510.73 21.6263 510.09 22.0856C509.411 22.5729 508.808 23.1496 508.258 23.7828C507.475 24.6829 506.577 25.4395 505.516 25.9884C504.622 26.4504 503.678 26.7233 502.502 26.7307Z" fill="#FFDC5B"/>
<path d="M546.758 44.9378C548.355 44.9817 549.956 45.4958 551.325 46.6523C551.95 47.181 552.444 47.816 552.748 48.5889C553.293 49.977 552.942 51.4193 551.82 52.3909C551.221 52.9096 550.524 53.2288 549.763 53.4205C547.529 53.9841 544.845 53.2783 543.188 51.688C542.634 51.1568 542.187 50.5481 541.947 49.8093C541.503 48.4452 541.795 47.2534 542.823 46.2605C543.433 45.6712 544.182 45.3334 544.994 45.1295C545.517 44.9978 546.05 44.9424 546.758 44.9378Z" fill="#FFDC5B"/>
<path d="M546.951 42.2622C545.766 42.2461 544.766 42.0461 543.844 41.5284C543.194 41.1635 542.654 40.6802 542.299 40.0116C541.811 39.0919 541.802 38.1481 542.203 37.1974C542.518 36.4493 543.029 35.8542 543.659 35.3582C544.554 34.6524 545.573 34.2289 546.685 34.0244C547.724 33.8331 548.758 33.8536 549.78 34.1405C550.58 34.3649 551.306 34.7307 551.902 35.3268C552.968 36.3928 553.195 37.8515 552.507 39.1987C552.095 40.005 551.478 40.6202 550.732 41.1107C549.828 41.7054 548.833 42.0538 547.766 42.1898C547.449 42.2297 547.129 42.2467 546.951 42.2622Z" fill="#FFDC5B"/>
<path d="M522.184 24.9096C520.775 24.8728 519.326 24.4128 518.076 23.3924C517.439 22.8732 516.939 22.2434 516.65 21.4616C516.163 20.1422 516.548 18.7928 517.654 17.9121C518.306 17.3921 519.058 17.0906 519.872 16.969C521.776 16.6844 523.516 17.1141 525.067 18.2652C525.764 18.7821 526.307 19.4347 526.631 20.2548C527.134 21.5274 526.823 22.8457 525.802 23.7523C525.197 24.2897 524.481 24.5985 523.701 24.7713C523.262 24.8694 522.818 24.9084 522.184 24.9096Z" fill="#FFDC5B"/>
<path d="M521.276 14.3982C520.179 14.3854 519.267 14.2026 518.421 13.7404C518.116 13.5759 517.834 13.3715 517.583 13.1325C516.545 12.1391 516.314 10.755 516.974 9.47387C517.323 8.7948 517.835 8.26219 518.45 7.8265C519.244 7.26545 520.126 6.92205 521.078 6.75915C522.135 6.57787 523.179 6.62372 524.2 6.97718C524.85 7.2018 525.435 7.53824 525.914 8.04125C526.493 8.65144 526.795 9.3752 526.767 10.2274C526.751 10.7059 526.618 11.1537 526.4 11.5769C526.07 12.2197 525.592 12.7334 525.016 13.1567C524.141 13.8007 523.156 14.1716 522.087 14.3229C521.772 14.368 521.452 14.3825 521.276 14.3982Z" fill="#FFDC5B"/>
<path d="M538.743 52.6825C540.848 52.8019 542.554 53.6667 543.768 55.4346C544.129 55.9617 544.365 56.5655 544.459 57.1994C544.667 58.5617 544.059 59.8191 542.863 60.4831C542.322 60.7835 541.738 60.942 541.126 60.9861C538.901 61.1459 536.815 59.9313 535.759 58.3936C535.337 57.7803 535.042 57.1152 534.967 56.3657C534.835 55.0405 535.325 54.0104 536.436 53.2923C536.979 52.9414 537.588 52.7742 538.226 52.7131C538.398 52.696 538.571 52.6922 538.743 52.6825Z" fill="#FFDC5B"/>
<path d="M538.949 34.7125C538.101 34.7007 537.364 34.5671 536.682 34.2049C535.791 33.7317 535.196 33.0214 534.997 32.0077C534.873 31.376 534.962 30.7633 535.19 30.1688C535.509 29.3357 536.042 28.6597 536.73 28.1107C537.932 27.1534 539.301 26.674 540.837 26.7189C541.522 26.7382 542.179 26.8915 542.789 27.2153C543.667 27.6814 544.261 28.379 544.467 29.3746C544.61 30.0655 544.502 30.7329 544.231 31.377C543.931 32.0909 543.471 32.6875 542.889 33.1859C541.728 34.1772 540.381 34.674 538.949 34.7125Z" fill="#FFDC5B"/>
<path d="M513.651 24.0427C515.718 24.1781 517.375 25.0398 518.473 26.8617C518.824 27.4436 519.007 28.0871 518.988 28.777C518.961 29.8084 518.506 30.6021 517.655 31.1644C517.139 31.5061 516.541 31.7016 515.924 31.7306C513.864 31.8368 512.206 31.0365 510.945 29.4009C510.56 28.902 510.315 28.3295 510.196 27.7038C509.92 26.2468 510.633 24.9204 512.035 24.3512C512.515 24.1564 513.09 24.05 513.651 24.0427Z" fill="#FFDC5B"/>
<path d="M515.377 0.000190983C516.106 -0.00483912 516.802 0.135618 517.447 0.485599C518.242 0.917416 518.775 1.56108 518.962 2.46708C519.089 3.0794 519.002 3.67315 518.772 4.24698C518.434 5.0903 517.868 5.7535 517.142 6.27837C516.064 7.05746 514.861 7.44672 513.53 7.39758C512.904 7.37456 512.305 7.22829 511.745 6.93635C510.409 6.23987 509.835 4.83434 510.3 3.39205C510.544 2.63753 510.984 2.0107 511.568 1.48988C512.655 0.520616 513.93 0.0299848 515.377 0.000190983Z" fill="#FFDC5B"/>
</g>
<g clip-path="url(#clip7_1172_533)">
<path d="M606.131 43.3818C606.144 42.5756 605.994 41.7915 605.801 41.0153C605.593 40.1786 605.363 39.3472 605.154 38.5107C604.986 37.8411 604.875 37.1622 604.856 36.469C604.819 35.0591 605.311 33.8731 606.33 32.9112C607.186 32.1029 608.202 31.6513 609.368 31.5416C610.626 31.4234 611.804 31.7113 612.93 32.2617C614.015 32.7918 614.982 33.5399 615.77 34.4601C616.632 35.4607 617.619 36.3108 618.681 37.08C619.387 37.5908 620.1 38.0938 620.801 38.6103C621.468 39.1014 622.104 39.6297 622.647 40.2622C623.179 40.8812 623.573 41.5711 623.746 42.3793C623.824 42.7517 623.856 43.1324 623.842 43.5128C623.823 44.1603 623.732 44.7962 623.524 45.4113C623.25 46.2207 622.786 46.9062 622.177 47.4961C621.718 47.9397 621.211 48.32 620.682 48.6718C620.026 49.1082 619.362 49.5325 618.708 49.9705C617.643 50.6826 616.674 51.5062 615.831 52.4801C615.016 53.4198 614.066 54.1979 612.961 54.7702C611.962 55.2868 610.909 55.5988 609.778 55.5731C608.131 55.5356 606.81 54.8484 605.826 53.514C605.007 52.4047 604.715 51.1586 604.881 49.7917C604.98 48.9761 605.195 48.1879 605.411 47.3997C605.629 46.6051 605.85 45.8117 605.987 44.9971C606.076 44.4623 606.136 43.9251 606.131 43.3818Z" fill="#FFDC5B"/>
<path d="M585.502 26.7307C583.467 26.7297 581.596 25.2242 581.106 23.0585C580.966 22.4394 580.978 21.8172 581.065 21.1939C581.18 20.3682 581.421 19.5724 581.639 18.7713C581.844 18.0193 582.03 17.264 582.131 16.4884C582.248 15.5903 582.224 14.698 582.019 13.8185C581.818 12.9601 581.586 12.1089 581.371 11.254C581.209 10.6101 581.077 9.96159 581.029 9.29626C580.917 7.72918 581.473 6.45656 582.684 5.47917C583.611 4.73065 584.684 4.41684 585.864 4.45205C586.887 4.48243 587.837 4.78095 588.735 5.26133C589.625 5.73745 590.417 6.35016 591.074 7.11686C591.951 8.14011 592.969 8.99252 594.056 9.77142C594.733 10.2566 595.411 10.7418 596.078 11.2418C596.638 11.6616 597.159 12.1284 597.604 12.6752C598.087 13.2689 598.425 13.9315 598.552 14.6955C598.628 15.1577 598.617 15.6201 598.571 16.0835C598.477 17.0202 598.183 17.8804 597.61 18.633C597.299 19.044 596.933 19.4088 596.521 19.7164C596.038 20.0749 595.539 20.4129 595.043 20.7537C594.393 21.1987 593.73 21.6263 593.09 22.0856C592.411 22.5729 591.808 23.1496 591.258 23.7828C590.475 24.6829 589.577 25.4395 588.516 25.9884C587.622 26.4504 586.678 26.7233 585.502 26.7307Z" fill="#FFDC5B"/>
<path d="M629.758 44.9378C631.355 44.9817 632.956 45.4958 634.325 46.6523C634.95 47.181 635.444 47.816 635.748 48.5889C636.293 49.977 635.942 51.4193 634.82 52.3909C634.221 52.9096 633.524 53.2288 632.763 53.4205C630.529 53.9841 627.845 53.2783 626.188 51.688C625.634 51.1568 625.187 50.5481 624.947 49.8093C624.503 48.4452 624.795 47.2534 625.823 46.2605C626.433 45.6712 627.182 45.3334 627.994 45.1295C628.517 44.9978 629.05 44.9424 629.758 44.9378Z" fill="#FFDC5B"/>
<path d="M629.951 42.2622C628.766 42.2461 627.766 42.0461 626.844 41.5284C626.194 41.1635 625.654 40.6802 625.299 40.0116C624.811 39.0919 624.802 38.1481 625.203 37.1974C625.518 36.4493 626.029 35.8542 626.659 35.3582C627.554 34.6524 628.573 34.2289 629.685 34.0244C630.724 33.8331 631.758 33.8536 632.78 34.1405C633.58 34.3649 634.306 34.7307 634.902 35.3268C635.968 36.3928 636.195 37.8515 635.507 39.1987C635.095 40.005 634.478 40.6202 633.732 41.1107C632.828 41.7054 631.833 42.0538 630.766 42.1898C630.449 42.2297 630.129 42.2467 629.951 42.2622Z" fill="#FFDC5B"/>
<path d="M605.184 24.9096C603.775 24.8728 602.326 24.4128 601.076 23.3924C600.439 22.8732 599.939 22.2434 599.65 21.4616C599.163 20.1422 599.548 18.7928 600.654 17.9121C601.306 17.3921 602.058 17.0906 602.872 16.969C604.776 16.6844 606.516 17.1141 608.067 18.2652C608.764 18.7821 609.307 19.4347 609.631 20.2548C610.134 21.5274 609.823 22.8457 608.802 23.7523C608.197 24.2897 607.481 24.5985 606.701 24.7713C606.262 24.8694 605.818 24.9084 605.184 24.9096Z" fill="#FFDC5B"/>
<path d="M604.276 14.3982C603.179 14.3854 602.267 14.2026 601.421 13.7404C601.116 13.5759 600.834 13.3715 600.583 13.1325C599.545 12.1391 599.314 10.755 599.974 9.47387C600.323 8.7948 600.835 8.26219 601.45 7.8265C602.244 7.26545 603.126 6.92205 604.078 6.75915C605.135 6.57787 606.179 6.62372 607.2 6.97718C607.85 7.2018 608.435 7.53824 608.914 8.04125C609.493 8.65144 609.795 9.3752 609.767 10.2274C609.751 10.7059 609.618 11.1537 609.4 11.5769C609.07 12.2197 608.592 12.7334 608.016 13.1567C607.141 13.8007 606.156 14.1716 605.087 14.3229C604.772 14.368 604.452 14.3825 604.276 14.3982Z" fill="#FFDC5B"/>
<path d="M621.743 52.6825C623.848 52.8019 625.554 53.6667 626.768 55.4346C627.129 55.9617 627.365 56.5655 627.459 57.1994C627.667 58.5617 627.059 59.8191 625.863 60.4831C625.322 60.7835 624.738 60.942 624.126 60.9861C621.901 61.1459 619.815 59.9313 618.759 58.3936C618.337 57.7803 618.042 57.1152 617.967 56.3657C617.835 55.0405 618.325 54.0104 619.436 53.2923C619.979 52.9414 620.588 52.7742 621.226 52.7131C621.398 52.696 621.571 52.6922 621.743 52.6825Z" fill="#FFDC5B"/>
<path d="M621.949 34.7125C621.101 34.7007 620.364 34.5671 619.682 34.2049C618.791 33.7317 618.196 33.0214 617.997 32.0077C617.873 31.376 617.962 30.7633 618.19 30.1688C618.509 29.3357 619.042 28.6597 619.73 28.1107C620.932 27.1534 622.301 26.674 623.837 26.7189C624.522 26.7382 625.179 26.8915 625.789 27.2153C626.667 27.6814 627.261 28.379 627.467 29.3746C627.61 30.0655 627.502 30.7329 627.231 31.377C626.931 32.0909 626.471 32.6875 625.889 33.1859C624.728 34.1772 623.381 34.674 621.949 34.7125Z" fill="#FFDC5B"/>
<path d="M596.651 24.0427C598.718 24.1781 600.375 25.0398 601.473 26.8617C601.824 27.4436 602.007 28.0871 601.988 28.777C601.961 29.8084 601.506 30.6021 600.655 31.1644C600.139 31.5061 599.541 31.7016 598.924 31.7306C596.864 31.8368 595.206 31.0365 593.945 29.4009C593.56 28.902 593.315 28.3295 593.196 27.7038C592.92 26.2468 593.633 24.9204 595.035 24.3512C595.515 24.1564 596.09 24.05 596.651 24.0427Z" fill="#FFDC5B"/>
<path d="M598.377 0.000190983C599.106 -0.00483912 599.802 0.135618 600.447 0.485599C601.242 0.917416 601.775 1.56108 601.962 2.46708C602.089 3.0794 602.002 3.67315 601.772 4.24698C601.434 5.0903 600.868 5.7535 600.142 6.27837C599.064 7.05746 597.861 7.44672 596.53 7.39758C595.904 7.37456 595.305 7.22829 594.745 6.93635C593.409 6.23987 592.835 4.83434 593.3 3.39205C593.544 2.63753 593.984 2.0107 594.568 1.48988C595.655 0.520616 596.93 0.0299848 598.377 0.000190983Z" fill="#FFDC5B"/>
</g>
<g clip-path="url(#clip8_1172_533)">
<path d="M689.131 43.3818C689.144 42.5756 688.994 41.7915 688.801 41.0153C688.593 40.1786 688.363 39.3472 688.154 38.5107C687.986 37.8411 687.875 37.1622 687.856 36.469C687.819 35.0591 688.311 33.8731 689.33 32.9112C690.186 32.1029 691.202 31.6513 692.368 31.5416C693.626 31.4234 694.804 31.7113 695.93 32.2617C697.015 32.7918 697.982 33.5399 698.77 34.4601C699.632 35.4607 700.619 36.3108 701.681 37.08C702.387 37.5908 703.1 38.0938 703.801 38.6103C704.468 39.1014 705.104 39.6297 705.647 40.2622C706.179 40.8812 706.573 41.5711 706.746 42.3793C706.824 42.7517 706.856 43.1324 706.842 43.5128C706.823 44.1603 706.732 44.7962 706.524 45.4113C706.25 46.2207 705.786 46.9062 705.177 47.4961C704.718 47.9397 704.211 48.32 703.682 48.6718C703.026 49.1082 702.362 49.5325 701.708 49.9705C700.643 50.6826 699.674 51.5062 698.831 52.4801C698.016 53.4198 697.066 54.1979 695.961 54.7702C694.962 55.2868 693.909 55.5988 692.778 55.5731C691.131 55.5356 689.81 54.8484 688.826 53.514C688.007 52.4047 687.715 51.1586 687.881 49.7917C687.98 48.9761 688.195 48.1879 688.411 47.3997C688.629 46.6051 688.85 45.8117 688.987 44.9971C689.076 44.4623 689.136 43.9251 689.131 43.3818Z" fill="#FFDC5B"/>
<path d="M668.502 26.7307C666.467 26.7297 664.596 25.2242 664.106 23.0585C663.966 22.4394 663.978 21.8172 664.065 21.1939C664.18 20.3682 664.421 19.5724 664.639 18.7713C664.844 18.0193 665.03 17.264 665.131 16.4884C665.248 15.5903 665.224 14.698 665.019 13.8185C664.818 12.9601 664.586 12.1089 664.371 11.254C664.209 10.6101 664.077 9.96159 664.029 9.29626C663.917 7.72918 664.473 6.45656 665.684 5.47917C666.611 4.73065 667.684 4.41684 668.864 4.45205C669.887 4.48243 670.837 4.78095 671.735 5.26133C672.625 5.73745 673.417 6.35016 674.074 7.11686C674.951 8.14011 675.969 8.99252 677.056 9.77142C677.733 10.2566 678.411 10.7418 679.078 11.2418C679.638 11.6616 680.159 12.1284 680.604 12.6752C681.087 13.2689 681.425 13.9315 681.552 14.6955C681.628 15.1577 681.617 15.6201 681.571 16.0835C681.477 17.0202 681.183 17.8804 680.61 18.633C680.299 19.044 679.933 19.4088 679.521 19.7164C679.038 20.0749 678.539 20.4129 678.043 20.7537C677.393 21.1987 676.73 21.6263 676.09 22.0856C675.411 22.5729 674.808 23.1496 674.258 23.7828C673.475 24.6829 672.577 25.4395 671.516 25.9884C670.622 26.4504 669.678 26.7233 668.502 26.7307Z" fill="#FFDC5B"/>
<path d="M712.758 44.9378C714.355 44.9817 715.956 45.4958 717.325 46.6523C717.95 47.181 718.444 47.816 718.748 48.5889C719.293 49.977 718.942 51.4193 717.82 52.3909C717.221 52.9096 716.524 53.2288 715.763 53.4205C713.529 53.9841 710.845 53.2783 709.188 51.688C708.634 51.1568 708.187 50.5481 707.947 49.8093C707.503 48.4452 707.795 47.2534 708.823 46.2605C709.433 45.6712 710.182 45.3334 710.994 45.1295C711.517 44.9978 712.05 44.9424 712.758 44.9378Z" fill="#FFDC5B"/>
<path d="M712.951 42.2622C711.766 42.2461 710.766 42.0461 709.844 41.5284C709.194 41.1635 708.654 40.6802 708.299 40.0116C707.811 39.0919 707.802 38.1481 708.203 37.1974C708.518 36.4493 709.029 35.8542 709.659 35.3582C710.554 34.6524 711.573 34.2289 712.685 34.0244C713.724 33.8331 714.758 33.8536 715.78 34.1405C716.58 34.3649 717.306 34.7307 717.902 35.3268C718.968 36.3928 719.195 37.8515 718.507 39.1987C718.095 40.005 717.478 40.6202 716.732 41.1107C715.828 41.7054 714.833 42.0538 713.766 42.1898C713.449 42.2297 713.129 42.2467 712.951 42.2622Z" fill="#FFDC5B"/>
<path d="M688.184 24.9096C686.775 24.8728 685.326 24.4128 684.076 23.3924C683.439 22.8732 682.939 22.2434 682.65 21.4616C682.163 20.1422 682.548 18.7928 683.654 17.9121C684.306 17.3921 685.058 17.0906 685.872 16.969C687.776 16.6844 689.516 17.1141 691.067 18.2652C691.764 18.7821 692.307 19.4347 692.631 20.2548C693.134 21.5274 692.823 22.8457 691.802 23.7523C691.197 24.2897 690.481 24.5985 689.701 24.7713C689.262 24.8694 688.818 24.9084 688.184 24.9096Z" fill="#FFDC5B"/>
<path d="M687.276 14.3982C686.179 14.3854 685.267 14.2026 684.421 13.7404C684.116 13.5759 683.834 13.3715 683.583 13.1325C682.545 12.1391 682.314 10.755 682.974 9.47387C683.323 8.7948 683.835 8.26219 684.45 7.8265C685.244 7.26545 686.126 6.92205 687.078 6.75915C688.135 6.57787 689.179 6.62372 690.2 6.97718C690.85 7.2018 691.435 7.53824 691.914 8.04125C692.493 8.65144 692.795 9.3752 692.767 10.2274C692.751 10.7059 692.618 11.1537 692.4 11.5769C692.07 12.2197 691.592 12.7334 691.016 13.1567C690.141 13.8007 689.156 14.1716 688.087 14.3229C687.772 14.368 687.452 14.3825 687.276 14.3982Z" fill="#FFDC5B"/>
<path d="M704.743 52.6825C706.848 52.8019 708.554 53.6667 709.768 55.4346C710.129 55.9617 710.365 56.5655 710.459 57.1994C710.667 58.5617 710.059 59.8191 708.863 60.4831C708.322 60.7835 707.738 60.942 707.126 60.9861C704.901 61.1459 702.815 59.9313 701.759 58.3936C701.337 57.7803 701.042 57.1152 700.967 56.3657C700.835 55.0405 701.325 54.0104 702.436 53.2923C702.979 52.9414 703.588 52.7742 704.226 52.7131C704.398 52.696 704.571 52.6922 704.743 52.6825Z" fill="#FFDC5B"/>
<path d="M704.949 34.7125C704.101 34.7007 703.364 34.5671 702.682 34.2049C701.791 33.7317 701.196 33.0214 700.997 32.0077C700.873 31.376 700.962 30.7633 701.19 30.1688C701.509 29.3357 702.042 28.6597 702.73 28.1107C703.932 27.1534 705.301 26.674 706.837 26.7189C707.522 26.7382 708.179 26.8915 708.789 27.2153C709.667 27.6814 710.261 28.379 710.467 29.3746C710.61 30.0655 710.502 30.7329 710.231 31.377C709.931 32.0909 709.471 32.6875 708.889 33.1859C707.728 34.1772 706.381 34.674 704.949 34.7125Z" fill="#FFDC5B"/>
<path d="M679.651 24.0427C681.718 24.1781 683.375 25.0398 684.473 26.8617C684.824 27.4436 685.007 28.0871 684.988 28.777C684.961 29.8084 684.506 30.6021 683.655 31.1644C683.139 31.5061 682.541 31.7016 681.924 31.7306C679.864 31.8368 678.206 31.0365 676.945 29.4009C676.56 28.902 676.315 28.3295 676.196 27.7038C675.92 26.2468 676.633 24.9204 678.035 24.3512C678.515 24.1564 679.09 24.05 679.651 24.0427Z" fill="#FFDC5B"/>
<path d="M681.377 0.000190983C682.106 -0.00483912 682.802 0.135618 683.447 0.485599C684.242 0.917416 684.775 1.56108 684.962 2.46708C685.089 3.0794 685.002 3.67315 684.772 4.24698C684.434 5.0903 683.868 5.7535 683.142 6.27837C682.064 7.05746 680.861 7.44672 679.53 7.39758C678.904 7.37456 678.305 7.22829 677.745 6.93635C676.409 6.23987 675.835 4.83434 676.3 3.39205C676.544 2.63753 676.984 2.0107 677.568 1.48988C678.655 0.520616 679.93 0.0299848 681.377 0.000190983Z" fill="#FFDC5B"/>
</g>
<g clip-path="url(#clip9_1172_533)">
<path d="M777.131 43.3818C777.144 42.5756 776.994 41.7915 776.801 41.0153C776.593 40.1786 776.363 39.3472 776.154 38.5107C775.986 37.8411 775.875 37.1622 775.856 36.469C775.819 35.0591 776.311 33.8731 777.33 32.9112C778.186 32.1029 779.202 31.6513 780.368 31.5416C781.626 31.4234 782.804 31.7113 783.93 32.2617C785.015 32.7918 785.982 33.5399 786.77 34.4601C787.632 35.4607 788.619 36.3108 789.681 37.08C790.387 37.5908 791.1 38.0938 791.801 38.6103C792.468 39.1014 793.104 39.6297 793.647 40.2622C794.179 40.8812 794.573 41.5711 794.746 42.3793C794.824 42.7517 794.856 43.1324 794.842 43.5128C794.823 44.1603 794.732 44.7962 794.524 45.4113C794.25 46.2207 793.786 46.9062 793.177 47.4961C792.718 47.9397 792.211 48.32 791.682 48.6718C791.026 49.1082 790.362 49.5325 789.708 49.9705C788.643 50.6826 787.674 51.5062 786.831 52.4801C786.016 53.4198 785.066 54.1979 783.961 54.7702C782.962 55.2868 781.909 55.5988 780.778 55.5731C779.131 55.5356 777.81 54.8484 776.826 53.514C776.007 52.4047 775.715 51.1586 775.881 49.7917C775.98 48.9761 776.195 48.1879 776.411 47.3997C776.629 46.6051 776.85 45.8117 776.987 44.9971C777.076 44.4623 777.136 43.9251 777.131 43.3818Z" fill="#FFDC5B"/>
<path d="M756.502 26.7307C754.467 26.7297 752.596 25.2242 752.106 23.0585C751.966 22.4394 751.978 21.8172 752.065 21.1939C752.18 20.3682 752.421 19.5724 752.639 18.7713C752.844 18.0193 753.03 17.264 753.131 16.4884C753.248 15.5903 753.224 14.698 753.019 13.8185C752.818 12.9601 752.586 12.1089 752.371 11.254C752.209 10.6101 752.077 9.96159 752.029 9.29626C751.917 7.72918 752.473 6.45656 753.684 5.47917C754.611 4.73065 755.684 4.41684 756.864 4.45205C757.887 4.48243 758.837 4.78095 759.735 5.26133C760.625 5.73745 761.417 6.35016 762.074 7.11686C762.951 8.14011 763.969 8.99252 765.056 9.77142C765.733 10.2566 766.411 10.7418 767.078 11.2418C767.638 11.6616 768.159 12.1284 768.604 12.6752C769.087 13.2689 769.425 13.9315 769.552 14.6955C769.628 15.1577 769.617 15.6201 769.571 16.0835C769.477 17.0202 769.183 17.8804 768.61 18.633C768.299 19.044 767.933 19.4088 767.521 19.7164C767.038 20.0749 766.539 20.4129 766.043 20.7537C765.393 21.1987 764.73 21.6263 764.09 22.0856C763.411 22.5729 762.808 23.1496 762.258 23.7828C761.475 24.6829 760.577 25.4395 759.516 25.9884C758.622 26.4504 757.678 26.7233 756.502 26.7307Z" fill="#FFDC5B"/>
<path d="M800.758 44.9378C802.355 44.9817 803.956 45.4958 805.325 46.6523C805.95 47.181 806.444 47.816 806.748 48.5889C807.293 49.977 806.942 51.4193 805.82 52.3909C805.221 52.9096 804.524 53.2288 803.763 53.4205C801.529 53.9841 798.845 53.2783 797.188 51.688C796.634 51.1568 796.187 50.5481 795.947 49.8093C795.503 48.4452 795.795 47.2534 796.823 46.2605C797.433 45.6712 798.182 45.3334 798.994 45.1295C799.517 44.9978 800.05 44.9424 800.758 44.9378Z" fill="#FFDC5B"/>
<path d="M800.951 42.2622C799.766 42.2461 798.766 42.0461 797.844 41.5284C797.194 41.1635 796.654 40.6802 796.299 40.0116C795.811 39.0919 795.802 38.1481 796.203 37.1974C796.518 36.4493 797.029 35.8542 797.659 35.3582C798.554 34.6524 799.573 34.2289 800.685 34.0244C801.724 33.8331 802.758 33.8536 803.78 34.1405C804.58 34.3649 805.306 34.7307 805.902 35.3268C806.968 36.3928 807.195 37.8515 806.507 39.1987C806.095 40.005 805.478 40.6202 804.732 41.1107C803.828 41.7054 802.833 42.0538 801.766 42.1898C801.449 42.2297 801.129 42.2467 800.951 42.2622Z" fill="#FFDC5B"/>
<path d="M776.184 24.9096C774.775 24.8728 773.326 24.4128 772.076 23.3924C771.439 22.8732 770.939 22.2434 770.65 21.4616C770.163 20.1422 770.548 18.7928 771.654 17.9121C772.306 17.3921 773.058 17.0906 773.872 16.969C775.776 16.6844 777.516 17.1141 779.067 18.2652C779.764 18.7821 780.307 19.4347 780.631 20.2548C781.134 21.5274 780.823 22.8457 779.802 23.7523C779.197 24.2897 778.481 24.5985 777.701 24.7713C777.262 24.8694 776.818 24.9084 776.184 24.9096Z" fill="#FFDC5B"/>
<path d="M775.276 14.3982C774.179 14.3854 773.267 14.2026 772.421 13.7404C772.116 13.5759 771.834 13.3715 771.583 13.1325C770.545 12.1391 770.314 10.755 770.974 9.47387C771.323 8.7948 771.835 8.26219 772.45 7.8265C773.244 7.26545 774.126 6.92205 775.078 6.75915C776.135 6.57787 777.179 6.62372 778.2 6.97718C778.85 7.2018 779.435 7.53824 779.914 8.04125C780.493 8.65144 780.795 9.3752 780.767 10.2274C780.751 10.7059 780.618 11.1537 780.4 11.5769C780.07 12.2197 779.592 12.7334 779.016 13.1567C778.141 13.8007 777.156 14.1716 776.087 14.3229C775.772 14.368 775.452 14.3825 775.276 14.3982Z" fill="#FFDC5B"/>
<path d="M792.743 52.6825C794.848 52.8019 796.554 53.6667 797.768 55.4346C798.129 55.9617 798.365 56.5655 798.459 57.1994C798.667 58.5617 798.059 59.8191 796.863 60.4831C796.322 60.7835 795.738 60.942 795.126 60.9861C792.901 61.1459 790.815 59.9313 789.759 58.3936C789.337 57.7803 789.042 57.1152 788.967 56.3657C788.835 55.0405 789.325 54.0104 790.436 53.2923C790.979 52.9414 791.588 52.7742 792.226 52.7131C792.398 52.696 792.571 52.6922 792.743 52.6825Z" fill="#FFDC5B"/>
<path d="M792.949 34.7125C792.101 34.7007 791.364 34.5671 790.682 34.2049C789.791 33.7317 789.196 33.0214 788.997 32.0077C788.873 31.376 788.962 30.7633 789.19 30.1688C789.509 29.3357 790.042 28.6597 790.73 28.1107C791.932 27.1534 793.301 26.674 794.837 26.7189C795.522 26.7382 796.179 26.8915 796.789 27.2153C797.667 27.6814 798.261 28.379 798.467 29.3746C798.61 30.0655 798.502 30.7329 798.231 31.377C797.931 32.0909 797.471 32.6875 796.889 33.1859C795.728 34.1772 794.381 34.674 792.949 34.7125Z" fill="#FFDC5B"/>
<path d="M767.651 24.0427C769.718 24.1781 771.375 25.0398 772.473 26.8617C772.824 27.4436 773.007 28.0871 772.988 28.777C772.961 29.8084 772.506 30.6021 771.655 31.1644C771.139 31.5061 770.541 31.7016 769.924 31.7306C767.864 31.8368 766.206 31.0365 764.945 29.4009C764.56 28.902 764.315 28.3295 764.196 27.7038C763.92 26.2468 764.633 24.9204 766.035 24.3512C766.515 24.1564 767.09 24.05 767.651 24.0427Z" fill="#FFDC5B"/>
<path d="M769.377 0.000190983C770.106 -0.00483912 770.802 0.135618 771.447 0.485599C772.242 0.917416 772.775 1.56108 772.962 2.46708C773.089 3.0794 773.002 3.67315 772.772 4.24698C772.434 5.0903 771.868 5.7535 771.142 6.27837C770.064 7.05746 768.861 7.44672 767.53 7.39758C766.904 7.37456 766.305 7.22829 765.745 6.93635C764.409 6.23987 763.835 4.83434 764.3 3.39205C764.544 2.63753 764.984 2.0107 765.568 1.48988C766.655 0.520616 767.93 0.0299848 769.377 0.000190983Z" fill="#FFDC5B"/>
</g>
<defs>
<clipPath id="clip0_1172_533">
<rect width="61" height="55" fill="white" transform="translate(55) rotate(90)"/>
</clipPath>
<clipPath id="clip1_1172_533">
<rect width="61" height="55" fill="white" transform="translate(138) rotate(90)"/>
</clipPath>
<clipPath id="clip2_1172_533">
<rect width="61" height="55" fill="white" transform="translate(221) rotate(90)"/>
</clipPath>
<clipPath id="clip3_1172_533">
<rect width="61" height="55" fill="white" transform="translate(304) rotate(90)"/>
</clipPath>
<clipPath id="clip4_1172_533">
<rect width="61" height="55" fill="white" transform="translate(387) rotate(90)"/>
</clipPath>
<clipPath id="clip5_1172_533">
<rect width="61" height="55" fill="white" transform="translate(470) rotate(90)"/>
</clipPath>
<clipPath id="clip6_1172_533">
<rect width="61" height="55" fill="white" transform="translate(553) rotate(90)"/>
</clipPath>
<clipPath id="clip7_1172_533">
<rect width="61" height="55" fill="white" transform="translate(636) rotate(90)"/>
</clipPath>
<clipPath id="clip8_1172_533">
<rect width="61" height="55" fill="white" transform="translate(719) rotate(90)"/>
</clipPath>
<clipPath id="clip9_1172_533">
<rect width="61" height="55" fill="white" transform="translate(807) rotate(90)"/>
</clipPath>
</defs>
</svg>
