<svg width="124" height="40" viewBox="0 0 124 40" fill="none" xmlns="http://www.w3.org/2000/svg">
<rect width="124" height="40" rx="20" fill="#FFE6DB"/>
<path d="M17 21.6719H18.9688C18.9688 22.2552 19.1979 22.724 19.6562 23.0781C20.1146 23.4323 20.8073 23.6094 21.7344 23.6094C22.5677 23.6094 23.2031 23.4531 23.6406 23.1406C24.0781 22.8281 24.2969 22.401 24.2969 21.8594C24.2969 20.901 23.4323 20.4219 21.7031 20.4219H20.6562V18.7969H21.5938C22.3542 18.776 22.9219 18.6562 23.2969 18.4375C23.6719 18.2188 23.8594 17.8646 23.8594 17.375C23.8594 16.8958 23.6354 16.5156 23.1875 16.2344C22.75 15.9531 22.1667 15.8125 21.4375 15.8125C20.6979 15.8125 20.1354 15.9896 19.75 16.3438C19.375 16.6979 19.1875 17.1406 19.1875 17.6719H17.2188C17.2188 17.2552 17.2969 16.8542 17.4531 16.4688C17.6198 16.0729 17.8646 15.7031 18.1875 15.3594C18.5104 15.0156 18.9479 14.7396 19.5 14.5312C20.0625 14.3229 20.7083 14.2188 21.4375 14.2188C22.8333 14.2188 23.9167 14.5156 24.6875 15.1094C25.4583 15.7031 25.8438 16.4062 25.8438 17.2188C25.8438 18.4271 25.2031 19.2135 23.9219 19.5781C25.4948 19.9531 26.2812 20.7656 26.2812 22.0156C26.2812 22.901 25.8802 23.6562 25.0781 24.2812C24.276 24.8958 23.1615 25.2031 21.7344 25.2031C20.8802 25.2031 20.1354 25.099 19.5 24.8906C18.8646 24.6823 18.3698 24.4062 18.0156 24.0625C17.6719 23.7083 17.4167 23.3333 17.25 22.9375C17.0833 22.5417 17 22.1198 17 21.6719ZM29.9844 19.1719C29.6198 19.6198 29.4375 20.2448 29.4375 21.0469C29.4375 21.849 29.6198 22.4896 29.9844 22.9688C30.3594 23.4479 30.8385 23.6875 31.4219 23.6875C31.9948 23.6875 32.4583 23.4531 32.8125 22.9844C33.1667 22.5052 33.3438 21.8594 33.3438 21.0469V20.9219C33.3229 20.151 33.1354 19.5573 32.7812 19.1406C32.4375 18.7135 31.9844 18.5 31.4219 18.5C30.8385 18.5 30.3594 18.724 29.9844 19.1719ZM27.5312 21.0469C27.5312 19.849 27.8594 18.875 28.5156 18.125C29.1719 17.3646 30.0208 16.9844 31.0625 16.9844C32.0938 16.9844 32.8958 17.4479 33.4688 18.375L33.7812 17.1875H35.2031V25H33.7812L33.4219 23.7969C32.8594 24.7344 32.0729 25.2031 31.0625 25.2031C30.0312 25.2031 29.1823 24.8125 28.5156 24.0312C27.8594 23.25 27.5312 22.2552 27.5312 21.0469ZM39.375 23.4531H42.3281V18.7344H39.9219V19.3438C39.9219 20.7083 39.7396 22.0781 39.375 23.4531ZM36.5469 23.4531H37.5625C37.9062 21.9427 38.0885 20.5 38.1094 19.125V17.1875H44.1406V23.4531H45.3906V27.7656H43.5781V25H38.3594V27.7656H36.5469V23.4531ZM48.7656 19.1875C48.401 19.6458 48.2188 20.2656 48.2188 21.0469C48.2188 21.8281 48.401 22.4635 48.7656 22.9531C49.1302 23.4427 49.6302 23.6875 50.2656 23.6875C50.901 23.6875 51.401 23.4427 51.7656 22.9531C52.1302 22.4635 52.3125 21.8281 52.3125 21.0469C52.3125 20.2656 52.1302 19.6458 51.7656 19.1875C51.401 18.7292 50.901 18.5 50.2656 18.5C49.6302 18.5 49.1302 18.7292 48.7656 19.1875ZM46.3281 21.0469C46.3281 19.849 46.6927 18.875 47.4219 18.125C48.151 17.3646 49.099 16.9844 50.2656 16.9844C51.4323 16.9844 52.3802 17.3646 53.1094 18.125C53.8385 18.875 54.2031 19.849 54.2031 21.0469C54.2031 22.2552 53.8333 23.25 53.0938 24.0312C52.3646 24.8125 51.4219 25.2031 50.2656 25.2031C49.1094 25.2031 48.1615 24.8125 47.4219 24.0312C46.6927 23.25 46.3281 22.2552 46.3281 21.0469ZM55.9219 25V17.1875H57.7344V20.125H61.2031V17.1875H63.0156V25H61.2031V21.6719H57.7344V25H55.9219ZM67.1875 19.1719C66.8229 19.6198 66.6406 20.2448 66.6406 21.0469C66.6406 21.849 66.8229 22.4896 67.1875 22.9688C67.5625 23.4479 68.0417 23.6875 68.625 23.6875C69.1979 23.6875 69.6615 23.4531 70.0156 22.9844C70.3698 22.5052 70.5469 21.8594 70.5469 21.0469V20.9219C70.526 20.151 70.3385 19.5573 69.9844 19.1406C69.6406 18.7135 69.1875 18.5 68.625 18.5C68.0417 18.5 67.5625 18.724 67.1875 19.1719ZM64.7344 21.0469C64.7344 19.849 65.0625 18.875 65.7188 18.125C66.375 17.3646 67.224 16.9844 68.2656 16.9844C69.2969 16.9844 70.099 17.4479 70.6719 18.375L70.9844 17.1875H72.4062V25H70.9844L70.625 23.7969C70.0625 24.7344 69.276 25.2031 68.2656 25.2031C67.2344 25.2031 66.3854 24.8125 65.7188 24.0312C65.0625 23.25 64.7344 22.2552 64.7344 21.0469ZM73.8125 18.7344V17.1875H80.875V18.7344H78.25V25H76.4375V18.7344H73.8125ZM82.2812 25V17.1875H84.0938V22.4062L87.5312 17.1875H89.4688V25H87.6562V19.7969L84.2188 25H82.2812ZM90.875 18.7344V17.1875H97.9375V18.7344H95.3125V25H93.5V18.7344H90.875ZM99.3438 25V17.1875H101.156V22.4062L104.594 17.1875H106.531V25H104.719V19.7969L101.281 25H99.3438Z" fill="#FF5631"/>
</svg>
