<svg width="223" height="20" viewBox="0 0 223 20" fill="none" xmlns="http://www.w3.org/2000/svg">
<path d="M4.47086 0.705184H4.73385C6.19909 0.705184 8.39069 0.924046 11.3086 1.36177C12.6674 1.72426 13.6317 2.31245 14.2015 3.12635C14.6023 3.79662 14.8027 4.46688 14.8027 5.13715V5.26026C14.8027 6.15623 14.5647 7.03168 14.0888 7.88661C15.8672 8.79626 16.7563 10.2189 16.7563 12.1544V12.2775C16.7563 15.068 14.6524 17.1062 10.4445 18.392C8.00872 19.0212 6.03002 19.3359 4.50843 19.3359C3.5316 19.3359 2.81777 19.1717 2.36692 18.8434C1.89104 18.2894 1.65309 17.9611 1.65309 17.8585C0.576077 8.79626 0.0250468 4.00864 0 3.49568C0 2.59287 0.47589 1.85421 1.42767 1.2797C2.11019 0.896688 3.12459 0.705184 4.47086 0.705184ZM4.02001 4.973C4.22039 6.88805 4.34562 7.84557 4.39572 7.84557C5.63553 7.59935 6.87535 7.39417 8.11517 7.23002C9.66181 6.63499 10.5635 6.08783 10.8202 5.58855C10.8202 5.44492 8.91667 5.21238 5.10955 4.89093H4.09516L4.02001 4.973ZM4.88413 12.2775L5.22226 15.068C6.64367 15.068 8.54723 14.6577 10.9329 13.8369C12.2604 13.2214 12.9242 12.6332 12.9242 12.0724C12.8052 11.703 12.0914 11.4705 10.7827 11.3747L10.2942 11.3337C9.1233 11.3337 8.10891 11.4978 7.25105 11.8261L4.88413 12.2775Z" fill="#FFDC5B"/>
<path d="M26.4995 0.62311L30.2941 1.15659C30.0186 3.82397 29.7055 5.84845 29.3549 7.23002C28.9541 8.70734 28.4782 9.95212 27.9272 10.9644C27.3323 11.7988 26.9065 12.2775 26.6498 12.4006L26.5371 12.5648V19.1307H22.7049V12.7289C21.0018 11.6209 19.5741 9.17243 18.4219 5.38337C18.1965 4.7131 17.9085 3.68719 17.5578 2.30562L21.2397 1.11555V1.15659C22.1539 4.70626 23.0431 7.10007 23.9072 8.33801L24.4707 8.95356H24.5083C24.9028 8.33801 25.2535 7.51728 25.5603 6.49136C25.936 4.96616 26.2491 3.01008 26.4995 0.62311Z" fill="#FFDC5B"/>
<path d="M42.6297 0.5H42.6673C44.9778 0.5 46.4806 1.56695 47.1757 3.70086C47.3009 4.13859 47.3635 4.50792 47.3635 4.80886L47.2133 7.23002L43.3811 6.94276L43.4938 4.89093C43.3247 4.75414 43.0492 4.68575 42.6673 4.68575C41.202 4.77466 40.2753 4.87041 39.8871 4.973C39.2546 5.12347 38.6159 5.39705 37.971 5.79374C35.9422 7.37365 34.9278 9.37077 34.9278 11.7851C34.9278 13.3992 35.5039 14.4935 36.656 15.068C37.0881 15.2322 37.5139 15.3143 37.9334 15.3143H38.6848C41.5965 15.3143 44.0135 14.3157 45.9359 12.3186L46.5746 11.7851L48.9791 14.986C47.1381 16.8258 45.5226 17.9748 44.1325 18.433C42.4919 19.1443 40.7387 19.5 38.8727 19.5H37.7831C35.5602 19.5 33.7569 18.5014 32.373 16.5043C31.5214 15.0749 31.0956 13.5702 31.0956 11.9903V11.6209C31.0956 9.06299 31.9472 6.64183 33.6504 4.35745C34.5646 3.31102 35.4162 2.545 36.2052 2.0594C37.8019 1.07451 39.6303 0.582073 41.6904 0.582073L42.6297 0.5Z" fill="#FFDC5B"/>
<path d="M58.4217 0.5H58.572C60.7072 0.5 62.8487 1.52592 64.9965 3.57775C66.8249 5.54068 67.7391 7.56515 67.7391 9.65119C67.7391 12.1886 66.4993 14.6235 64.0197 16.9557C61.9846 18.6519 60.031 19.5 58.1587 19.5H57.783C55.748 19.5 53.7567 18.3783 51.8093 16.135C50.4568 14.3499 49.7806 12.5169 49.7806 10.6361C49.7806 8.65263 50.5069 6.55976 51.9596 4.35745C53.9321 1.78582 56.0861 0.5 58.4217 0.5ZM53.6503 10.6361V10.7592C53.6503 12.0655 54.4518 13.365 56.0548 14.6577C56.8062 15.0954 57.4198 15.3143 57.8957 15.3143C59.1481 15.3143 60.438 14.7261 61.7655 13.5497C63.1931 12.1134 63.907 10.8139 63.907 9.65119C63.907 8.57055 63.2057 7.39417 61.803 6.12203C60.6008 5.16451 59.4737 4.68575 58.4217 4.68575C57.376 4.68575 56.299 5.35601 55.1907 6.69654C54.1638 8.09863 53.6503 9.41181 53.6503 10.6361Z" fill="#FFDC5B"/>
<path d="M71.739 15.0444C72.5523 14.8678 73.1977 14.521 73.6753 14.0041C73.9335 13.6574 74.0626 13.2648 74.0626 12.8264V1.08884L74.14 1.01033H77.974L77.9933 1.02996C80.2975 0.918733 83.1633 0.781336 86.5906 0.617769L86.6293 0.657025L86.1646 18.3812L86.1259 18.4205L85.816 18.3812L82.2145 18.3027L82.1758 18.2634V18.2242L82.4856 4.97521L82.5243 4.85744L78.0514 5.09298V11.9236C78.0514 13.8929 77.7158 15.28 77.0445 16.0847C76.767 16.6539 76.1345 17.282 75.1469 17.969C74.4628 18.3616 73.7302 18.6593 72.9492 18.8621L71.739 15.0444Z" fill="#FF5631"/>
<path d="M94.1164 0.5H98.9572C98.9765 0.624311 100.345 3.47693 103.062 9.05785L103.759 8.97934V9.0186C103.992 10.8244 104.185 11.7273 104.34 11.7273L106.935 17.1839H106.896L103.372 18.9112L100.777 13.4938C95.8333 14.2528 93.2257 14.6715 92.9546 14.75L91.1345 19.5H91.057L87.4555 18.0475L89.9727 11.3347L89.9339 11.1384C90.0824 11.1384 90.2244 10.8767 90.3599 10.3533L94.1164 0.5ZM96.6336 5.01446L94.6198 10.3926H94.6586L98.9572 9.72521L96.7111 5.01446H96.6336Z" fill="#FF5631"/>
<path d="M123.406 0.617769L123.445 0.657025L122.98 18.3714L122.942 18.4106L122.632 18.3714L119.03 18.3027L118.992 18.2634V18.2242L119.301 4.96539L119.34 4.84762L111.866 5.24019L112.205 18.1849L112.166 18.2242H112.127L108.255 18.3027L108.187 18.1457L107.761 1.43233C107.761 1.36691 112.976 1.09539 123.406 0.617769Z" fill="#FF5631"/>
<path d="M133.178 0.617769H133.333C135.534 0.617769 137.742 1.59917 139.955 3.56198C141.84 5.43974 142.782 7.37638 142.782 9.3719C142.782 11.7992 141.505 14.1284 138.949 16.3595C136.851 17.9821 134.837 18.7934 132.907 18.7934H132.52C130.422 18.7934 128.37 17.7204 126.363 15.5744C124.968 13.8667 124.271 12.1133 124.271 10.314C124.271 8.41667 125.02 6.4146 126.517 4.30785C128.551 1.8478 130.771 0.617769 133.178 0.617769ZM128.26 10.314V10.4318C128.26 11.6815 129.086 12.9246 130.739 14.1612C131.513 14.5799 132.146 14.7893 132.636 14.7893C133.927 14.7893 135.257 14.2266 136.625 13.1012C138.097 11.7273 138.832 10.4842 138.832 9.3719C138.832 8.33815 138.11 7.21281 136.664 5.99587C135.424 5.07989 134.263 4.6219 133.178 4.6219C132.1 4.6219 130.99 5.26309 129.848 6.54545C128.789 7.88671 128.26 9.14291 128.26 10.314Z" fill="#FF5631"/>
<path d="M158.325 0.5C160.313 1.76538 161.407 2.48479 161.606 2.65822L157.283 9.32556L163.498 15.1065L160.834 17.997L155.082 12.6785L151.763 17.5345C151.28 18.119 150.675 18.7742 149.948 19.5L147.092 16.8408C148.295 15.5625 149.041 14.6504 149.331 14.1045L152.149 9.94219L146.783 4.93205C148.16 3.40331 149.047 2.45267 149.446 2.08012L154.349 6.58925L158.325 0.5Z" fill="#54B876"/>
<path d="M168.915 1.23225H169.186C170.691 1.23225 172.943 1.4378 175.941 1.84888C177.337 2.18932 178.328 2.74172 178.914 3.50609C179.325 4.13556 179.531 4.76504 179.531 5.39452V5.51014C179.531 6.35159 179.287 7.17377 178.798 7.97667C180.625 8.83097 181.539 10.167 181.539 11.9848V12.1004C181.539 14.7211 179.377 16.6352 175.053 17.8428C172.551 18.4337 170.517 18.7292 168.954 18.7292C167.95 18.7292 167.217 18.5751 166.754 18.2667C166.265 17.7465 166.02 17.4381 166.02 17.3418C164.913 8.83097 164.347 4.33469 164.322 3.85294C164.322 3.00507 164.811 2.31136 165.789 1.77181C166.49 1.4121 167.532 1.23225 168.915 1.23225ZM168.452 5.24037C168.658 7.03888 168.787 7.93813 168.838 7.93813C170.112 7.7069 171.386 7.5142 172.66 7.36004C174.249 6.80122 175.176 6.28736 175.439 5.81846C175.439 5.68357 173.483 5.46518 169.572 5.16329H168.529L168.452 5.24037ZM169.34 12.1004L169.687 14.7211C171.148 14.7211 173.104 14.3357 175.555 13.5649C176.919 12.9868 177.601 12.4344 177.601 11.9077C177.479 11.5609 176.745 11.3425 175.401 11.2525L174.899 11.214C173.696 11.214 172.654 11.3682 171.772 11.6765L169.34 12.1004Z" fill="#54B876"/>
<path d="M182.941 1.42495L183.25 1.46349L186.879 1.57911L186.3 18.498L182.478 18.3824L182.362 18.3438L182.941 1.42495Z" fill="#54B876"/>
<path d="M199.554 1.03955H199.592C201.966 1.03955 203.511 2.04158 204.225 4.04564C204.353 4.45673 204.418 4.80358 204.418 5.08621L204.263 7.36004L200.326 7.09026L200.442 5.16329C200.268 5.03482 199.985 4.97059 199.592 4.97059C198.087 5.05409 197.135 5.14402 196.736 5.24037C196.086 5.38168 195.43 5.63861 194.767 6.01116C192.682 7.49493 191.64 9.37052 191.64 11.6379C191.64 13.1538 192.232 14.1815 193.416 14.7211C193.86 14.8753 194.297 14.9523 194.728 14.9523H195.5C198.492 14.9523 200.976 14.0145 202.951 12.1389L203.607 11.6379L206.078 14.644C204.186 16.3719 202.526 17.451 201.098 17.8813C199.412 18.5494 197.611 18.8834 195.693 18.8834H194.574C192.29 18.8834 190.437 17.9456 189.015 16.07C188.14 14.7275 187.702 13.3144 187.702 11.8306V11.4838C187.702 9.08147 188.577 6.80764 190.327 4.66227C191.267 3.67951 192.142 2.96011 192.953 2.50406C194.593 1.57911 196.472 1.11663 198.589 1.11663L199.554 1.03955Z" fill="#54B876"/>
<path d="M221.571 1.27079L221.957 5.20183L216.321 5.93408L216.707 18.6136L212.769 18.7292L212.383 5.93408L207.21 6.31947V6.28093L206.901 2.42698L221.571 1.27079Z" fill="#54B876"/>
</svg>
