<svg width="322" height="90" viewBox="0 0 322 90" fill="none" xmlns="http://www.w3.org/2000/svg">
<g clip-path="url(#clip0_805_1914)">
<path d="M16.7336 0C16.7336 0 5.43758 0 2.55929 0C-0.319004 0 -0.984252 2.89396 1.67344 5.78791C4.33112 8.68187 16.7336 22 16.7336 22V0Z" fill="#FCFCFC"/>
</g>
<path d="M15 0H306C314.837 0 322 7.16344 322 16V74C322 82.8366 314.837 90 306 90H31C22.1635 90 15 82.8366 15 74V0Z" fill="#FCFCFC"/>
<path d="M40.6406 37V21.1328H42.75L48.0703 30.2031L53.4141 21.1328H55.5234V37H53.5312V24.2031L48.75 32.5469H47.3672L42.6328 24.3672V37H40.6406ZM58.8047 37V25.2812H60.6797V37H58.8047ZM58.7812 23.2188C58.5312 22.9688 58.4062 22.6406 58.4062 22.2344C58.4062 21.8281 58.5312 21.5078 58.7812 21.2734C59.0312 21.0234 59.3516 20.8984 59.7422 20.8984C60.1328 20.8984 60.4531 21.0234 60.7031 21.2734C60.9531 21.5078 61.0781 21.8281 61.0781 22.2344C61.0781 22.6406 60.9531 22.9688 60.7031 23.2188C60.4531 23.4531 60.1328 23.5703 59.7422 23.5703C59.3516 23.5703 59.0312 23.4531 58.7812 23.2188ZM63.2578 31.0703C63.2578 29.1953 63.7656 27.7266 64.7812 26.6641C65.7969 25.5859 67.125 25.0469 68.7656 25.0469C70.3906 25.0469 71.625 25.6016 72.4688 26.7109C73.0156 27.4453 73.2891 28.2812 73.2891 29.2188H71.2969C71.2969 28.5312 71.1172 27.9766 70.7578 27.5547C70.2891 26.9766 69.5859 26.6875 68.6484 26.6875C67.6797 26.6875 66.875 27.0781 66.2344 27.8594C65.5938 28.625 65.2734 29.6953 65.2734 31.0703C65.2734 32.4609 65.5938 33.5625 66.2344 34.375C66.8906 35.1875 67.6953 35.5938 68.6484 35.5938C69.5859 35.5938 70.2969 35.2969 70.7812 34.7031C71.1562 34.2344 71.3438 33.6719 71.3438 33.0156H73.3359C73.3359 34.0469 73.0703 34.9062 72.5391 35.5938C71.6953 36.6875 70.4375 37.2344 68.7656 37.2344C67.1406 37.2344 65.8125 36.6797 64.7812 35.5703C63.7656 34.4609 63.2578 32.9609 63.2578 31.0703ZM74.2734 27.0391V25.2812H84.5859V27.0391H80.3672V37H78.4922V27.0391H74.2734ZM87.6328 29.7344H94.2422C94.2109 28.8438 93.9375 28.1172 93.4219 27.5547C92.9219 26.9766 92.1328 26.6875 91.0547 26.6875C90.0234 26.6875 89.2031 26.9844 88.5938 27.5781C87.9844 28.1719 87.6641 28.8906 87.6328 29.7344ZM87.0469 35.5234C86.0312 34.3828 85.5234 32.8984 85.5234 31.0703C85.5234 29.2422 86.0156 27.7812 87 26.6875C87.9844 25.5938 89.3359 25.0469 91.0547 25.0469C92.7266 25.0469 94.0156 25.5547 94.9219 26.5703C95.8281 27.5859 96.2812 28.9062 96.2812 30.5312V31.2578H87.5391C87.5703 32.6328 87.8984 33.7031 88.5234 34.4688C89.1641 35.2188 90.0391 35.5938 91.1484 35.5938C92.3047 35.5938 93.1328 35.2656 93.6328 34.6094C93.9297 34.2031 94.0781 33.7891 94.0781 33.3672H96.0703C96.0703 34.0547 95.8281 34.7422 95.3438 35.4297C94.5 36.6328 93.1016 37.2344 91.1484 37.2344C89.4297 37.2344 88.0625 36.6641 87.0469 35.5234ZM100.734 31.0703C100.734 32.3672 101.008 33.4453 101.555 34.3047C102.117 35.1641 102.945 35.5938 104.039 35.5938C105.023 35.5938 105.836 35.1719 106.477 34.3281C107.117 33.4688 107.438 32.3828 107.438 31.0703C107.438 29.7422 107.125 28.6797 106.5 27.8828C105.891 27.0859 105.07 26.6875 104.039 26.6875C102.961 26.6875 102.141 27.125 101.578 28C101.016 28.8594 100.734 29.8828 100.734 31.0703ZM98.8594 41.1484V25.2812H100.5L100.664 27.1562C101.508 25.75 102.719 25.0469 104.297 25.0469C105.812 25.0469 107.047 25.6016 108 26.7109C108.969 27.8203 109.453 29.2734 109.453 31.0703C109.453 32.8516 108.953 34.3281 107.953 35.5C106.969 36.6562 105.75 37.2344 104.297 37.2344C102.75 37.2344 101.562 36.5703 100.734 35.2422V41.1484H98.8594ZM118.125 37V21.1328H120.117V27.6719H121.312L127.172 21.1328H129.586L122.742 28.7031L129.961 37H127.312L120.914 29.5469H120.117V37H118.125ZM132.07 37V25.2812H133.945V37H132.07ZM132.047 23.2188C131.797 22.9688 131.672 22.6406 131.672 22.2344C131.672 21.8281 131.797 21.5078 132.047 21.2734C132.297 21.0234 132.617 20.8984 133.008 20.8984C133.398 20.8984 133.719 21.0234 133.969 21.2734C134.219 21.5078 134.344 21.8281 134.344 22.2344C134.344 22.6406 134.219 22.9688 133.969 23.2188C133.719 23.4531 133.398 23.5703 133.008 23.5703C132.617 23.5703 132.297 23.4531 132.047 23.2188ZM136.055 27.0391V25.2812H146.367V27.0391H142.148V37H140.273V27.0391H136.055ZM145.57 39.0391L148.758 33.5078L150.281 34.375L147.094 39.9062L145.57 39.0391ZM159.82 37V25.2812H161.695V35.2422H167.789V25.2812H169.664V35.2422H171.539V41.1484H169.664V37H159.82ZM175.055 29.7344H181.664C181.633 28.8438 181.359 28.1172 180.844 27.5547C180.344 26.9766 179.555 26.6875 178.477 26.6875C177.445 26.6875 176.625 26.9844 176.016 27.5781C175.406 28.1719 175.086 28.8906 175.055 29.7344ZM174.469 35.5234C173.453 34.3828 172.945 32.8984 172.945 31.0703C172.945 29.2422 173.438 27.7812 174.422 26.6875C175.406 25.5938 176.758 25.0469 178.477 25.0469C180.148 25.0469 181.438 25.5547 182.344 26.5703C183.25 27.5859 183.703 28.9062 183.703 30.5312V31.2578H174.961C174.992 32.6328 175.32 33.7031 175.945 34.4688C176.586 35.2188 177.461 35.5938 178.57 35.5938C179.727 35.5938 180.555 35.2656 181.055 34.6094C181.352 34.2031 181.5 33.7891 181.5 33.3672H183.492C183.492 34.0547 183.25 34.7422 182.766 35.4297C181.922 36.6328 180.523 37.2344 178.57 37.2344C176.852 37.2344 175.484 36.6641 174.469 35.5234ZM194.25 30.3203H197.32C198.773 30.3203 199.5 29.7344 199.5 28.5625C199.5 27.5469 198.695 27.0391 197.086 27.0391H194.25V30.3203ZM194.25 35.2422H197.297C198.094 35.2422 198.695 35.0859 199.102 34.7734C199.523 34.4609 199.734 34.0312 199.734 33.4844C199.734 33 199.531 32.6094 199.125 32.3125C198.719 32 198.117 31.8438 197.32 31.8438H194.25V35.2422ZM192.375 37V25.2812H197.297C198.578 25.2812 199.602 25.5703 200.367 26.1484C201.133 26.7266 201.516 27.4922 201.516 28.4453C201.516 29.7109 200.789 30.5625 199.336 31C200.945 31.4375 201.75 32.3828 201.75 33.8359C201.75 34.7891 201.367 35.5547 200.602 36.1328C199.836 36.7109 198.812 37 197.531 37H192.375ZM206.555 27.8828C205.945 28.6797 205.641 29.7422 205.641 31.0703C205.641 32.3984 205.945 33.4844 206.555 34.3281C207.18 35.1719 208.008 35.5938 209.039 35.5938C210.039 35.5938 210.828 35.1953 211.406 34.3984C212 33.6016 212.312 32.5625 212.344 31.2812V31.0703C212.344 29.7422 212.047 28.6797 211.453 27.8828C210.875 27.0859 210.07 26.6875 209.039 26.6875C208.008 26.6875 207.18 27.0859 206.555 27.8828ZM205.078 35.5C204.109 34.3438 203.625 32.8672 203.625 31.0703C203.625 29.2734 204.102 27.8203 205.055 26.7109C206.023 25.6016 207.266 25.0469 208.781 25.0469C210.297 25.0469 211.5 25.7656 212.391 27.2031L212.578 25.2812H214.219V37H212.578L212.367 35.0078C211.461 36.4922 210.266 37.2344 208.781 37.2344C207.281 37.2344 206.047 36.6562 205.078 35.5ZM217.5 37V25.2812H219.609L223.242 31.2578L226.875 25.2812H228.984V37H227.109V28.2812L223.852 33.6719H222.633L219.375 28.3281V37H217.5ZM237.656 33.4141H239.648C239.648 34.0391 239.883 34.5625 240.352 34.9844C240.836 35.3906 241.5 35.5938 242.344 35.5938C243.203 35.5938 243.859 35.4219 244.312 35.0781C244.781 34.7188 245.016 34.2266 245.016 33.6016C245.016 33.1641 244.797 32.7891 244.359 32.4766C243.922 32.1641 243.375 31.9922 242.719 31.9609H240.938V30.2031H242.344C243.125 30.1875 243.727 30.0234 244.148 29.7109C244.57 29.3984 244.781 28.9766 244.781 28.4453C244.781 27.8984 244.57 27.4688 244.148 27.1562C243.742 26.8438 243.141 26.6875 242.344 26.6875C241.531 26.6875 240.914 26.8906 240.492 27.2969C240.086 27.7031 239.883 28.2266 239.883 28.8672H237.891C237.891 27.8047 238.242 26.9062 238.945 26.1719C239.664 25.4219 240.797 25.0469 242.344 25.0469C243.734 25.0469 244.82 25.3516 245.602 25.9609C246.398 26.5703 246.797 27.3984 246.797 28.4453C246.797 29.6797 246.047 30.5234 244.547 30.9766C246.203 31.4141 247.031 32.3672 247.031 33.8359C247.031 34.8828 246.617 35.7109 245.789 36.3203C244.977 36.9297 243.828 37.2344 242.344 37.2344C240.75 37.2344 239.57 36.8594 238.805 36.1094C238.039 35.3594 237.656 34.4609 237.656 33.4141ZM251.836 27.8828C251.227 28.6797 250.922 29.7422 250.922 31.0703C250.922 32.3984 251.227 33.4844 251.836 34.3281C252.461 35.1719 253.289 35.5938 254.32 35.5938C255.32 35.5938 256.109 35.1953 256.688 34.3984C257.281 33.6016 257.594 32.5625 257.625 31.2812V31.0703C257.625 29.7422 257.328 28.6797 256.734 27.8828C256.156 27.0859 255.352 26.6875 254.32 26.6875C253.289 26.6875 252.461 27.0859 251.836 27.8828ZM250.359 35.5C249.391 34.3438 248.906 32.8672 248.906 31.0703C248.906 29.2734 249.383 27.8203 250.336 26.7109C251.305 25.6016 252.547 25.0469 254.062 25.0469C255.578 25.0469 256.781 25.7656 257.672 27.2031L257.859 25.2812H259.5V37H257.859L257.648 35.0078C256.742 36.4922 255.547 37.2344 254.062 37.2344C252.562 37.2344 251.328 36.6562 250.359 35.5ZM267.703 27.0391V25.2812H278.016V27.0391H273.797V37H271.922V27.0391H267.703ZM281.062 29.7344H287.672C287.641 28.8438 287.367 28.1172 286.852 27.5547C286.352 26.9766 285.562 26.6875 284.484 26.6875C283.453 26.6875 282.633 26.9844 282.023 27.5781C281.414 28.1719 281.094 28.8906 281.062 29.7344ZM280.477 35.5234C279.461 34.3828 278.953 32.8984 278.953 31.0703C278.953 29.2422 279.445 27.7812 280.43 26.6875C281.414 25.5938 282.766 25.0469 284.484 25.0469C286.156 25.0469 287.445 25.5547 288.352 26.5703C289.258 27.5859 289.711 28.9062 289.711 30.5312V31.2578H280.969C281 32.6328 281.328 33.7031 281.953 34.4688C282.594 35.2188 283.469 35.5938 284.578 35.5938C285.734 35.5938 286.562 35.2656 287.062 34.6094C287.359 34.2031 287.508 33.7891 287.508 33.3672H289.5C289.5 34.0547 289.258 34.7422 288.773 35.4297C287.93 36.6328 286.531 37.2344 284.578 37.2344C282.859 37.2344 281.492 36.6641 280.477 35.5234ZM291.023 39.0391L294.211 33.5078L295.734 34.375L292.547 39.9062L291.023 39.0391ZM40.6406 66V54.2812H42.5156V64.2422H47.2031V54.2812H49.0781V64.2422H53.7656V54.2812H55.6406V64.2422H57.5156V70.1484H55.6406V66H40.6406ZM60.9141 60.0703C60.9141 61.3984 61.2422 62.4844 61.8984 63.3281C62.5703 64.1719 63.4531 64.5938 64.5469 64.5938C65.6406 64.5938 66.5156 64.1719 67.1719 63.3281C67.8438 62.4844 68.1797 61.3984 68.1797 60.0703C68.1797 58.7578 67.8516 57.7031 67.1953 56.9062C66.5391 56.0938 65.6562 55.6875 64.5469 55.6875C63.4375 55.6875 62.5547 56.0938 61.8984 56.9062C61.2422 57.7031 60.9141 58.7578 60.9141 60.0703ZM60.4688 64.5234C59.4375 63.3672 58.9219 61.8828 58.9219 60.0703C58.9219 58.2578 59.4297 56.8047 60.4453 55.7109C61.4766 54.6016 62.8438 54.0469 64.5469 54.0469C66.25 54.0469 67.6094 54.6016 68.625 55.7109C69.6562 56.8047 70.1719 58.2578 70.1719 60.0703C70.1719 61.8828 69.6562 63.3672 68.625 64.5234C67.5938 65.6641 66.2344 66.2344 64.5469 66.2344C62.8594 66.2344 61.5 65.6641 60.4688 64.5234ZM80.7188 59.3203H83.7891C85.2422 59.3203 85.9688 58.7344 85.9688 57.5625C85.9688 56.5469 85.1641 56.0391 83.5547 56.0391H80.7188V59.3203ZM80.7188 64.2422H83.7656C84.5625 64.2422 85.1641 64.0859 85.5703 63.7734C85.9922 63.4609 86.2031 63.0312 86.2031 62.4844C86.2031 62 86 61.6094 85.5938 61.3125C85.1875 61 84.5859 60.8438 83.7891 60.8438H80.7188V64.2422ZM78.8438 66V54.2812H83.7656C85.0469 54.2812 86.0703 54.5703 86.8359 55.1484C87.6016 55.7266 87.9844 56.4922 87.9844 57.4453C87.9844 58.7109 87.2578 59.5625 85.8047 60C87.4141 60.4375 88.2188 61.3828 88.2188 62.8359C88.2188 63.7891 87.8359 64.5547 87.0703 65.1328C86.3047 65.7109 85.2812 66 84 66H78.8438ZM90.7969 66V54.2812H92.6719V63.4453L98.9062 54.2812H100.875V66H99V56.9297L92.8125 66H90.7969ZM109.078 56.0391V54.2812H119.391V56.0391H115.172V66H113.297V56.0391H109.078ZM123.258 56.8828C122.648 57.6797 122.344 58.7422 122.344 60.0703C122.344 61.3984 122.648 62.4844 123.258 63.3281C123.883 64.1719 124.711 64.5938 125.742 64.5938C126.742 64.5938 127.531 64.1953 128.109 63.3984C128.703 62.6016 129.016 61.5625 129.047 60.2812V60.0703C129.047 58.7422 128.75 57.6797 128.156 56.8828C127.578 56.0859 126.773 55.6875 125.742 55.6875C124.711 55.6875 123.883 56.0859 123.258 56.8828ZM121.781 64.5C120.812 63.3438 120.328 61.8672 120.328 60.0703C120.328 58.2734 120.805 56.8203 121.758 55.7109C122.727 54.6016 123.969 54.0469 125.484 54.0469C127 54.0469 128.203 54.7656 129.094 56.2031L129.281 54.2812H130.922V66H129.281L129.07 64.0078C128.164 65.4922 126.969 66.2344 125.484 66.2344C123.984 66.2344 122.75 65.6562 121.781 64.5ZM134.203 66V54.2812H136.078V58.9688H137.32L141.398 54.2812H143.602L138.703 59.9297L143.789 66H141.352L136.945 60.7266H136.078V66H134.203ZM145.664 66V54.2812H147.539V63.4453L153.773 54.2812H155.742V66H153.867V56.9297L147.68 66H145.664ZM160.477 50.1328H162.258C162.289 50.3828 162.445 50.6328 162.727 50.8828C163.023 51.1328 163.414 51.2578 163.898 51.2578H164.367C164.852 51.2578 165.234 51.1328 165.516 50.8828C165.812 50.6328 165.977 50.3828 166.008 50.1328H167.789C167.648 50.8672 167.273 51.4766 166.664 51.9609C166.07 52.4453 165.328 52.6875 164.438 52.6875H163.828C162.938 52.6875 162.188 52.4453 161.578 51.9609C160.984 51.4766 160.617 50.8672 160.477 50.1328ZM159.023 66V54.2812H160.898V63.4453L167.133 54.2812H169.102V66H167.227V56.9297L161.039 66H159.023ZM178.477 66V54.2812H180.352V58.9688H181.594L185.672 54.2812H187.875L182.977 59.9297L188.062 66H185.625L181.219 60.7266H180.352V66H178.477ZM191.812 60.0703C191.812 61.3672 192.086 62.4453 192.633 63.3047C193.195 64.1641 194.023 64.5938 195.117 64.5938C196.102 64.5938 196.914 64.1719 197.555 63.3281C198.195 62.4688 198.516 61.3828 198.516 60.0703C198.516 58.7422 198.203 57.6797 197.578 56.8828C196.969 56.0859 196.148 55.6875 195.117 55.6875C194.039 55.6875 193.219 56.125 192.656 57C192.094 57.8594 191.812 58.8828 191.812 60.0703ZM189.938 70.1484V54.2812H191.578L191.742 56.1562C192.586 54.75 193.797 54.0469 195.375 54.0469C196.891 54.0469 198.125 54.6016 199.078 55.7109C200.047 56.8203 200.531 58.2734 200.531 60.0703C200.531 61.8516 200.031 63.3281 199.031 64.5C198.047 65.6562 196.828 66.2344 195.375 66.2344C193.828 66.2344 192.641 65.5703 191.812 64.2422V70.1484H189.938ZM205.336 56.8828C204.727 57.6797 204.422 58.7422 204.422 60.0703C204.422 61.3984 204.727 62.4844 205.336 63.3281C205.961 64.1719 206.789 64.5938 207.82 64.5938C208.82 64.5938 209.609 64.1953 210.188 63.3984C210.781 62.6016 211.094 61.5625 211.125 60.2812V60.0703C211.125 58.7422 210.828 57.6797 210.234 56.8828C209.656 56.0859 208.852 55.6875 207.82 55.6875C206.789 55.6875 205.961 56.0859 205.336 56.8828ZM203.859 64.5C202.891 63.3438 202.406 61.8672 202.406 60.0703C202.406 58.2734 202.883 56.8203 203.836 55.7109C204.805 54.6016 206.047 54.0469 207.562 54.0469C209.078 54.0469 210.281 54.7656 211.172 56.2031L211.359 54.2812H213V66H211.359L211.148 64.0078C210.242 65.4922 209.047 66.2344 207.562 66.2344C206.062 66.2344 204.828 65.6562 203.859 64.5ZM215.578 60.0703C215.578 58.1953 216.086 56.7266 217.102 55.6641C218.117 54.5859 219.445 54.0469 221.086 54.0469C222.711 54.0469 223.945 54.6016 224.789 55.7109C225.336 56.4453 225.609 57.2812 225.609 58.2188H223.617C223.617 57.5312 223.438 56.9766 223.078 56.5547C222.609 55.9766 221.906 55.6875 220.969 55.6875C220 55.6875 219.195 56.0781 218.555 56.8594C217.914 57.625 217.594 58.6953 217.594 60.0703C217.594 61.4609 217.914 62.5625 218.555 63.375C219.211 64.1875 220.016 64.5938 220.969 64.5938C221.906 64.5938 222.617 64.2969 223.102 63.7031C223.477 63.2344 223.664 62.6719 223.664 62.0156H225.656C225.656 63.0469 225.391 63.9062 224.859 64.5938C224.016 65.6875 222.758 66.2344 221.086 66.2344C219.461 66.2344 218.133 65.6797 217.102 64.5703C216.086 63.4609 215.578 61.9609 215.578 60.0703ZM228.234 66V54.2812H230.109V63.4453L236.344 54.2812H238.312V66H236.438V56.9297L230.25 66H228.234ZM243.469 59.3203H246.539C247.992 59.3203 248.719 58.7344 248.719 57.5625C248.719 56.5469 247.914 56.0391 246.305 56.0391H243.469V59.3203ZM243.469 64.2422H246.516C247.312 64.2422 247.914 64.0859 248.32 63.7734C248.742 63.4609 248.953 63.0312 248.953 62.4844C248.953 62 248.75 61.6094 248.344 61.3125C247.938 61 247.336 60.8438 246.539 60.8438H243.469V64.2422ZM241.594 66V54.2812H246.516C247.797 54.2812 248.82 54.5703 249.586 55.1484C250.352 55.7266 250.734 56.4922 250.734 57.4453C250.734 58.7109 250.008 59.5625 248.555 60C250.164 60.4375 250.969 61.3828 250.969 62.8359C250.969 63.7891 250.586 64.5547 249.82 65.1328C249.055 65.7109 248.031 66 246.75 66H241.594ZM253.547 66V54.2812H255.422V63.4453L261.656 54.2812H263.625V66H261.75V56.9297L255.562 66H253.547ZM268.359 50.1328H270.141C270.172 50.3828 270.328 50.6328 270.609 50.8828C270.906 51.1328 271.297 51.2578 271.781 51.2578H272.25C272.734 51.2578 273.117 51.1328 273.398 50.8828C273.695 50.6328 273.859 50.3828 273.891 50.1328H275.672C275.531 50.8672 275.156 51.4766 274.547 51.9609C273.953 52.4453 273.211 52.6875 272.32 52.6875H271.711C270.82 52.6875 270.07 52.4453 269.461 51.9609C268.867 51.4766 268.5 50.8672 268.359 50.1328ZM266.906 66V54.2812H268.781V63.4453L275.016 54.2812H276.984V66H275.109V56.9297L268.922 66H266.906ZM280.852 60.8438V50.1328H282.844V60.8438H280.852ZM280.43 64.7578C280.43 64.3203 280.57 63.9688 280.852 63.7031C281.133 63.4219 281.484 63.2812 281.906 63.2812C282.328 63.2812 282.68 63.4219 282.961 63.7031C283.242 63.9688 283.383 64.3203 283.383 64.7578C283.383 65.2109 283.242 65.5703 282.961 65.8359C282.68 66.1016 282.328 66.2344 281.906 66.2344C281.484 66.2344 281.133 66.1016 280.852 65.8359C280.57 65.5703 280.43 65.2109 280.43 64.7578Z" fill="#333333"/>
<defs>
<clipPath id="clip0_805_1914">
<rect width="16" height="21" fill="white"/>
</clipPath>
</defs>
</svg>
