<svg width="216" height="61" viewBox="0 0 216 61" fill="none" xmlns="http://www.w3.org/2000/svg">
<g clip-path="url(#clip0_805_1917)">
<path d="M16.7336 0C16.7336 0 5.43758 0 2.55929 0C-0.319004 0 -0.984252 2.89396 1.67344 5.78791C4.33112 8.68187 16.7336 22 16.7336 22V0Z" fill="#FCFCFC"/>
</g>
<path d="M15 0H200C208.837 0 216 7.16344 216 16V45C216 53.8366 208.837 61 200 61H31C22.1634 61 15 53.8366 15 45V0Z" fill="#FCFCFC"/>
<path d="M39.4688 23.0078V21.1328H51.3047V23.0078H46.3828V37H44.3906V23.0078H39.4688ZM50.3672 25.2812H52.4766L56.2266 34.7266L59.625 25.2812H61.6172L57.2344 36.8828L57.1875 37C56.5781 38.4844 55.9531 39.5469 55.3125 40.1875C54.6719 40.8281 53.7578 41.1484 52.5703 41.1484H51.4219V39.25H52.5C53.6719 39.25 54.5781 38.4141 55.2188 36.7422L50.3672 25.2812ZM62.5547 27.0391V25.2812H72.8672V27.0391H68.6484V37H66.7734V27.0391H62.5547ZM81.0703 37V25.2812H82.9453V29.9688H89.2734V25.2812H91.1484V37H89.2734V31.7266H82.9453V37H81.0703ZM95.8359 29.7344H102.445C102.414 28.8438 102.141 28.1172 101.625 27.5547C101.125 26.9766 100.336 26.6875 99.2578 26.6875C98.2266 26.6875 97.4062 26.9844 96.7969 27.5781C96.1875 28.1719 95.8672 28.8906 95.8359 29.7344ZM95.25 35.5234C94.2344 34.3828 93.7266 32.8984 93.7266 31.0703C93.7266 29.2422 94.2188 27.7812 95.2031 26.6875C96.1875 25.5938 97.5391 25.0469 99.2578 25.0469C100.93 25.0469 102.219 25.5547 103.125 26.5703C104.031 27.5859 104.484 28.9062 104.484 30.5312V31.2578H95.7422C95.7734 32.6328 96.1016 33.7031 96.7266 34.4688C97.3672 35.2188 98.2422 35.5938 99.3516 35.5938C100.508 35.5938 101.336 35.2656 101.836 34.6094C102.133 34.2031 102.281 33.7891 102.281 33.3672H104.273C104.273 34.0547 104.031 34.7422 103.547 35.4297C102.703 36.6328 101.305 37.2344 99.3516 37.2344C97.6328 37.2344 96.2656 36.6641 95.25 35.5234ZM112.219 37L116.18 31.1172L112.406 25.2812H114.492L117.492 29.9922L120.258 25.2812H122.344L118.57 31.1172L122.531 37H120.188L117.328 32.4766L114.422 37H112.219ZM126.75 30.3203H129.82C131.273 30.3203 132 29.7344 132 28.5625C132 27.5469 131.195 27.0391 129.586 27.0391H126.75V30.3203ZM126.75 35.2422H129.797C130.594 35.2422 131.195 35.0859 131.602 34.7734C132.023 34.4609 132.234 34.0312 132.234 33.4844C132.234 33 132.031 32.6094 131.625 32.3125C131.219 32 130.617 31.8438 129.82 31.8438H126.75V35.2422ZM124.875 37V25.2812H129.797C131.078 25.2812 132.102 25.5703 132.867 26.1484C133.633 26.7266 134.016 27.4922 134.016 28.4453C134.016 29.7109 133.289 30.5625 131.836 31C133.445 31.4375 134.25 32.3828 134.25 33.8359C134.25 34.7891 133.867 35.5547 133.102 36.1328C132.336 36.7109 131.312 37 130.031 37H124.875ZM139.055 27.8828C138.445 28.6797 138.141 29.7422 138.141 31.0703C138.141 32.3984 138.445 33.4844 139.055 34.3281C139.68 35.1719 140.508 35.5938 141.539 35.5938C142.539 35.5938 143.328 35.1953 143.906 34.3984C144.5 33.6016 144.812 32.5625 144.844 31.2812V31.0703C144.844 29.7422 144.547 28.6797 143.953 27.8828C143.375 27.0859 142.57 26.6875 141.539 26.6875C140.508 26.6875 139.68 27.0859 139.055 27.8828ZM137.578 35.5C136.609 34.3438 136.125 32.8672 136.125 31.0703C136.125 29.2734 136.602 27.8203 137.555 26.7109C138.523 25.6016 139.766 25.0469 141.281 25.0469C142.797 25.0469 144 25.7656 144.891 27.2031L145.078 25.2812H146.719V37H145.078L144.867 35.0078C143.961 36.4922 142.766 37.2344 141.281 37.2344C139.781 37.2344 138.547 36.6562 137.578 35.5ZM148.828 27.0391V25.2812H159.141V27.0391H154.922V37H153.047V27.0391H148.828ZM163.008 27.8828C162.398 28.6797 162.094 29.7422 162.094 31.0703C162.094 32.3984 162.398 33.4844 163.008 34.3281C163.633 35.1719 164.461 35.5938 165.492 35.5938C166.492 35.5938 167.281 35.1953 167.859 34.3984C168.453 33.6016 168.766 32.5625 168.797 31.2812V31.0703C168.797 29.7422 168.5 28.6797 167.906 27.8828C167.328 27.0859 166.523 26.6875 165.492 26.6875C164.461 26.6875 163.633 27.0859 163.008 27.8828ZM161.531 35.5C160.562 34.3438 160.078 32.8672 160.078 31.0703C160.078 29.2734 160.555 27.8203 161.508 26.7109C162.477 25.6016 163.719 25.0469 165.234 25.0469C166.75 25.0469 167.953 25.7656 168.844 27.2031L169.031 25.2812H170.672V37H169.031L168.82 35.0078C167.914 36.4922 166.719 37.2344 165.234 37.2344C163.734 37.2344 162.5 36.6562 161.531 35.5ZM180.211 26.5234C180.211 26.0859 180.352 25.7344 180.633 25.4688C180.914 25.1875 181.266 25.0469 181.688 25.0469C182.109 25.0469 182.461 25.1875 182.742 25.4688C183.023 25.7344 183.164 26.0859 183.164 26.5234C183.164 26.9766 183.023 27.3359 182.742 27.6016C182.461 27.8672 182.109 28 181.688 28C181.266 28 180.914 27.8672 180.633 27.6016C180.352 27.3359 180.211 26.9766 180.211 26.5234ZM180.211 35.7578C180.211 35.3203 180.352 34.9688 180.633 34.7031C180.914 34.4219 181.266 34.2812 181.688 34.2812C182.109 34.2812 182.461 34.4219 182.742 34.7031C183.023 34.9688 183.164 35.3203 183.164 35.7578C183.164 36.2109 183.023 36.5703 182.742 36.8359C182.461 37.1016 182.109 37.2344 181.688 37.2344C181.266 37.2344 180.914 37.1016 180.633 36.8359C180.352 36.5703 180.211 36.2109 180.211 35.7578ZM186.023 31.0234C186.023 29.8047 186.133 28.6328 186.352 27.5078C186.57 26.3828 186.828 25.4531 187.125 24.7188C187.438 23.9688 187.75 23.3125 188.062 22.75C188.375 22.1875 188.641 21.7812 188.859 21.5312L189.188 21.1328H191.18C191.086 21.2266 190.961 21.375 190.805 21.5781C190.664 21.7656 190.406 22.1797 190.031 22.8203C189.656 23.4609 189.32 24.1406 189.023 24.8594C188.742 25.5625 188.484 26.4766 188.25 27.6016C188.016 28.7266 187.898 29.8672 187.898 31.0234C187.898 32.1797 188.008 33.3203 188.227 34.4453C188.461 35.5703 188.734 36.5156 189.047 37.2812C189.375 38.0625 189.695 38.7578 190.008 39.3672C190.336 39.9766 190.609 40.4219 190.828 40.7031L191.18 41.1484H189.188C189.109 41.0547 188.992 40.9141 188.836 40.7266C188.695 40.5547 188.445 40.1562 188.086 39.5312C187.727 38.9062 187.406 38.2266 187.125 37.4922C186.844 36.7734 186.586 35.8359 186.352 34.6797C186.133 33.5078 186.023 32.2891 186.023 31.0234Z" fill="#333333"/>
<defs>
<clipPath id="clip0_805_1917">
<rect width="16" height="21" fill="white"/>
</clipPath>
</defs>
</svg>
