<svg width="24" height="24" viewBox="0 0 24 24" fill="none" xmlns="http://www.w3.org/2000/svg">
<path d="M16 8.245V15.5C15.9997 16.85 15.579 18.1665 14.7964 19.2666C14.0138 20.3666 12.9081 21.1957 11.6328 21.6387C10.3575 22.0817 8.97591 22.1166 7.67988 21.7385C6.38384 21.3605 5.23768 20.5883 4.40054 19.5291C3.56339 18.47 3.07681 17.1764 3.00836 15.8281C2.93991 14.4798 3.29299 13.1436 4.01857 12.0052C4.74414 10.8667 5.80621 9.98235 7.0573 9.475C8.30838 8.96766 9.6864 8.86245 11 9.174V12.337C10.3148 12.012 9.54261 11.9183 8.7996 12.0701C8.05658 12.2218 7.38296 12.6108 6.8801 13.1785C6.37725 13.7461 6.07237 14.4618 6.01135 15.2177C5.95033 15.9736 6.13648 16.7288 6.54177 17.3698C6.94706 18.0108 7.54957 18.5028 8.25863 18.7717C8.96768 19.0407 9.74492 19.0721 10.4734 18.8612C11.2018 18.6503 11.842 18.2085 12.2977 17.6023C12.7534 16.9961 12.9998 16.2584 13 15.5V2H16C16 3.32608 16.5268 4.59785 17.4645 5.53553C18.4022 6.47322 19.6739 7 21 7V10C19.1819 10.0027 17.4176 9.38344 16 8.245Z" fill="currentColor"/>
</svg>
