<svg width="32" height="32" viewBox="0 0 32 32" fill="none" xmlns="http://www.w3.org/2000/svg">
<path d="M12.0003 1.33331V3.99998H20.0003V1.33331H22.667V3.99998H28.0003C28.3539 3.99998 28.6931 4.14046 28.9431 4.3905C29.1932 4.64055 29.3337 4.97969 29.3337 5.33331V26.6666C29.3337 27.0203 29.1932 27.3594 28.9431 27.6095C28.6931 27.8595 28.3539 28 28.0003 28H4.00033C3.6467 28 3.30756 27.8595 3.05752 27.6095C2.80747 27.3594 2.66699 27.0203 2.66699 26.6666V5.33331C2.66699 4.97969 2.80747 4.64055 3.05752 4.3905C3.30756 4.14046 3.6467 3.99998 4.00033 3.99998H9.33366V1.33331H12.0003ZM26.667 14.6666H5.33366V25.3333H26.667V14.6666ZM10.667 17.3333V20H8.00033V17.3333H10.667ZM17.3337 17.3333V20H14.667V17.3333H17.3337ZM24.0003 17.3333V20H21.3337V17.3333H24.0003ZM9.33366 6.66665H5.33366V12H26.667V6.66665H22.667V9.33331H20.0003V6.66665H12.0003V9.33331H9.33366V6.66665Z" fill="#FF5631"/>
</svg>
