<svg width="720" height="61" viewBox="0 0 720 61" fill="none" xmlns="http://www.w3.org/2000/svg">
<g clip-path="url(#clip0_966_1289)">
<path d="M25.6307 43.3818C25.6434 42.5756 25.4938 41.7915 25.3008 41.0153C25.0929 40.1786 24.8628 39.3472 24.6537 38.5107C24.4862 37.8411 24.3744 37.1622 24.3562 36.469C24.3192 35.0591 24.8105 33.8731 25.8298 32.9112C26.6858 32.1029 27.702 31.6513 28.8682 31.5416C30.1262 31.4234 31.3041 31.7113 32.4294 32.2617C33.5148 32.7918 34.4815 33.5399 35.2702 34.4601C36.1318 35.4607 37.119 36.3108 38.181 37.08C38.8868 37.5908 39.5994 38.0938 40.3008 38.6103C40.9675 39.1014 41.6037 39.6297 42.1473 40.2622C42.6786 40.8812 43.0733 41.5711 43.2463 42.3793C43.3241 42.7517 43.3563 43.1324 43.3422 43.5128C43.3231 44.1603 43.2321 44.7962 43.024 45.4113C42.75 46.2207 42.2858 46.9062 41.6764 47.4961C41.218 47.9397 40.7107 48.32 40.1821 48.6718C39.5261 49.1082 38.8623 49.5325 38.2075 49.9705C37.1428 50.6826 36.1744 51.5062 35.3304 52.4801C34.5158 53.4198 33.5658 54.1979 32.4605 54.7702C31.4619 55.2868 30.4093 55.5988 29.2779 55.5731C27.6312 55.5356 26.3103 54.8484 25.3254 53.514C24.5064 52.4047 24.2145 51.1586 24.3808 49.7917C24.4801 48.9761 24.6949 48.1879 24.9111 47.3997C25.1288 46.6051 25.3503 45.8117 25.4865 44.9971C25.5763 44.4623 25.6361 43.9251 25.6307 43.3818Z" fill="#FFDC5B"/>
<path d="M5.00178 26.7306C2.96694 26.7297 1.09647 25.2241 0.606031 23.0584C0.466014 22.4394 0.477908 21.8172 0.564796 21.1938C0.679878 20.3681 0.921165 19.5724 1.13905 18.7712C1.34352 18.0192 1.52976 17.2639 1.63103 16.4883C1.74803 15.5902 1.72444 14.698 1.51863 13.8185C1.31782 12.9601 1.08631 12.1088 0.870912 11.2539C0.708647 10.61 0.577261 9.96153 0.52931 9.2962C0.416721 7.72912 0.972759 6.4565 2.18381 5.47911C3.11137 4.73059 4.18374 4.41678 5.36352 4.45199C6.38718 4.48237 7.3368 4.78089 8.2352 5.26126C9.12536 5.73739 9.91674 6.35009 10.5737 7.1168C11.4508 8.14005 12.4689 8.99246 13.556 9.77136C14.2333 10.2566 14.9109 10.7418 15.5776 11.2417C16.1381 11.6615 16.6586 12.1284 17.1036 12.6751C17.5866 13.2688 17.9245 13.9315 18.0515 14.6955C18.1282 15.1577 18.1167 15.62 18.0707 16.0834C17.9769 17.0202 17.6832 17.8803 17.1096 18.6329C16.7992 19.044 16.4327 19.4087 16.0211 19.7163C15.5375 20.0748 15.0389 20.4128 14.5427 20.7537C13.893 21.1987 13.23 21.6262 12.5899 22.0855C11.9107 22.5728 11.3083 23.1496 10.7578 23.7828C9.97524 24.6828 9.07684 25.4394 8.01616 25.9883C7.12159 26.4503 6.17792 26.7233 5.00178 26.7306Z" fill="#FFDC5B"/>
<path d="M49.2586 44.9379C50.8552 44.9818 52.456 45.4958 53.8247 46.6524C54.4505 47.1811 54.9438 47.8161 55.2477 48.589C55.793 49.9771 55.4425 51.4194 54.3203 52.391C53.7213 52.9097 53.0237 53.2289 52.2634 53.4206C50.0289 53.9842 47.3454 53.2784 45.688 51.6881C45.1341 51.1568 44.687 50.5482 44.4466 49.8094C44.003 48.4452 44.2953 47.2535 45.323 46.2606C45.9333 45.6713 46.6823 45.3335 47.4942 45.1296C48.0174 44.9978 48.5499 44.9425 49.2586 44.9379Z" fill="#FFDC5B"/>
<path d="M49.4509 42.2622C48.2658 42.2461 47.2661 42.0461 46.3437 41.5284C45.6943 41.1635 45.1536 40.6802 44.7989 40.0116C44.311 39.0919 44.3018 38.1481 44.703 37.1974C45.018 36.4493 45.5295 35.8542 46.1592 35.3582C47.0538 34.6524 48.0732 34.2289 49.1845 34.0244C50.2237 33.8331 51.2581 33.8536 52.2798 34.1405C53.08 34.3649 53.8062 34.7307 54.4023 35.3268C55.4684 36.3928 55.6955 37.8515 55.0069 39.1987C54.5949 40.005 53.9777 40.6202 53.2319 41.1107C52.3282 41.7054 51.3331 42.0538 50.2659 42.1898C49.9486 42.2297 49.6293 42.2467 49.4509 42.2622Z" fill="#FFDC5B"/>
<path d="M24.6838 24.9095C23.2752 24.8728 21.8259 24.4127 20.5758 23.3924C19.9392 22.8731 19.4389 22.2434 19.1503 21.4616C18.6635 20.1421 19.0479 18.7927 20.1544 17.912C20.8065 17.392 21.558 17.0906 22.3722 16.9689C24.276 16.6843 26.0165 17.114 27.5674 18.2651C28.2636 18.7821 28.8068 19.4346 29.1312 20.2547C29.6343 21.5274 29.323 22.8456 28.302 23.7522C27.697 24.2897 26.9807 24.5984 26.2012 24.7712C25.7625 24.8693 25.3177 24.9084 24.6838 24.9095Z" fill="#FFDC5B"/>
<path d="M23.7757 14.3982C22.6792 14.3854 21.7666 14.2026 20.9207 13.7404C20.616 13.5759 20.3342 13.3715 20.0825 13.1325C19.0447 12.1391 18.8139 10.755 19.4736 9.47387C19.8232 8.7948 20.3353 8.26219 20.9504 7.8265C21.7435 7.26545 22.6262 6.92205 23.5781 6.75915C24.6348 6.57787 25.6794 6.62372 26.6999 6.97718C27.3496 7.2018 27.9348 7.53824 28.4137 8.04125C28.9931 8.65144 29.2948 9.3752 29.267 10.2274C29.2515 10.7059 29.118 11.1537 28.9005 11.5769C28.5698 12.2197 28.0919 12.7334 27.5163 13.1567C26.6407 13.8007 25.6558 14.1716 24.5874 14.3229C24.2723 14.368 23.9524 14.3825 23.7757 14.3982Z" fill="#FFDC5B"/>
<path d="M41.2429 52.6825C43.3483 52.8019 45.054 53.6667 46.2681 55.4346C46.6292 55.9617 46.8654 56.5655 46.9586 57.1994C47.1671 58.5617 46.5589 59.8191 45.3628 60.4831C44.8217 60.7835 44.2385 60.942 43.6264 60.9861C41.4015 61.1459 39.3147 59.9313 38.259 58.3936C37.837 57.7803 37.5416 57.1152 37.4668 56.3657C37.3345 55.0405 37.8249 54.0104 38.9361 53.2923C39.4791 52.9414 40.0878 52.7742 40.726 52.7131C40.8978 52.696 41.0706 52.6922 41.2429 52.6825Z" fill="#FFDC5B"/>
<path d="M41.4489 34.7125C40.6007 34.7007 39.864 34.567 39.1821 34.2048C38.2912 33.7316 37.6964 33.0214 37.4971 32.0076C37.3729 31.376 37.4622 30.7632 37.6899 30.1687C38.0091 29.3357 38.5419 28.6597 39.2305 28.1106C40.4321 27.1534 41.8006 26.6739 43.3366 26.7188C44.0215 26.7382 44.6792 26.8914 45.289 27.2153C46.1667 27.6813 46.7607 28.379 46.9667 29.3745C47.1096 30.0654 47.0021 30.7329 46.7311 31.3769C46.4308 32.0908 45.971 32.6875 45.3885 33.1858C44.2277 34.1772 42.8807 34.674 41.4489 34.7125Z" fill="#FFDC5B"/>
<path d="M16.1505 24.0427C18.2181 24.1782 19.8745 25.0399 20.9728 26.8617C21.3234 27.4437 21.5064 28.0871 21.488 28.777C21.4606 29.8084 21.006 30.6022 20.155 31.1644C19.6388 31.5061 19.0411 31.7017 18.4243 31.7307C16.3634 31.8369 14.7058 31.0365 13.4449 29.401C13.0601 28.902 12.8145 28.3296 12.6957 27.7039C12.4195 26.2469 13.1332 24.9205 14.5347 24.3513C15.0144 24.1565 15.5897 24.0501 16.1505 24.0427Z" fill="#FFDC5B"/>
<path d="M17.8769 0.000252018C18.6058 -0.00477808 19.3024 0.135679 19.9465 0.48566C20.7415 0.917477 21.2749 1.56114 21.4618 2.46714C21.5885 3.07947 21.502 3.67321 21.2723 4.24704C20.9345 5.09036 20.3683 5.75356 19.6419 6.27844C18.564 7.05753 17.3606 7.44678 16.0299 7.39764C15.4038 7.37462 14.805 7.22836 14.2446 6.93641C12.9091 6.23994 12.335 4.8344 12.8003 3.39211C13.0439 2.63759 13.4837 2.01076 14.0677 1.48994C15.1549 0.520677 16.4296 0.0300458 17.8769 0.000252018Z" fill="#FFDC5B"/>
</g>
<g clip-path="url(#clip1_966_1289)">
<path d="M108.631 43.3818C108.643 42.5756 108.494 41.7915 108.301 41.0153C108.093 40.1786 107.863 39.3472 107.654 38.5107C107.486 37.8411 107.374 37.1622 107.356 36.469C107.319 35.0591 107.81 33.8731 108.83 32.9112C109.686 32.1029 110.702 31.6513 111.868 31.5416C113.126 31.4234 114.304 31.7113 115.429 32.2617C116.515 32.7918 117.482 33.5399 118.27 34.4601C119.132 35.4607 120.119 36.3108 121.181 37.08C121.887 37.5908 122.599 38.0938 123.301 38.6103C123.968 39.1014 124.604 39.6297 125.147 40.2622C125.679 40.8812 126.073 41.5711 126.246 42.3793C126.324 42.7517 126.356 43.1324 126.342 43.5128C126.323 44.1603 126.232 44.7962 126.024 45.4113C125.75 46.2207 125.286 46.9062 124.676 47.4961C124.218 47.9397 123.711 48.32 123.182 48.6718C122.526 49.1082 121.862 49.5325 121.207 49.9705C120.143 50.6826 119.174 51.5062 118.33 52.4801C117.516 53.4198 116.566 54.1979 115.46 54.7702C114.462 55.2868 113.409 55.5988 112.278 55.5731C110.631 55.5356 109.31 54.8484 108.325 53.514C107.506 52.4047 107.214 51.1586 107.381 49.7917C107.48 48.9761 107.695 48.1879 107.911 47.3997C108.129 46.6051 108.35 45.8117 108.486 44.9971C108.576 44.4623 108.636 43.9251 108.631 43.3818Z" fill="#FFDC5B"/>
<path d="M88.0018 26.7306C85.9669 26.7297 84.0965 25.2241 83.606 23.0584C83.466 22.4394 83.4779 21.8172 83.5648 21.1938C83.6799 20.3681 83.9212 19.5724 84.1391 18.7712C84.3435 18.0192 84.5298 17.2639 84.631 16.4883C84.748 15.5902 84.7244 14.698 84.5186 13.8185C84.3178 12.9601 84.0863 12.1088 83.8709 11.2539C83.7086 10.61 83.5773 9.96153 83.5293 9.2962C83.4167 7.72912 83.9728 6.4565 85.1838 5.47911C86.1114 4.73059 87.1837 4.41678 88.3635 4.45199C89.3872 4.48237 90.3368 4.78089 91.2352 5.26126C92.1254 5.73739 92.9167 6.35009 93.5737 7.1168C94.4508 8.14005 95.4689 8.99246 96.556 9.77136C97.2333 10.2566 97.9109 10.7418 98.5776 11.2417C99.1381 11.6615 99.6586 12.1284 100.104 12.6751C100.587 13.2688 100.925 13.9315 101.052 14.6955C101.128 15.1577 101.117 15.62 101.071 16.0834C100.977 17.0202 100.683 17.8803 100.11 18.6329C99.7992 19.044 99.4327 19.4087 99.0211 19.7163C98.5375 20.0748 98.0389 20.4128 97.5427 20.7537C96.893 21.1987 96.23 21.6262 95.5899 22.0855C94.9107 22.5728 94.3083 23.1496 93.7578 23.7828C92.9752 24.6828 92.0768 25.4394 91.0162 25.9883C90.1216 26.4503 89.1779 26.7233 88.0018 26.7306Z" fill="#FFDC5B"/>
<path d="M132.259 44.9379C133.855 44.9818 135.456 45.4958 136.825 46.6524C137.451 47.1811 137.944 47.8161 138.248 48.589C138.793 49.9771 138.443 51.4194 137.32 52.391C136.721 52.9097 136.024 53.2289 135.263 53.4206C133.029 53.9842 130.345 53.2784 128.688 51.6881C128.134 51.1568 127.687 50.5482 127.447 49.8094C127.003 48.4452 127.295 47.2535 128.323 46.2606C128.933 45.6713 129.682 45.3335 130.494 45.1296C131.017 44.9978 131.55 44.9425 132.259 44.9379Z" fill="#FFDC5B"/>
<path d="M132.451 42.2622C131.266 42.2461 130.266 42.0461 129.344 41.5284C128.694 41.1635 128.154 40.6802 127.799 40.0116C127.311 39.0919 127.302 38.1481 127.703 37.1974C128.018 36.4493 128.529 35.8542 129.159 35.3582C130.054 34.6524 131.073 34.2289 132.185 34.0244C133.224 33.8331 134.258 33.8536 135.28 34.1405C136.08 34.3649 136.806 34.7307 137.402 35.3268C138.468 36.3928 138.695 37.8515 138.007 39.1987C137.595 40.005 136.978 40.6202 136.232 41.1107C135.328 41.7054 134.333 42.0538 133.266 42.1898C132.949 42.2297 132.629 42.2467 132.451 42.2622Z" fill="#FFDC5B"/>
<path d="M107.684 24.9095C106.275 24.8728 104.826 24.4127 103.576 23.3924C102.939 22.8731 102.439 22.2434 102.15 21.4616C101.663 20.1421 102.048 18.7927 103.154 17.912C103.807 17.392 104.558 17.0906 105.372 16.9689C107.276 16.6843 109.016 17.114 110.567 18.2651C111.264 18.7821 111.807 19.4346 112.131 20.2547C112.634 21.5274 112.323 22.8456 111.302 23.7522C110.697 24.2897 109.981 24.5984 109.201 24.7712C108.763 24.8693 108.318 24.9084 107.684 24.9095Z" fill="#FFDC5B"/>
<path d="M106.776 14.3982C105.679 14.3854 104.767 14.2026 103.921 13.7404C103.616 13.5759 103.334 13.3715 103.083 13.1325C102.045 12.1391 101.814 10.755 102.474 9.47387C102.823 8.7948 103.335 8.26219 103.95 7.8265C104.744 7.26545 105.626 6.92205 106.578 6.75915C107.635 6.57787 108.679 6.62372 109.7 6.97718C110.35 7.2018 110.935 7.53824 111.414 8.04125C111.993 8.65144 112.295 9.3752 112.267 10.2274C112.251 10.7059 112.118 11.1537 111.9 11.5769C111.57 12.2197 111.092 12.7334 110.516 13.1567C109.641 13.8007 108.656 14.1716 107.587 14.3229C107.272 14.368 106.952 14.3825 106.776 14.3982Z" fill="#FFDC5B"/>
<path d="M124.243 52.6825C126.348 52.8019 128.054 53.6667 129.268 55.4346C129.629 55.9617 129.865 56.5655 129.959 57.1994C130.167 58.5617 129.559 59.8191 128.363 60.4831C127.822 60.7835 127.238 60.942 126.626 60.9861C124.401 61.1459 122.315 59.9313 121.259 58.3936C120.837 57.7803 120.542 57.1152 120.467 56.3657C120.335 55.0405 120.825 54.0104 121.936 53.2923C122.479 52.9414 123.088 52.7742 123.726 52.7131C123.898 52.696 124.071 52.6922 124.243 52.6825Z" fill="#FFDC5B"/>
<path d="M124.449 34.7125C123.601 34.7007 122.864 34.567 122.182 34.2048C121.291 33.7316 120.696 33.0214 120.497 32.0076C120.373 31.376 120.462 30.7632 120.69 30.1687C121.009 29.3357 121.542 28.6597 122.23 28.1106C123.432 27.1534 124.801 26.6739 126.337 26.7188C127.022 26.7382 127.679 26.8914 128.289 27.2153C129.167 27.6813 129.761 28.379 129.967 29.3745C130.11 30.0654 130.002 30.7329 129.731 31.3769C129.431 32.0908 128.971 32.6875 128.389 33.1858C127.228 34.1772 125.881 34.674 124.449 34.7125Z" fill="#FFDC5B"/>
<path d="M99.1505 24.0427C101.218 24.1782 102.875 25.0399 103.973 26.8617C104.323 27.4437 104.506 28.0871 104.488 28.777C104.461 29.8084 104.006 30.6022 103.155 31.1644C102.639 31.5061 102.041 31.7017 101.424 31.7307C99.3634 31.8369 97.7058 31.0365 96.4449 29.401C96.0601 28.902 95.8145 28.3296 95.6957 27.7039C95.4195 26.2469 96.1332 24.9205 97.5347 24.3513C98.0144 24.1565 98.5897 24.0501 99.1505 24.0427Z" fill="#FFDC5B"/>
<path d="M100.877 0.000252018C101.606 -0.00477808 102.302 0.135679 102.947 0.48566C103.742 0.917477 104.275 1.56114 104.462 2.46714C104.589 3.07947 104.502 3.67321 104.272 4.24704C103.934 5.09036 103.368 5.75356 102.642 6.27844C101.564 7.05753 100.361 7.44678 99.0299 7.39764C98.4038 7.37462 97.805 7.22836 97.2446 6.93641C95.9091 6.23994 95.335 4.8344 95.8003 3.39211C96.0439 2.63759 96.4837 2.01076 97.0677 1.48994C98.1549 0.520677 99.4296 0.0300458 100.877 0.000252018Z" fill="#FFDC5B"/>
</g>
<g clip-path="url(#clip2_966_1289)">
<path d="M191.631 43.3818C191.644 42.5756 191.494 41.7915 191.301 41.0153C191.093 40.1786 190.863 39.3472 190.654 38.5107C190.486 37.8411 190.375 37.1622 190.356 36.469C190.319 35.0591 190.811 33.8731 191.83 32.9112C192.686 32.1029 193.702 31.6513 194.868 31.5416C196.126 31.4234 197.304 31.7113 198.43 32.2617C199.515 32.7918 200.482 33.5399 201.27 34.4601C202.132 35.4607 203.119 36.3108 204.181 37.08C204.887 37.5908 205.6 38.0938 206.301 38.6103C206.968 39.1014 207.604 39.6297 208.147 40.2622C208.679 40.8812 209.073 41.5711 209.246 42.3793C209.324 42.7517 209.356 43.1324 209.342 43.5128C209.323 44.1603 209.232 44.7962 209.024 45.4113C208.75 46.2207 208.286 46.9062 207.677 47.4961C207.218 47.9397 206.711 48.32 206.182 48.6718C205.526 49.1082 204.862 49.5325 204.208 49.9705C203.143 50.6826 202.174 51.5062 201.331 52.4801C200.516 53.4198 199.566 54.1979 198.461 54.7702C197.462 55.2868 196.409 55.5988 195.278 55.5731C193.631 55.5356 192.31 54.8484 191.326 53.514C190.507 52.4047 190.215 51.1586 190.381 49.7917C190.48 48.9761 190.695 48.1879 190.911 47.3997C191.129 46.6051 191.35 45.8117 191.487 44.9971C191.576 44.4623 191.636 43.9251 191.631 43.3818Z" fill="#FFDC5B"/>
<path d="M171.002 26.7306C168.967 26.7297 167.096 25.2241 166.606 23.0584C166.466 22.4394 166.478 21.8172 166.565 21.1938C166.68 20.3681 166.921 19.5724 167.139 18.7712C167.344 18.0192 167.53 17.2639 167.631 16.4883C167.748 15.5902 167.724 14.698 167.519 13.8185C167.318 12.9601 167.086 12.1088 166.871 11.2539C166.709 10.61 166.577 9.96153 166.529 9.2962C166.417 7.72912 166.973 6.4565 168.184 5.47911C169.111 4.73059 170.184 4.41678 171.364 4.45199C172.387 4.48237 173.337 4.78089 174.235 5.26126C175.125 5.73739 175.917 6.35009 176.574 7.1168C177.451 8.14005 178.469 8.99246 179.556 9.77136C180.233 10.2566 180.911 10.7418 181.578 11.2417C182.138 11.6615 182.659 12.1284 183.104 12.6751C183.587 13.2688 183.925 13.9315 184.052 14.6955C184.128 15.1577 184.117 15.62 184.071 16.0834C183.977 17.0202 183.683 17.8803 183.11 18.6329C182.799 19.044 182.433 19.4087 182.021 19.7163C181.538 20.0748 181.039 20.4128 180.543 20.7537C179.893 21.1987 179.23 21.6262 178.59 22.0855C177.911 22.5728 177.308 23.1496 176.758 23.7828C175.975 24.6828 175.077 25.4394 174.016 25.9883C173.122 26.4503 172.178 26.7233 171.002 26.7306Z" fill="#FFDC5B"/>
<path d="M215.258 44.9379C216.855 44.9818 218.456 45.4958 219.825 46.6524C220.45 47.1811 220.944 47.8161 221.248 48.589C221.793 49.9771 221.442 51.4194 220.32 52.391C219.721 52.9097 219.024 53.2289 218.263 53.4206C216.029 53.9842 213.345 53.2784 211.688 51.6881C211.134 51.1568 210.687 50.5482 210.447 49.8094C210.003 48.4452 210.295 47.2535 211.323 46.2606C211.933 45.6713 212.682 45.3335 213.494 45.1296C214.017 44.9978 214.55 44.9425 215.258 44.9379Z" fill="#FFDC5B"/>
<path d="M215.451 42.2622C214.266 42.2461 213.266 42.0461 212.344 41.5284C211.694 41.1635 211.154 40.6802 210.799 40.0116C210.311 39.0919 210.302 38.1481 210.703 37.1974C211.018 36.4493 211.529 35.8542 212.159 35.3582C213.054 34.6524 214.073 34.2289 215.185 34.0244C216.224 33.8331 217.258 33.8536 218.28 34.1405C219.08 34.3649 219.806 34.7307 220.402 35.3268C221.468 36.3928 221.695 37.8515 221.007 39.1987C220.595 40.005 219.978 40.6202 219.232 41.1107C218.328 41.7054 217.333 42.0538 216.266 42.1898C215.949 42.2297 215.629 42.2467 215.451 42.2622Z" fill="#FFDC5B"/>
<path d="M190.684 24.9095C189.275 24.8728 187.826 24.4127 186.576 23.3924C185.939 22.8731 185.439 22.2434 185.15 21.4616C184.663 20.1421 185.048 18.7927 186.154 17.912C186.806 17.392 187.558 17.0906 188.372 16.9689C190.276 16.6843 192.016 17.114 193.567 18.2651C194.264 18.7821 194.807 19.4346 195.131 20.2547C195.634 21.5274 195.323 22.8456 194.302 23.7522C193.697 24.2897 192.981 24.5984 192.201 24.7712C191.762 24.8693 191.318 24.9084 190.684 24.9095Z" fill="#FFDC5B"/>
<path d="M189.776 14.3982C188.679 14.3854 187.767 14.2026 186.921 13.7404C186.616 13.5759 186.334 13.3715 186.083 13.1325C185.045 12.1391 184.814 10.755 185.474 9.47387C185.823 8.7948 186.335 8.26219 186.95 7.8265C187.744 7.26545 188.626 6.92205 189.578 6.75915C190.635 6.57787 191.679 6.62372 192.7 6.97718C193.35 7.2018 193.935 7.53824 194.414 8.04125C194.993 8.65144 195.295 9.3752 195.267 10.2274C195.251 10.7059 195.118 11.1537 194.9 11.5769C194.57 12.2197 194.092 12.7334 193.516 13.1567C192.641 13.8007 191.656 14.1716 190.587 14.3229C190.272 14.368 189.952 14.3825 189.776 14.3982Z" fill="#FFDC5B"/>
<path d="M207.243 52.6825C209.348 52.8019 211.054 53.6667 212.268 55.4346C212.629 55.9617 212.865 56.5655 212.959 57.1994C213.167 58.5617 212.559 59.8191 211.363 60.4831C210.822 60.7835 210.238 60.942 209.626 60.9861C207.401 61.1459 205.315 59.9313 204.259 58.3936C203.837 57.7803 203.542 57.1152 203.467 56.3657C203.335 55.0405 203.825 54.0104 204.936 53.2923C205.479 52.9414 206.088 52.7742 206.726 52.7131C206.898 52.696 207.071 52.6922 207.243 52.6825Z" fill="#FFDC5B"/>
<path d="M207.449 34.7125C206.601 34.7007 205.864 34.567 205.182 34.2048C204.291 33.7316 203.696 33.0214 203.497 32.0076C203.373 31.376 203.462 30.7632 203.69 30.1687C204.009 29.3357 204.542 28.6597 205.23 28.1106C206.432 27.1534 207.801 26.6739 209.337 26.7188C210.022 26.7382 210.679 26.8914 211.289 27.2153C212.167 27.6813 212.761 28.379 212.967 29.3745C213.11 30.0654 213.002 30.7329 212.731 31.3769C212.431 32.0908 211.971 32.6875 211.389 33.1858C210.228 34.1772 208.881 34.674 207.449 34.7125Z" fill="#FFDC5B"/>
<path d="M182.151 24.0427C184.218 24.1782 185.875 25.0399 186.973 26.8617C187.324 27.4437 187.507 28.0871 187.488 28.777C187.461 29.8084 187.006 30.6022 186.155 31.1644C185.639 31.5061 185.041 31.7017 184.424 31.7307C182.364 31.8369 180.706 31.0365 179.445 29.401C179.06 28.902 178.815 28.3296 178.696 27.7039C178.42 26.2469 179.133 24.9205 180.535 24.3513C181.015 24.1565 181.59 24.0501 182.151 24.0427Z" fill="#FFDC5B"/>
<path d="M183.877 0.000252018C184.606 -0.00477808 185.302 0.135679 185.947 0.48566C186.742 0.917477 187.275 1.56114 187.462 2.46714C187.589 3.07947 187.502 3.67321 187.272 4.24704C186.934 5.09036 186.368 5.75356 185.642 6.27844C184.564 7.05753 183.361 7.44678 182.03 7.39764C181.404 7.37462 180.805 7.22836 180.245 6.93641C178.909 6.23994 178.335 4.8344 178.8 3.39211C179.044 2.63759 179.484 2.01076 180.068 1.48994C181.155 0.520677 182.43 0.0300458 183.877 0.000252018Z" fill="#FFDC5B"/>
</g>
<g clip-path="url(#clip3_966_1289)">
<path d="M274.631 43.3818C274.644 42.5756 274.494 41.7915 274.301 41.0153C274.093 40.1786 273.863 39.3472 273.654 38.5107C273.486 37.8411 273.375 37.1622 273.356 36.469C273.319 35.0591 273.811 33.8731 274.83 32.9112C275.686 32.1029 276.702 31.6513 277.868 31.5416C279.126 31.4234 280.304 31.7113 281.43 32.2617C282.515 32.7918 283.482 33.5399 284.27 34.4601C285.132 35.4607 286.119 36.3108 287.181 37.08C287.887 37.5908 288.6 38.0938 289.301 38.6103C289.968 39.1014 290.604 39.6297 291.147 40.2622C291.679 40.8812 292.073 41.5711 292.246 42.3793C292.324 42.7517 292.356 43.1324 292.342 43.5128C292.323 44.1603 292.232 44.7962 292.024 45.4113C291.75 46.2207 291.286 46.9062 290.677 47.4961C290.218 47.9397 289.711 48.32 289.182 48.6718C288.526 49.1082 287.862 49.5325 287.208 49.9705C286.143 50.6826 285.174 51.5062 284.331 52.4801C283.516 53.4198 282.566 54.1979 281.461 54.7702C280.462 55.2868 279.409 55.5988 278.278 55.5731C276.631 55.5356 275.31 54.8484 274.326 53.514C273.507 52.4047 273.215 51.1586 273.381 49.7917C273.48 48.9761 273.695 48.1879 273.911 47.3997C274.129 46.6051 274.35 45.8117 274.487 44.9971C274.576 44.4623 274.636 43.9251 274.631 43.3818Z" fill="#FFDC5B"/>
<path d="M254.002 26.7306C251.967 26.7297 250.096 25.2241 249.606 23.0584C249.466 22.4394 249.478 21.8172 249.565 21.1938C249.68 20.3681 249.921 19.5724 250.139 18.7712C250.344 18.0192 250.53 17.2639 250.631 16.4883C250.748 15.5902 250.724 14.698 250.519 13.8185C250.318 12.9601 250.086 12.1088 249.871 11.2539C249.709 10.61 249.577 9.96153 249.529 9.2962C249.417 7.72912 249.973 6.4565 251.184 5.47911C252.111 4.73059 253.184 4.41678 254.364 4.45199C255.387 4.48237 256.337 4.78089 257.235 5.26126C258.125 5.73739 258.917 6.35009 259.574 7.1168C260.451 8.14005 261.469 8.99246 262.556 9.77136C263.233 10.2566 263.911 10.7418 264.578 11.2417C265.138 11.6615 265.659 12.1284 266.104 12.6751C266.587 13.2688 266.925 13.9315 267.052 14.6955C267.128 15.1577 267.117 15.62 267.071 16.0834C266.977 17.0202 266.683 17.8803 266.11 18.6329C265.799 19.044 265.433 19.4087 265.021 19.7163C264.538 20.0748 264.039 20.4128 263.543 20.7537C262.893 21.1987 262.23 21.6262 261.59 22.0855C260.911 22.5728 260.308 23.1496 259.758 23.7828C258.975 24.6828 258.077 25.4394 257.016 25.9883C256.122 26.4503 255.178 26.7233 254.002 26.7306Z" fill="#FFDC5B"/>
<path d="M298.258 44.9379C299.855 44.9818 301.456 45.4958 302.825 46.6524C303.45 47.1811 303.944 47.8161 304.248 48.589C304.793 49.9771 304.442 51.4194 303.32 52.391C302.721 52.9097 302.024 53.2289 301.263 53.4206C299.029 53.9842 296.345 53.2784 294.688 51.6881C294.134 51.1568 293.687 50.5482 293.447 49.8094C293.003 48.4452 293.295 47.2535 294.323 46.2606C294.933 45.6713 295.682 45.3335 296.494 45.1296C297.017 44.9978 297.55 44.9425 298.258 44.9379Z" fill="#FFDC5B"/>
<path d="M298.451 42.2622C297.266 42.2461 296.266 42.0461 295.344 41.5284C294.694 41.1635 294.154 40.6802 293.799 40.0116C293.311 39.0919 293.302 38.1481 293.703 37.1974C294.018 36.4493 294.529 35.8542 295.159 35.3582C296.054 34.6524 297.073 34.2289 298.185 34.0244C299.224 33.8331 300.258 33.8536 301.28 34.1405C302.08 34.3649 302.806 34.7307 303.402 35.3268C304.468 36.3928 304.695 37.8515 304.007 39.1987C303.595 40.005 302.978 40.6202 302.232 41.1107C301.328 41.7054 300.333 42.0538 299.266 42.1898C298.949 42.2297 298.629 42.2467 298.451 42.2622Z" fill="#FFDC5B"/>
<path d="M273.684 24.9095C272.275 24.8728 270.826 24.4127 269.576 23.3924C268.939 22.8731 268.439 22.2434 268.15 21.4616C267.663 20.1421 268.048 18.7927 269.154 17.912C269.806 17.392 270.558 17.0906 271.372 16.9689C273.276 16.6843 275.016 17.114 276.567 18.2651C277.264 18.7821 277.807 19.4346 278.131 20.2547C278.634 21.5274 278.323 22.8456 277.302 23.7522C276.697 24.2897 275.981 24.5984 275.201 24.7712C274.762 24.8693 274.318 24.9084 273.684 24.9095Z" fill="#FFDC5B"/>
<path d="M272.776 14.3982C271.679 14.3854 270.767 14.2026 269.921 13.7404C269.616 13.5759 269.334 13.3715 269.083 13.1325C268.045 12.1391 267.814 10.755 268.474 9.47387C268.823 8.7948 269.335 8.26219 269.95 7.8265C270.744 7.26545 271.626 6.92205 272.578 6.75915C273.635 6.57787 274.679 6.62372 275.7 6.97718C276.35 7.2018 276.935 7.53824 277.414 8.04125C277.993 8.65144 278.295 9.3752 278.267 10.2274C278.251 10.7059 278.118 11.1537 277.9 11.5769C277.57 12.2197 277.092 12.7334 276.516 13.1567C275.641 13.8007 274.656 14.1716 273.587 14.3229C273.272 14.368 272.952 14.3825 272.776 14.3982Z" fill="#FFDC5B"/>
<path d="M290.243 52.6825C292.348 52.8019 294.054 53.6667 295.268 55.4346C295.629 55.9617 295.865 56.5655 295.959 57.1994C296.167 58.5617 295.559 59.8191 294.363 60.4831C293.822 60.7835 293.238 60.942 292.626 60.9861C290.401 61.1459 288.315 59.9313 287.259 58.3936C286.837 57.7803 286.542 57.1152 286.467 56.3657C286.335 55.0405 286.825 54.0104 287.936 53.2923C288.479 52.9414 289.088 52.7742 289.726 52.7131C289.898 52.696 290.071 52.6922 290.243 52.6825Z" fill="#FFDC5B"/>
<path d="M290.449 34.7125C289.601 34.7007 288.864 34.567 288.182 34.2048C287.291 33.7316 286.696 33.0214 286.497 32.0076C286.373 31.376 286.462 30.7632 286.69 30.1687C287.009 29.3357 287.542 28.6597 288.23 28.1106C289.432 27.1534 290.801 26.6739 292.337 26.7188C293.022 26.7382 293.679 26.8914 294.289 27.2153C295.167 27.6813 295.761 28.379 295.967 29.3745C296.11 30.0654 296.002 30.7329 295.731 31.3769C295.431 32.0908 294.971 32.6875 294.389 33.1858C293.228 34.1772 291.881 34.674 290.449 34.7125Z" fill="#FFDC5B"/>
<path d="M265.151 24.0427C267.218 24.1782 268.875 25.0399 269.973 26.8617C270.324 27.4437 270.507 28.0871 270.488 28.777C270.461 29.8084 270.006 30.6022 269.155 31.1644C268.639 31.5061 268.041 31.7017 267.424 31.7307C265.364 31.8369 263.706 31.0365 262.445 29.401C262.06 28.902 261.815 28.3296 261.696 27.7039C261.42 26.2469 262.133 24.9205 263.535 24.3513C264.015 24.1565 264.59 24.0501 265.151 24.0427Z" fill="#FFDC5B"/>
<path d="M266.877 0.000252018C267.606 -0.00477808 268.302 0.135679 268.947 0.48566C269.742 0.917477 270.275 1.56114 270.462 2.46714C270.589 3.07947 270.502 3.67321 270.272 4.24704C269.934 5.09036 269.368 5.75356 268.642 6.27844C267.564 7.05753 266.361 7.44678 265.03 7.39764C264.404 7.37462 263.805 7.22836 263.245 6.93641C261.909 6.23994 261.335 4.8344 261.8 3.39211C262.044 2.63759 262.484 2.01076 263.068 1.48994C264.155 0.520677 265.43 0.0300458 266.877 0.000252018Z" fill="#FFDC5B"/>
</g>
<g clip-path="url(#clip4_966_1289)">
<path d="M357.631 43.3818C357.644 42.5756 357.494 41.7915 357.301 41.0153C357.093 40.1786 356.863 39.3472 356.654 38.5107C356.486 37.8411 356.375 37.1622 356.356 36.469C356.319 35.0591 356.811 33.8731 357.83 32.9112C358.686 32.1029 359.702 31.6513 360.868 31.5416C362.126 31.4234 363.304 31.7113 364.43 32.2617C365.515 32.7918 366.482 33.5399 367.27 34.4601C368.132 35.4607 369.119 36.3108 370.181 37.08C370.887 37.5908 371.6 38.0938 372.301 38.6103C372.968 39.1014 373.604 39.6297 374.147 40.2622C374.679 40.8812 375.073 41.5711 375.246 42.3793C375.324 42.7517 375.356 43.1324 375.342 43.5128C375.323 44.1603 375.232 44.7962 375.024 45.4113C374.75 46.2207 374.286 46.9062 373.677 47.4961C373.218 47.9397 372.711 48.32 372.182 48.6718C371.526 49.1082 370.862 49.5325 370.208 49.9705C369.143 50.6826 368.174 51.5062 367.331 52.4801C366.516 53.4198 365.566 54.1979 364.461 54.7702C363.462 55.2868 362.409 55.5988 361.278 55.5731C359.631 55.5356 358.31 54.8484 357.326 53.514C356.507 52.4047 356.215 51.1586 356.381 49.7917C356.48 48.9761 356.695 48.1879 356.911 47.3997C357.129 46.6051 357.35 45.8117 357.487 44.9971C357.576 44.4623 357.636 43.9251 357.631 43.3818Z" fill="#FFDC5B"/>
<path d="M337.002 26.7306C334.967 26.7297 333.096 25.2241 332.606 23.0584C332.466 22.4394 332.478 21.8172 332.565 21.1938C332.68 20.3681 332.921 19.5724 333.139 18.7712C333.344 18.0192 333.53 17.2639 333.631 16.4883C333.748 15.5902 333.724 14.698 333.519 13.8185C333.318 12.9601 333.086 12.1088 332.871 11.2539C332.709 10.61 332.577 9.96153 332.529 9.2962C332.417 7.72912 332.973 6.4565 334.184 5.47911C335.111 4.73059 336.184 4.41678 337.364 4.45199C338.387 4.48237 339.337 4.78089 340.235 5.26126C341.125 5.73739 341.917 6.35009 342.574 7.1168C343.451 8.14005 344.469 8.99246 345.556 9.77136C346.233 10.2566 346.911 10.7418 347.578 11.2417C348.138 11.6615 348.659 12.1284 349.104 12.6751C349.587 13.2688 349.925 13.9315 350.052 14.6955C350.128 15.1577 350.117 15.62 350.071 16.0834C349.977 17.0202 349.683 17.8803 349.11 18.6329C348.799 19.044 348.433 19.4087 348.021 19.7163C347.538 20.0748 347.039 20.4128 346.543 20.7537C345.893 21.1987 345.23 21.6262 344.59 22.0855C343.911 22.5728 343.308 23.1496 342.758 23.7828C341.975 24.6828 341.077 25.4394 340.016 25.9883C339.122 26.4503 338.178 26.7233 337.002 26.7306Z" fill="#FFDC5B"/>
<path d="M381.258 44.9379C382.855 44.9818 384.456 45.4958 385.825 46.6524C386.45 47.1811 386.944 47.8161 387.248 48.589C387.793 49.9771 387.442 51.4194 386.32 52.391C385.721 52.9097 385.024 53.2289 384.263 53.4206C382.029 53.9842 379.345 53.2784 377.688 51.6881C377.134 51.1568 376.687 50.5482 376.447 49.8094C376.003 48.4452 376.295 47.2535 377.323 46.2606C377.933 45.6713 378.682 45.3335 379.494 45.1296C380.017 44.9978 380.55 44.9425 381.258 44.9379Z" fill="#FFDC5B"/>
<path d="M381.451 42.2622C380.266 42.2461 379.266 42.0461 378.344 41.5284C377.694 41.1635 377.154 40.6802 376.799 40.0116C376.311 39.0919 376.302 38.1481 376.703 37.1974C377.018 36.4493 377.529 35.8542 378.159 35.3582C379.054 34.6524 380.073 34.2289 381.185 34.0244C382.224 33.8331 383.258 33.8536 384.28 34.1405C385.08 34.3649 385.806 34.7307 386.402 35.3268C387.468 36.3928 387.695 37.8515 387.007 39.1987C386.595 40.005 385.978 40.6202 385.232 41.1107C384.328 41.7054 383.333 42.0538 382.266 42.1898C381.949 42.2297 381.629 42.2467 381.451 42.2622Z" fill="#FFDC5B"/>
<path d="M356.684 24.9095C355.275 24.8728 353.826 24.4127 352.576 23.3924C351.939 22.8731 351.439 22.2434 351.15 21.4616C350.663 20.1421 351.048 18.7927 352.154 17.912C352.806 17.392 353.558 17.0906 354.372 16.9689C356.276 16.6843 358.016 17.114 359.567 18.2651C360.264 18.7821 360.807 19.4346 361.131 20.2547C361.634 21.5274 361.323 22.8456 360.302 23.7522C359.697 24.2897 358.981 24.5984 358.201 24.7712C357.762 24.8693 357.318 24.9084 356.684 24.9095Z" fill="#FFDC5B"/>
<path d="M355.776 14.3982C354.679 14.3854 353.767 14.2026 352.921 13.7404C352.616 13.5759 352.334 13.3715 352.083 13.1325C351.045 12.1391 350.814 10.755 351.474 9.47387C351.823 8.7948 352.335 8.26219 352.95 7.8265C353.744 7.26545 354.626 6.92205 355.578 6.75915C356.635 6.57787 357.679 6.62372 358.7 6.97718C359.35 7.2018 359.935 7.53824 360.414 8.04125C360.993 8.65144 361.295 9.3752 361.267 10.2274C361.251 10.7059 361.118 11.1537 360.9 11.5769C360.57 12.2197 360.092 12.7334 359.516 13.1567C358.641 13.8007 357.656 14.1716 356.587 14.3229C356.272 14.368 355.952 14.3825 355.776 14.3982Z" fill="#FFDC5B"/>
<path d="M373.243 52.6825C375.348 52.8019 377.054 53.6667 378.268 55.4346C378.629 55.9617 378.865 56.5655 378.959 57.1994C379.167 58.5617 378.559 59.8191 377.363 60.4831C376.822 60.7835 376.238 60.942 375.626 60.9861C373.401 61.1459 371.315 59.9313 370.259 58.3936C369.837 57.7803 369.542 57.1152 369.467 56.3657C369.335 55.0405 369.825 54.0104 370.936 53.2923C371.479 52.9414 372.088 52.7742 372.726 52.7131C372.898 52.696 373.071 52.6922 373.243 52.6825Z" fill="#FFDC5B"/>
<path d="M373.449 34.7125C372.601 34.7007 371.864 34.567 371.182 34.2048C370.291 33.7316 369.696 33.0214 369.497 32.0076C369.373 31.376 369.462 30.7632 369.69 30.1687C370.009 29.3357 370.542 28.6597 371.23 28.1106C372.432 27.1534 373.801 26.6739 375.337 26.7188C376.022 26.7382 376.679 26.8914 377.289 27.2153C378.167 27.6813 378.761 28.379 378.967 29.3745C379.11 30.0654 379.002 30.7329 378.731 31.3769C378.431 32.0908 377.971 32.6875 377.389 33.1858C376.228 34.1772 374.881 34.674 373.449 34.7125Z" fill="#FFDC5B"/>
<path d="M348.151 24.0427C350.218 24.1782 351.875 25.0399 352.973 26.8617C353.324 27.4437 353.507 28.0871 353.488 28.777C353.461 29.8084 353.006 30.6022 352.155 31.1644C351.639 31.5061 351.041 31.7017 350.424 31.7307C348.364 31.8369 346.706 31.0365 345.445 29.401C345.06 28.902 344.815 28.3296 344.696 27.7039C344.42 26.2469 345.133 24.9205 346.535 24.3513C347.015 24.1565 347.59 24.0501 348.151 24.0427Z" fill="#FFDC5B"/>
<path d="M349.877 0.000252018C350.606 -0.00477808 351.302 0.135679 351.947 0.48566C352.742 0.917477 353.275 1.56114 353.462 2.46714C353.589 3.07947 353.502 3.67321 353.272 4.24704C352.934 5.09036 352.368 5.75356 351.642 6.27844C350.564 7.05753 349.361 7.44678 348.03 7.39764C347.404 7.37462 346.805 7.22836 346.245 6.93641C344.909 6.23994 344.335 4.8344 344.8 3.39211C345.044 2.63759 345.484 2.01076 346.068 1.48994C347.155 0.520677 348.43 0.0300458 349.877 0.000252018Z" fill="#FFDC5B"/>
</g>
<g clip-path="url(#clip5_966_1289)">
<path d="M440.631 43.3818C440.644 42.5756 440.494 41.7915 440.301 41.0153C440.093 40.1786 439.863 39.3472 439.654 38.5107C439.486 37.8411 439.375 37.1622 439.356 36.469C439.319 35.0591 439.811 33.8731 440.83 32.9112C441.686 32.1029 442.702 31.6513 443.868 31.5416C445.126 31.4234 446.304 31.7113 447.43 32.2617C448.515 32.7918 449.482 33.5399 450.27 34.4601C451.132 35.4607 452.119 36.3108 453.181 37.08C453.887 37.5908 454.6 38.0938 455.301 38.6103C455.968 39.1014 456.604 39.6297 457.147 40.2622C457.679 40.8812 458.073 41.5711 458.246 42.3793C458.324 42.7517 458.356 43.1324 458.342 43.5128C458.323 44.1603 458.232 44.7962 458.024 45.4113C457.75 46.2207 457.286 46.9062 456.677 47.4961C456.218 47.9397 455.711 48.32 455.182 48.6718C454.526 49.1082 453.862 49.5325 453.208 49.9705C452.143 50.6826 451.174 51.5062 450.331 52.4801C449.516 53.4198 448.566 54.1979 447.461 54.7702C446.462 55.2868 445.409 55.5988 444.278 55.5731C442.631 55.5356 441.31 54.8484 440.326 53.514C439.507 52.4047 439.215 51.1586 439.381 49.7917C439.48 48.9761 439.695 48.1879 439.911 47.3997C440.129 46.6051 440.35 45.8117 440.487 44.9971C440.576 44.4623 440.636 43.9251 440.631 43.3818Z" fill="#FFDC5B"/>
<path d="M420.002 26.7306C417.967 26.7297 416.096 25.2241 415.606 23.0584C415.466 22.4394 415.478 21.8172 415.565 21.1938C415.68 20.3681 415.921 19.5724 416.139 18.7712C416.344 18.0192 416.53 17.2639 416.631 16.4883C416.748 15.5902 416.724 14.698 416.519 13.8185C416.318 12.9601 416.086 12.1088 415.871 11.2539C415.709 10.61 415.577 9.96153 415.529 9.2962C415.417 7.72912 415.973 6.4565 417.184 5.47911C418.111 4.73059 419.184 4.41678 420.364 4.45199C421.387 4.48237 422.337 4.78089 423.235 5.26126C424.125 5.73739 424.917 6.35009 425.574 7.1168C426.451 8.14005 427.469 8.99246 428.556 9.77136C429.233 10.2566 429.911 10.7418 430.578 11.2417C431.138 11.6615 431.659 12.1284 432.104 12.6751C432.587 13.2688 432.925 13.9315 433.052 14.6955C433.128 15.1577 433.117 15.62 433.071 16.0834C432.977 17.0202 432.683 17.8803 432.11 18.6329C431.799 19.044 431.433 19.4087 431.021 19.7163C430.538 20.0748 430.039 20.4128 429.543 20.7537C428.893 21.1987 428.23 21.6262 427.59 22.0855C426.911 22.5728 426.308 23.1496 425.758 23.7828C424.975 24.6828 424.077 25.4394 423.016 25.9883C422.122 26.4503 421.178 26.7233 420.002 26.7306Z" fill="#FFDC5B"/>
<path d="M464.258 44.9379C465.855 44.9818 467.456 45.4958 468.825 46.6524C469.45 47.1811 469.944 47.8161 470.248 48.589C470.793 49.9771 470.442 51.4194 469.32 52.391C468.721 52.9097 468.024 53.2289 467.263 53.4206C465.029 53.9842 462.345 53.2784 460.688 51.6881C460.134 51.1568 459.687 50.5482 459.447 49.8094C459.003 48.4452 459.295 47.2535 460.323 46.2606C460.933 45.6713 461.682 45.3335 462.494 45.1296C463.017 44.9978 463.55 44.9425 464.258 44.9379Z" fill="#FFDC5B"/>
<path d="M464.451 42.2622C463.266 42.2461 462.266 42.0461 461.344 41.5284C460.694 41.1635 460.154 40.6802 459.799 40.0116C459.311 39.0919 459.302 38.1481 459.703 37.1974C460.018 36.4493 460.529 35.8542 461.159 35.3582C462.054 34.6524 463.073 34.2289 464.185 34.0244C465.224 33.8331 466.258 33.8536 467.28 34.1405C468.08 34.3649 468.806 34.7307 469.402 35.3268C470.468 36.3928 470.695 37.8515 470.007 39.1987C469.595 40.005 468.978 40.6202 468.232 41.1107C467.328 41.7054 466.333 42.0538 465.266 42.1898C464.949 42.2297 464.629 42.2467 464.451 42.2622Z" fill="#FFDC5B"/>
<path d="M439.684 24.9095C438.275 24.8728 436.826 24.4127 435.576 23.3924C434.939 22.8731 434.439 22.2434 434.15 21.4616C433.663 20.1421 434.048 18.7927 435.154 17.912C435.806 17.392 436.558 17.0906 437.372 16.9689C439.276 16.6843 441.016 17.114 442.567 18.2651C443.264 18.7821 443.807 19.4346 444.131 20.2547C444.634 21.5274 444.323 22.8456 443.302 23.7522C442.697 24.2897 441.981 24.5984 441.201 24.7712C440.762 24.8693 440.318 24.9084 439.684 24.9095Z" fill="#FFDC5B"/>
<path d="M438.776 14.3982C437.679 14.3854 436.767 14.2026 435.921 13.7404C435.616 13.5759 435.334 13.3715 435.083 13.1325C434.045 12.1391 433.814 10.755 434.474 9.47387C434.823 8.7948 435.335 8.26219 435.95 7.8265C436.744 7.26545 437.626 6.92205 438.578 6.75915C439.635 6.57787 440.679 6.62372 441.7 6.97718C442.35 7.2018 442.935 7.53824 443.414 8.04125C443.993 8.65144 444.295 9.3752 444.267 10.2274C444.251 10.7059 444.118 11.1537 443.9 11.5769C443.57 12.2197 443.092 12.7334 442.516 13.1567C441.641 13.8007 440.656 14.1716 439.587 14.3229C439.272 14.368 438.952 14.3825 438.776 14.3982Z" fill="#FFDC5B"/>
<path d="M456.243 52.6825C458.348 52.8019 460.054 53.6667 461.268 55.4346C461.629 55.9617 461.865 56.5655 461.959 57.1994C462.167 58.5617 461.559 59.8191 460.363 60.4831C459.822 60.7835 459.238 60.942 458.626 60.9861C456.401 61.1459 454.315 59.9313 453.259 58.3936C452.837 57.7803 452.542 57.1152 452.467 56.3657C452.335 55.0405 452.825 54.0104 453.936 53.2923C454.479 52.9414 455.088 52.7742 455.726 52.7131C455.898 52.696 456.071 52.6922 456.243 52.6825Z" fill="#FFDC5B"/>
<path d="M456.449 34.7125C455.601 34.7007 454.864 34.567 454.182 34.2048C453.291 33.7316 452.696 33.0214 452.497 32.0076C452.373 31.376 452.462 30.7632 452.69 30.1687C453.009 29.3357 453.542 28.6597 454.23 28.1106C455.432 27.1534 456.801 26.6739 458.337 26.7188C459.022 26.7382 459.679 26.8914 460.289 27.2153C461.167 27.6813 461.761 28.379 461.967 29.3745C462.11 30.0654 462.002 30.7329 461.731 31.3769C461.431 32.0908 460.971 32.6875 460.389 33.1858C459.228 34.1772 457.881 34.674 456.449 34.7125Z" fill="#FFDC5B"/>
<path d="M431.151 24.0427C433.218 24.1782 434.875 25.0399 435.973 26.8617C436.324 27.4437 436.507 28.0871 436.488 28.777C436.461 29.8084 436.006 30.6022 435.155 31.1644C434.639 31.5061 434.041 31.7017 433.424 31.7307C431.364 31.8369 429.706 31.0365 428.445 29.401C428.06 28.902 427.815 28.3296 427.696 27.7039C427.42 26.2469 428.133 24.9205 429.535 24.3513C430.015 24.1565 430.59 24.0501 431.151 24.0427Z" fill="#FFDC5B"/>
<path d="M432.877 0.000252018C433.606 -0.00477808 434.302 0.135679 434.947 0.48566C435.742 0.917477 436.275 1.56114 436.462 2.46714C436.589 3.07947 436.502 3.67321 436.272 4.24704C435.934 5.09036 435.368 5.75356 434.642 6.27844C433.564 7.05753 432.361 7.44678 431.03 7.39764C430.404 7.37462 429.805 7.22836 429.245 6.93641C427.909 6.23994 427.335 4.8344 427.8 3.39211C428.044 2.63759 428.484 2.01076 429.068 1.48994C430.155 0.520677 431.43 0.0300458 432.877 0.000252018Z" fill="#FFDC5B"/>
</g>
<g clip-path="url(#clip6_966_1289)">
<path d="M523.631 43.3818C523.644 42.5756 523.494 41.7915 523.301 41.0153C523.093 40.1786 522.863 39.3472 522.654 38.5107C522.486 37.8411 522.375 37.1622 522.356 36.469C522.319 35.0591 522.811 33.8731 523.83 32.9112C524.686 32.1029 525.702 31.6513 526.868 31.5416C528.126 31.4234 529.304 31.7113 530.43 32.2617C531.515 32.7918 532.482 33.5399 533.27 34.4601C534.132 35.4607 535.119 36.3108 536.181 37.08C536.887 37.5908 537.6 38.0938 538.301 38.6103C538.968 39.1014 539.604 39.6297 540.147 40.2622C540.679 40.8812 541.073 41.5711 541.246 42.3793C541.324 42.7517 541.356 43.1324 541.342 43.5128C541.323 44.1603 541.232 44.7962 541.024 45.4113C540.75 46.2207 540.286 46.9062 539.677 47.4961C539.218 47.9397 538.711 48.32 538.182 48.6718C537.526 49.1082 536.862 49.5325 536.208 49.9705C535.143 50.6826 534.174 51.5062 533.331 52.4801C532.516 53.4198 531.566 54.1979 530.461 54.7702C529.462 55.2868 528.409 55.5988 527.278 55.5731C525.631 55.5356 524.31 54.8484 523.326 53.514C522.507 52.4047 522.215 51.1586 522.381 49.7917C522.48 48.9761 522.695 48.1879 522.911 47.3997C523.129 46.6051 523.35 45.8117 523.487 44.9971C523.576 44.4623 523.636 43.9251 523.631 43.3818Z" fill="#FFDC5B"/>
<path d="M503.002 26.7306C500.967 26.7297 499.096 25.2241 498.606 23.0584C498.466 22.4394 498.478 21.8172 498.565 21.1938C498.68 20.3681 498.921 19.5724 499.139 18.7712C499.344 18.0192 499.53 17.2639 499.631 16.4883C499.748 15.5902 499.724 14.698 499.519 13.8185C499.318 12.9601 499.086 12.1088 498.871 11.2539C498.709 10.61 498.577 9.96153 498.529 9.2962C498.417 7.72912 498.973 6.4565 500.184 5.47911C501.111 4.73059 502.184 4.41678 503.364 4.45199C504.387 4.48237 505.337 4.78089 506.235 5.26126C507.125 5.73739 507.917 6.35009 508.574 7.1168C509.451 8.14005 510.469 8.99246 511.556 9.77136C512.233 10.2566 512.911 10.7418 513.578 11.2417C514.138 11.6615 514.659 12.1284 515.104 12.6751C515.587 13.2688 515.925 13.9315 516.052 14.6955C516.128 15.1577 516.117 15.62 516.071 16.0834C515.977 17.0202 515.683 17.8803 515.11 18.6329C514.799 19.044 514.433 19.4087 514.021 19.7163C513.538 20.0748 513.039 20.4128 512.543 20.7537C511.893 21.1987 511.23 21.6262 510.59 22.0855C509.911 22.5728 509.308 23.1496 508.758 23.7828C507.975 24.6828 507.077 25.4394 506.016 25.9883C505.122 26.4503 504.178 26.7233 503.002 26.7306Z" fill="#FFDC5B"/>
<path d="M547.258 44.9379C548.855 44.9818 550.456 45.4958 551.825 46.6524C552.45 47.1811 552.944 47.8161 553.248 48.589C553.793 49.9771 553.442 51.4194 552.32 52.391C551.721 52.9097 551.024 53.2289 550.263 53.4206C548.029 53.9842 545.345 53.2784 543.688 51.6881C543.134 51.1568 542.687 50.5482 542.447 49.8094C542.003 48.4452 542.295 47.2535 543.323 46.2606C543.933 45.6713 544.682 45.3335 545.494 45.1296C546.017 44.9978 546.55 44.9425 547.258 44.9379Z" fill="#FFDC5B"/>
<path d="M547.451 42.2622C546.266 42.2461 545.266 42.0461 544.344 41.5284C543.694 41.1635 543.154 40.6802 542.799 40.0116C542.311 39.0919 542.302 38.1481 542.703 37.1974C543.018 36.4493 543.529 35.8542 544.159 35.3582C545.054 34.6524 546.073 34.2289 547.185 34.0244C548.224 33.8331 549.258 33.8536 550.28 34.1405C551.08 34.3649 551.806 34.7307 552.402 35.3268C553.468 36.3928 553.695 37.8515 553.007 39.1987C552.595 40.005 551.978 40.6202 551.232 41.1107C550.328 41.7054 549.333 42.0538 548.266 42.1898C547.949 42.2297 547.629 42.2467 547.451 42.2622Z" fill="#FFDC5B"/>
<path d="M522.684 24.9095C521.275 24.8728 519.826 24.4127 518.576 23.3924C517.939 22.8731 517.439 22.2434 517.15 21.4616C516.663 20.1421 517.048 18.7927 518.154 17.912C518.806 17.392 519.558 17.0906 520.372 16.9689C522.276 16.6843 524.016 17.114 525.567 18.2651C526.264 18.7821 526.807 19.4346 527.131 20.2547C527.634 21.5274 527.323 22.8456 526.302 23.7522C525.697 24.2897 524.981 24.5984 524.201 24.7712C523.762 24.8693 523.318 24.9084 522.684 24.9095Z" fill="#FFDC5B"/>
<path d="M521.776 14.3982C520.679 14.3854 519.767 14.2026 518.921 13.7404C518.616 13.5759 518.334 13.3715 518.083 13.1325C517.045 12.1391 516.814 10.755 517.474 9.47387C517.823 8.7948 518.335 8.26219 518.95 7.8265C519.744 7.26545 520.626 6.92205 521.578 6.75915C522.635 6.57787 523.679 6.62372 524.7 6.97718C525.35 7.2018 525.935 7.53824 526.414 8.04125C526.993 8.65144 527.295 9.3752 527.267 10.2274C527.251 10.7059 527.118 11.1537 526.9 11.5769C526.57 12.2197 526.092 12.7334 525.516 13.1567C524.641 13.8007 523.656 14.1716 522.587 14.3229C522.272 14.368 521.952 14.3825 521.776 14.3982Z" fill="#FFDC5B"/>
<path d="M539.243 52.6825C541.348 52.8019 543.054 53.6667 544.268 55.4346C544.629 55.9617 544.865 56.5655 544.959 57.1994C545.167 58.5617 544.559 59.8191 543.363 60.4831C542.822 60.7835 542.238 60.942 541.626 60.9861C539.401 61.1459 537.315 59.9313 536.259 58.3936C535.837 57.7803 535.542 57.1152 535.467 56.3657C535.335 55.0405 535.825 54.0104 536.936 53.2923C537.479 52.9414 538.088 52.7742 538.726 52.7131C538.898 52.696 539.071 52.6922 539.243 52.6825Z" fill="#FFDC5B"/>
<path d="M539.449 34.7125C538.601 34.7007 537.864 34.567 537.182 34.2048C536.291 33.7316 535.696 33.0214 535.497 32.0076C535.373 31.376 535.462 30.7632 535.69 30.1687C536.009 29.3357 536.542 28.6597 537.23 28.1106C538.432 27.1534 539.801 26.6739 541.337 26.7188C542.022 26.7382 542.679 26.8914 543.289 27.2153C544.167 27.6813 544.761 28.379 544.967 29.3745C545.11 30.0654 545.002 30.7329 544.731 31.3769C544.431 32.0908 543.971 32.6875 543.389 33.1858C542.228 34.1772 540.881 34.674 539.449 34.7125Z" fill="#FFDC5B"/>
<path d="M514.151 24.0427C516.218 24.1782 517.875 25.0399 518.973 26.8617C519.324 27.4437 519.507 28.0871 519.488 28.777C519.461 29.8084 519.006 30.6022 518.155 31.1644C517.639 31.5061 517.041 31.7017 516.424 31.7307C514.364 31.8369 512.706 31.0365 511.445 29.401C511.06 28.902 510.815 28.3296 510.696 27.7039C510.42 26.2469 511.133 24.9205 512.535 24.3513C513.015 24.1565 513.59 24.0501 514.151 24.0427Z" fill="#FFDC5B"/>
<path d="M515.877 0.000252018C516.606 -0.00477808 517.302 0.135679 517.947 0.48566C518.742 0.917477 519.275 1.56114 519.462 2.46714C519.589 3.07947 519.502 3.67321 519.272 4.24704C518.934 5.09036 518.368 5.75356 517.642 6.27844C516.564 7.05753 515.361 7.44678 514.03 7.39764C513.404 7.37462 512.805 7.22836 512.245 6.93641C510.909 6.23994 510.335 4.8344 510.8 3.39211C511.044 2.63759 511.484 2.01076 512.068 1.48994C513.155 0.520677 514.43 0.0300458 515.877 0.000252018Z" fill="#FFDC5B"/>
</g>
<g clip-path="url(#clip7_966_1289)">
<path d="M606.631 43.3818C606.644 42.5756 606.494 41.7915 606.301 41.0153C606.093 40.1786 605.863 39.3472 605.654 38.5107C605.486 37.8411 605.375 37.1622 605.356 36.469C605.319 35.0591 605.811 33.8731 606.83 32.9112C607.686 32.1029 608.702 31.6513 609.868 31.5416C611.126 31.4234 612.304 31.7113 613.43 32.2617C614.515 32.7918 615.482 33.5399 616.27 34.4601C617.132 35.4607 618.119 36.3108 619.181 37.08C619.887 37.5908 620.6 38.0938 621.301 38.6103C621.968 39.1014 622.604 39.6297 623.147 40.2622C623.679 40.8812 624.073 41.5711 624.246 42.3793C624.324 42.7517 624.356 43.1324 624.342 43.5128C624.323 44.1603 624.232 44.7962 624.024 45.4113C623.75 46.2207 623.286 46.9062 622.677 47.4961C622.218 47.9397 621.711 48.32 621.182 48.6718C620.526 49.1082 619.862 49.5325 619.208 49.9705C618.143 50.6826 617.174 51.5062 616.331 52.4801C615.516 53.4198 614.566 54.1979 613.461 54.7702C612.462 55.2868 611.409 55.5988 610.278 55.5731C608.631 55.5356 607.31 54.8484 606.326 53.514C605.507 52.4047 605.215 51.1586 605.381 49.7917C605.48 48.9761 605.695 48.1879 605.911 47.3997C606.129 46.6051 606.35 45.8117 606.487 44.9971C606.576 44.4623 606.636 43.9251 606.631 43.3818Z" fill="#FFDC5B"/>
<path d="M586.002 26.7306C583.967 26.7297 582.096 25.2241 581.606 23.0584C581.466 22.4394 581.478 21.8172 581.565 21.1938C581.68 20.3681 581.921 19.5724 582.139 18.7712C582.344 18.0192 582.53 17.2639 582.631 16.4883C582.748 15.5902 582.724 14.698 582.519 13.8185C582.318 12.9601 582.086 12.1088 581.871 11.2539C581.709 10.61 581.577 9.96153 581.529 9.2962C581.417 7.72912 581.973 6.4565 583.184 5.47911C584.111 4.73059 585.184 4.41678 586.364 4.45199C587.387 4.48237 588.337 4.78089 589.235 5.26126C590.125 5.73739 590.917 6.35009 591.574 7.1168C592.451 8.14005 593.469 8.99246 594.556 9.77136C595.233 10.2566 595.911 10.7418 596.578 11.2417C597.138 11.6615 597.659 12.1284 598.104 12.6751C598.587 13.2688 598.925 13.9315 599.052 14.6955C599.128 15.1577 599.117 15.62 599.071 16.0834C598.977 17.0202 598.683 17.8803 598.11 18.6329C597.799 19.044 597.433 19.4087 597.021 19.7163C596.538 20.0748 596.039 20.4128 595.543 20.7537C594.893 21.1987 594.23 21.6262 593.59 22.0855C592.911 22.5728 592.308 23.1496 591.758 23.7828C590.975 24.6828 590.077 25.4394 589.016 25.9883C588.122 26.4503 587.178 26.7233 586.002 26.7306Z" fill="#FFDC5B"/>
<path d="M630.258 44.9379C631.855 44.9818 633.456 45.4958 634.825 46.6524C635.45 47.1811 635.944 47.8161 636.248 48.589C636.793 49.9771 636.442 51.4194 635.32 52.391C634.721 52.9097 634.024 53.2289 633.263 53.4206C631.029 53.9842 628.345 53.2784 626.688 51.6881C626.134 51.1568 625.687 50.5482 625.447 49.8094C625.003 48.4452 625.295 47.2535 626.323 46.2606C626.933 45.6713 627.682 45.3335 628.494 45.1296C629.017 44.9978 629.55 44.9425 630.258 44.9379Z" fill="#FFDC5B"/>
<path d="M630.451 42.2622C629.266 42.2461 628.266 42.0461 627.344 41.5284C626.694 41.1635 626.154 40.6802 625.799 40.0116C625.311 39.0919 625.302 38.1481 625.703 37.1974C626.018 36.4493 626.529 35.8542 627.159 35.3582C628.054 34.6524 629.073 34.2289 630.185 34.0244C631.224 33.8331 632.258 33.8536 633.28 34.1405C634.08 34.3649 634.806 34.7307 635.402 35.3268C636.468 36.3928 636.695 37.8515 636.007 39.1987C635.595 40.005 634.978 40.6202 634.232 41.1107C633.328 41.7054 632.333 42.0538 631.266 42.1898C630.949 42.2297 630.629 42.2467 630.451 42.2622Z" fill="#FFDC5B"/>
<path d="M605.684 24.9095C604.275 24.8728 602.826 24.4127 601.576 23.3924C600.939 22.8731 600.439 22.2434 600.15 21.4616C599.663 20.1421 600.048 18.7927 601.154 17.912C601.806 17.392 602.558 17.0906 603.372 16.9689C605.276 16.6843 607.016 17.114 608.567 18.2651C609.264 18.7821 609.807 19.4346 610.131 20.2547C610.634 21.5274 610.323 22.8456 609.302 23.7522C608.697 24.2897 607.981 24.5984 607.201 24.7712C606.762 24.8693 606.318 24.9084 605.684 24.9095Z" fill="#FFDC5B"/>
<path d="M604.776 14.3982C603.679 14.3854 602.767 14.2026 601.921 13.7404C601.616 13.5759 601.334 13.3715 601.083 13.1325C600.045 12.1391 599.814 10.755 600.474 9.47387C600.823 8.7948 601.335 8.26219 601.95 7.8265C602.744 7.26545 603.626 6.92205 604.578 6.75915C605.635 6.57787 606.679 6.62372 607.7 6.97718C608.35 7.2018 608.935 7.53824 609.414 8.04125C609.993 8.65144 610.295 9.3752 610.267 10.2274C610.251 10.7059 610.118 11.1537 609.9 11.5769C609.57 12.2197 609.092 12.7334 608.516 13.1567C607.641 13.8007 606.656 14.1716 605.587 14.3229C605.272 14.368 604.952 14.3825 604.776 14.3982Z" fill="#FFDC5B"/>
<path d="M622.243 52.6825C624.348 52.8019 626.054 53.6667 627.268 55.4346C627.629 55.9617 627.865 56.5655 627.959 57.1994C628.167 58.5617 627.559 59.8191 626.363 60.4831C625.822 60.7835 625.238 60.942 624.626 60.9861C622.401 61.1459 620.315 59.9313 619.259 58.3936C618.837 57.7803 618.542 57.1152 618.467 56.3657C618.335 55.0405 618.825 54.0104 619.936 53.2923C620.479 52.9414 621.088 52.7742 621.726 52.7131C621.898 52.696 622.071 52.6922 622.243 52.6825Z" fill="#FFDC5B"/>
<path d="M622.449 34.7125C621.601 34.7007 620.864 34.567 620.182 34.2048C619.291 33.7316 618.696 33.0214 618.497 32.0076C618.373 31.376 618.462 30.7632 618.69 30.1687C619.009 29.3357 619.542 28.6597 620.23 28.1106C621.432 27.1534 622.801 26.6739 624.337 26.7188C625.022 26.7382 625.679 26.8914 626.289 27.2153C627.167 27.6813 627.761 28.379 627.967 29.3745C628.11 30.0654 628.002 30.7329 627.731 31.3769C627.431 32.0908 626.971 32.6875 626.389 33.1858C625.228 34.1772 623.881 34.674 622.449 34.7125Z" fill="#FFDC5B"/>
<path d="M597.151 24.0427C599.218 24.1782 600.875 25.0399 601.973 26.8617C602.324 27.4437 602.507 28.0871 602.488 28.777C602.461 29.8084 602.006 30.6022 601.155 31.1644C600.639 31.5061 600.041 31.7017 599.424 31.7307C597.364 31.8369 595.706 31.0365 594.445 29.401C594.06 28.902 593.815 28.3296 593.696 27.7039C593.42 26.2469 594.133 24.9205 595.535 24.3513C596.015 24.1565 596.59 24.0501 597.151 24.0427Z" fill="#FFDC5B"/>
<path d="M598.877 0.000252018C599.606 -0.00477808 600.302 0.135679 600.947 0.48566C601.742 0.917477 602.275 1.56114 602.462 2.46714C602.589 3.07947 602.502 3.67321 602.272 4.24704C601.934 5.09036 601.368 5.75356 600.642 6.27844C599.564 7.05753 598.361 7.44678 597.03 7.39764C596.404 7.37462 595.805 7.22836 595.245 6.93641C593.909 6.23994 593.335 4.8344 593.8 3.39211C594.044 2.63759 594.484 2.01076 595.068 1.48994C596.155 0.520677 597.43 0.0300458 598.877 0.000252018Z" fill="#FFDC5B"/>
</g>
<g clip-path="url(#clip8_966_1289)">
<path d="M689.631 43.3818C689.644 42.5756 689.494 41.7915 689.301 41.0153C689.093 40.1786 688.863 39.3472 688.654 38.5107C688.486 37.8411 688.375 37.1622 688.356 36.469C688.319 35.0591 688.811 33.8731 689.83 32.9112C690.686 32.1029 691.702 31.6513 692.868 31.5416C694.126 31.4234 695.304 31.7113 696.43 32.2617C697.515 32.7918 698.482 33.5399 699.27 34.4601C700.132 35.4607 701.119 36.3108 702.181 37.08C702.887 37.5908 703.6 38.0938 704.301 38.6103C704.968 39.1014 705.604 39.6297 706.147 40.2622C706.679 40.8812 707.073 41.5711 707.246 42.3793C707.324 42.7517 707.356 43.1324 707.342 43.5128C707.323 44.1603 707.232 44.7962 707.024 45.4113C706.75 46.2207 706.286 46.9062 705.677 47.4961C705.218 47.9397 704.711 48.32 704.182 48.6718C703.526 49.1082 702.862 49.5325 702.208 49.9705C701.143 50.6826 700.174 51.5062 699.331 52.4801C698.516 53.4198 697.566 54.1979 696.461 54.7702C695.462 55.2868 694.409 55.5988 693.278 55.5731C691.631 55.5356 690.31 54.8484 689.326 53.514C688.507 52.4047 688.215 51.1586 688.381 49.7917C688.48 48.9761 688.695 48.1879 688.911 47.3997C689.129 46.6051 689.35 45.8117 689.487 44.9971C689.576 44.4623 689.636 43.9251 689.631 43.3818Z" fill="#FFDC5B"/>
<path d="M669.002 26.7306C666.967 26.7297 665.096 25.2241 664.606 23.0584C664.466 22.4394 664.478 21.8172 664.565 21.1938C664.68 20.3681 664.921 19.5724 665.139 18.7712C665.344 18.0192 665.53 17.2639 665.631 16.4883C665.748 15.5902 665.724 14.698 665.519 13.8185C665.318 12.9601 665.086 12.1088 664.871 11.2539C664.709 10.61 664.577 9.96153 664.529 9.2962C664.417 7.72912 664.973 6.4565 666.184 5.47911C667.111 4.73059 668.184 4.41678 669.364 4.45199C670.387 4.48237 671.337 4.78089 672.235 5.26126C673.125 5.73739 673.917 6.35009 674.574 7.1168C675.451 8.14005 676.469 8.99246 677.556 9.77136C678.233 10.2566 678.911 10.7418 679.578 11.2417C680.138 11.6615 680.659 12.1284 681.104 12.6751C681.587 13.2688 681.925 13.9315 682.052 14.6955C682.128 15.1577 682.117 15.62 682.071 16.0834C681.977 17.0202 681.683 17.8803 681.11 18.6329C680.799 19.044 680.433 19.4087 680.021 19.7163C679.538 20.0748 679.039 20.4128 678.543 20.7537C677.893 21.1987 677.23 21.6262 676.59 22.0855C675.911 22.5728 675.308 23.1496 674.758 23.7828C673.975 24.6828 673.077 25.4394 672.016 25.9883C671.122 26.4503 670.178 26.7233 669.002 26.7306Z" fill="#FFDC5B"/>
<path d="M713.258 44.9379C714.855 44.9818 716.456 45.4958 717.825 46.6524C718.45 47.1811 718.944 47.8161 719.248 48.589C719.793 49.9771 719.442 51.4194 718.32 52.391C717.721 52.9097 717.024 53.2289 716.263 53.4206C714.029 53.9842 711.345 53.2784 709.688 51.6881C709.134 51.1568 708.687 50.5482 708.447 49.8094C708.003 48.4452 708.295 47.2535 709.323 46.2606C709.933 45.6713 710.682 45.3335 711.494 45.1296C712.017 44.9978 712.55 44.9425 713.258 44.9379Z" fill="#FFDC5B"/>
<path d="M713.451 42.2622C712.266 42.2461 711.266 42.0461 710.344 41.5284C709.694 41.1635 709.154 40.6802 708.799 40.0116C708.311 39.0919 708.302 38.1481 708.703 37.1974C709.018 36.4493 709.529 35.8542 710.159 35.3582C711.054 34.6524 712.073 34.2289 713.185 34.0244C714.224 33.8331 715.258 33.8536 716.28 34.1405C717.08 34.3649 717.806 34.7307 718.402 35.3268C719.468 36.3928 719.695 37.8515 719.007 39.1987C718.595 40.005 717.978 40.6202 717.232 41.1107C716.328 41.7054 715.333 42.0538 714.266 42.1898C713.949 42.2297 713.629 42.2467 713.451 42.2622Z" fill="#FFDC5B"/>
<path d="M688.684 24.9095C687.275 24.8728 685.826 24.4127 684.576 23.3924C683.939 22.8731 683.439 22.2434 683.15 21.4616C682.663 20.1421 683.048 18.7927 684.154 17.912C684.806 17.392 685.558 17.0906 686.372 16.9689C688.276 16.6843 690.016 17.114 691.567 18.2651C692.264 18.7821 692.807 19.4346 693.131 20.2547C693.634 21.5274 693.323 22.8456 692.302 23.7522C691.697 24.2897 690.981 24.5984 690.201 24.7712C689.762 24.8693 689.318 24.9084 688.684 24.9095Z" fill="#FFDC5B"/>
<path d="M687.776 14.3982C686.679 14.3854 685.767 14.2026 684.921 13.7404C684.616 13.5759 684.334 13.3715 684.083 13.1325C683.045 12.1391 682.814 10.755 683.474 9.47387C683.823 8.7948 684.335 8.26219 684.95 7.8265C685.744 7.26545 686.626 6.92205 687.578 6.75915C688.635 6.57787 689.679 6.62372 690.7 6.97718C691.35 7.2018 691.935 7.53824 692.414 8.04125C692.993 8.65144 693.295 9.3752 693.267 10.2274C693.251 10.7059 693.118 11.1537 692.9 11.5769C692.57 12.2197 692.092 12.7334 691.516 13.1567C690.641 13.8007 689.656 14.1716 688.587 14.3229C688.272 14.368 687.952 14.3825 687.776 14.3982Z" fill="#FFDC5B"/>
<path d="M705.243 52.6825C707.348 52.8019 709.054 53.6667 710.268 55.4346C710.629 55.9617 710.865 56.5655 710.959 57.1994C711.167 58.5617 710.559 59.8191 709.363 60.4831C708.822 60.7835 708.238 60.942 707.626 60.9861C705.401 61.1459 703.315 59.9313 702.259 58.3936C701.837 57.7803 701.542 57.1152 701.467 56.3657C701.335 55.0405 701.825 54.0104 702.936 53.2923C703.479 52.9414 704.088 52.7742 704.726 52.7131C704.898 52.696 705.071 52.6922 705.243 52.6825Z" fill="#FFDC5B"/>
<path d="M705.449 34.7125C704.601 34.7007 703.864 34.567 703.182 34.2048C702.291 33.7316 701.696 33.0214 701.497 32.0076C701.373 31.376 701.462 30.7632 701.69 30.1687C702.009 29.3357 702.542 28.6597 703.23 28.1106C704.432 27.1534 705.801 26.6739 707.337 26.7188C708.022 26.7382 708.679 26.8914 709.289 27.2153C710.167 27.6813 710.761 28.379 710.967 29.3745C711.11 30.0654 711.002 30.7329 710.731 31.3769C710.431 32.0908 709.971 32.6875 709.389 33.1858C708.228 34.1772 706.881 34.674 705.449 34.7125Z" fill="#FFDC5B"/>
<path d="M680.151 24.0427C682.218 24.1782 683.875 25.0399 684.973 26.8617C685.324 27.4437 685.507 28.0871 685.488 28.777C685.461 29.8084 685.006 30.6022 684.155 31.1644C683.639 31.5061 683.041 31.7017 682.424 31.7307C680.364 31.8369 678.706 31.0365 677.445 29.401C677.06 28.902 676.815 28.3296 676.696 27.7039C676.42 26.2469 677.133 24.9205 678.535 24.3513C679.015 24.1565 679.59 24.0501 680.151 24.0427Z" fill="#FFDC5B"/>
<path d="M681.877 0.000252018C682.606 -0.00477808 683.302 0.135679 683.947 0.48566C684.742 0.917477 685.275 1.56114 685.462 2.46714C685.589 3.07947 685.502 3.67321 685.272 4.24704C684.934 5.09036 684.368 5.75356 683.642 6.27844C682.564 7.05753 681.361 7.44678 680.03 7.39764C679.404 7.37462 678.805 7.22836 678.245 6.93641C676.909 6.23994 676.335 4.8344 676.8 3.39211C677.044 2.63759 677.484 2.01076 678.068 1.48994C679.155 0.520677 680.43 0.0300458 681.877 0.000252018Z" fill="#FFDC5B"/>
</g>
<defs>
<clipPath id="clip0_966_1289">
<rect width="61" height="55" fill="white" transform="translate(55.5) rotate(90)"/>
</clipPath>
<clipPath id="clip1_966_1289">
<rect width="61" height="55" fill="white" transform="translate(138.5) rotate(90)"/>
</clipPath>
<clipPath id="clip2_966_1289">
<rect width="61" height="55" fill="white" transform="translate(221.5) rotate(90)"/>
</clipPath>
<clipPath id="clip3_966_1289">
<rect width="61" height="55" fill="white" transform="translate(304.5) rotate(90)"/>
</clipPath>
<clipPath id="clip4_966_1289">
<rect width="61" height="55" fill="white" transform="translate(387.5) rotate(90)"/>
</clipPath>
<clipPath id="clip5_966_1289">
<rect width="61" height="55" fill="white" transform="translate(470.5) rotate(90)"/>
</clipPath>
<clipPath id="clip6_966_1289">
<rect width="61" height="55" fill="white" transform="translate(553.5) rotate(90)"/>
</clipPath>
<clipPath id="clip7_966_1289">
<rect width="61" height="55" fill="white" transform="translate(636.5) rotate(90)"/>
</clipPath>
<clipPath id="clip8_966_1289">
<rect width="61" height="55" fill="white" transform="translate(719.5) rotate(90)"/>
</clipPath>
</defs>
</svg>
