<svg width="32" height="32" viewBox="0 0 32 32" fill="none" xmlns="http://www.w3.org/2000/svg">
<g clip-path="url(#clip0_1339_3628)">
<path d="M14.6665 21.2453C12.1544 20.9048 9.86541 19.6229 8.26234 17.6591C6.65926 15.6952 5.86178 13.1959 6.03115 10.6664C6.20052 8.13703 7.32412 5.76632 9.17471 4.03371C11.0253 2.30111 13.4648 1.33592 15.9999 1.33332C18.538 1.33087 20.9822 2.29368 22.8368 4.02656C24.6913 5.75943 25.8176 8.13269 25.9872 10.6652C26.1568 13.1977 25.357 15.6999 23.75 17.6646C22.143 19.6293 19.849 20.9093 17.3332 21.2453V24H23.9999V26.6667H17.3332V32H14.6665V26.6667H7.99988V24H14.6665V21.2453ZM15.9999 18.6667C17.9448 18.6667 19.8101 17.894 21.1853 16.5188C22.5606 15.1435 23.3332 13.2782 23.3332 11.3333C23.3332 9.3884 22.5606 7.52314 21.1853 6.14787C19.8101 4.7726 17.9448 3.99998 15.9999 3.99998C14.055 3.99998 12.1897 4.7726 10.8144 6.14787C9.43916 7.52314 8.66654 9.3884 8.66654 11.3333C8.66654 13.2782 9.43916 15.1435 10.8144 16.5188C12.1897 17.894 14.055 18.6667 15.9999 18.6667Z" fill="black"/>
</g>
<defs>
<clipPath id="clip0_1339_3628">
<rect width="32" height="32" fill="white"/>
</clipPath>
</defs>
</svg>
